<svg width="121" height="121" viewBox="0 0 121 121" fill="none" xmlns="http://www.w3.org/2000/svg">
<rect x="0.980225" y="0.75" width="60" height="60" rx="10" fill="#C5CE38"/>
<g clip-path="url(#clip0_4137_463)">
<path d="M93.1482 92.918L120.101 65.9062C120.687 65.3203 120.98 64.6074 120.98 63.7676C120.98 62.9277 120.687 62.2148 120.101 61.6289C119.515 61.043 118.802 60.75 117.963 60.75C117.123 60.75 116.41 61.043 115.824 61.6289L90.9802 86.4727L66.1365 61.6289C65.5505 61.043 64.8376 60.75 63.9978 60.75C63.158 60.75 62.4451 61.043 61.8591 61.6289C61.2732 62.2148 60.9802 62.9277 60.9802 63.7676C60.9802 64.6074 61.2732 65.3203 61.8591 65.9062L88.8123 92.918C89.3982 93.5039 90.1208 93.7969 90.9802 93.7969C91.8396 93.7969 92.5623 93.5039 93.1482 92.918Z" fill="white"/>
</g>
<defs>
<clipPath id="clip0_4137_463">
<rect width="60" height="60" fill="white" transform="matrix(0 1 1 0 60.9802 60.75)"/>
</clipPath>
</defs>
</svg>
