<svg width="61" height="61" viewBox="0 0 61 61" fill="none" xmlns="http://www.w3.org/2000/svg">
<rect x="0.980225" y="0.75" width="60" height="60" rx="10" fill="#C5CE38"/>
<g clip-path="url(#clip0_4137_457)">
<path d="M33.1482 28.582L6.13647 1.62891C5.55054 1.04297 4.83765 0.75 3.9978 0.75C3.15796 0.75 2.44507 1.04297 1.85913 1.62891C1.27319 2.21484 0.980225 2.92773 0.980225 3.76758C0.980225 4.60742 1.27319 5.32031 1.85913 5.90625L26.7029 30.75L1.85913 55.5938C1.27319 56.1797 0.980225 56.8926 0.980225 57.7324C0.980225 58.5723 1.27319 59.2852 1.85913 59.8711C2.44507 60.457 3.15796 60.75 3.9978 60.75C4.83765 60.75 5.55054 60.457 6.13647 59.8711L33.1482 32.918C33.7341 32.332 34.0271 31.6094 34.0271 30.75C34.0271 29.8906 33.7341 29.168 33.1482 28.582Z" fill="white"/>
</g>
<defs>
<clipPath id="clip0_4137_457">
<rect width="60" height="60" fill="white" transform="matrix(1 0 0 -1 0.980225 60.75)"/>
</clipPath>
</defs>
</svg>
