<svg width="15" height="16" viewBox="0 0 15 16" fill="none" xmlns="http://www.w3.org/2000/svg">
<path d="M13.8125 6.47168C14.1003 6.47168 14.3438 6.58236 14.543 6.80371C14.7643 7.00293 14.875 7.24642 14.875 7.53418V8.59668C14.875 8.88444 14.7643 9.139 14.543 9.36035C14.3438 9.55957 14.1003 9.65918 13.8125 9.65918H9.03125V14.4404C9.03125 14.7282 8.92057 14.9717 8.69922 15.1709C8.5 15.3923 8.25651 15.5029 7.96875 15.5029H6.90625C6.61849 15.5029 6.36393 15.3923 6.14258 15.1709C5.94336 14.9717 5.84375 14.7282 5.84375 14.4404V9.65918H1.0625C0.77474 9.65918 0.520182 9.55957 0.298828 9.36035C0.0996094 9.139 0 8.88444 0 8.59668V7.53418C0 7.24642 0.0996094 7.00293 0.298828 6.80371C0.520182 6.58236 0.77474 6.47168 1.0625 6.47168H5.84375V1.69043C5.84375 1.40267 5.94336 1.15918 6.14258 0.959961C6.36393 0.738607 6.61849 0.62793 6.90625 0.62793H7.96875C8.25651 0.62793 8.5 0.738607 8.69922 0.959961C8.92057 1.15918 9.03125 1.40267 9.03125 1.69043V6.47168H13.8125Z" fill="#04000B"/>
</svg>
