<svg width="41" height="41" viewBox="0 0 41 41" fill="none" xmlns="http://www.w3.org/2000/svg">
<path d="M20.9805 0.879883C18.2201 0.879883 15.6289 1.40071 13.207 2.44238C10.7852 3.51009 8.66927 4.94889 6.85938 6.75879C5.04948 8.56868 3.61068 10.6846 2.54297 13.1064C1.5013 15.5283 0.980469 18.1195 0.980469 20.8799C0.980469 23.6403 1.5013 26.2314 2.54297 28.6533C3.61068 31.0752 5.04948 33.1911 6.85938 35.001C8.66927 36.8109 10.7852 38.2497 13.207 39.3174C15.6289 40.359 18.2201 40.8799 20.9805 40.8799C23.7409 40.8799 26.332 40.359 28.7539 39.3174C31.1758 38.2497 33.2917 36.8109 35.1016 35.001C36.9115 33.1911 38.3503 31.0752 39.418 28.6533C40.4596 26.2314 40.9805 23.6403 40.9805 20.8799C40.9805 18.1195 40.4596 15.5283 39.418 13.1064C38.3503 10.6846 36.9115 8.56868 35.1016 6.75879C33.2917 4.94889 31.1758 3.51009 28.7539 2.44238C26.332 1.40071 23.7409 0.879883 20.9805 0.879883ZM31.0977 16.6221L20.2773 27.4814C20.1211 27.6377 19.9388 27.7549 19.7305 27.833C19.5221 27.9111 19.3138 27.9502 19.1055 27.9502C18.8971 27.9502 18.6888 27.9111 18.4805 27.833C18.2721 27.7549 18.0898 27.6377 17.9336 27.4814L12.5039 22.0518C12.1914 21.7393 12.0352 21.3486 12.0352 20.8799C12.0352 20.4111 12.1914 20.0205 12.5039 19.708C12.8424 19.3695 13.2396 19.2002 13.6953 19.2002C14.151 19.2002 14.5352 19.3695 14.8477 19.708L19.1055 23.9268L28.7539 14.2783C29.0924 13.9658 29.4896 13.8096 29.9453 13.8096C30.401 13.8096 30.7852 13.9658 31.0977 14.2783C31.4362 14.6169 31.6055 15.014 31.6055 15.4697C31.6055 15.9255 31.4362 16.3096 31.0977 16.6221Z" fill="#C5CE38"/>
</svg>
