<svg width="41" height="41" viewBox="0 0 41 41" fill="none" xmlns="http://www.w3.org/2000/svg">
<path d="M20.9805 0.469727C18.2201 0.469727 15.6289 0.990559 13.207 2.03223C10.7852 3.09993 8.66927 4.53874 6.85938 6.34863C5.04948 8.15853 3.61068 10.2744 2.54297 12.6963C1.5013 15.1182 0.980469 17.7093 0.980469 20.4697C0.980469 23.2301 1.5013 25.8213 2.54297 28.2432C3.61068 30.665 5.04948 32.7809 6.85938 34.5908C8.66927 36.4007 10.7852 37.8395 13.207 38.9072C15.6289 39.9489 18.2201 40.4697 20.9805 40.4697C23.7409 40.4697 26.332 39.9489 28.7539 38.9072C31.1758 37.8395 33.2917 36.4007 35.1016 34.5908C36.9115 32.7809 38.3503 30.665 39.418 28.2432C40.4596 25.8213 40.9805 23.2301 40.9805 20.4697C40.9805 17.7093 40.4596 15.1182 39.418 12.6963C38.3503 10.2744 36.9115 8.15853 35.1016 6.34863C33.2917 4.53874 31.1758 3.09993 28.7539 2.03223C26.332 0.990559 23.7409 0.469727 20.9805 0.469727ZM31.0977 16.2119L20.2773 27.0713C20.1211 27.2275 19.9388 27.3447 19.7305 27.4229C19.5221 27.501 19.3138 27.54 19.1055 27.54C18.8971 27.54 18.6888 27.501 18.4805 27.4229C18.2721 27.3447 18.0898 27.2275 17.9336 27.0713L12.5039 21.6416C12.1914 21.3291 12.0352 20.9385 12.0352 20.4697C12.0352 20.001 12.1914 19.6104 12.5039 19.2979C12.8424 18.9593 13.2396 18.79 13.6953 18.79C14.151 18.79 14.5352 18.9593 14.8477 19.2979L19.1055 23.5166L28.7539 13.8682C29.0924 13.5557 29.4896 13.3994 29.9453 13.3994C30.401 13.3994 30.7852 13.5557 31.0977 13.8682C31.4362 14.2067 31.6055 14.6038 31.6055 15.0596C31.6055 15.5153 31.4362 15.8994 31.0977 16.2119Z" fill="#EEC044"/>
</svg>
