<svg width="41" height="41" viewBox="0 0 41 41" fill="none" xmlns="http://www.w3.org/2000/svg">
<path d="M20.9805 0.279785C18.2201 0.279785 15.6289 0.800617 13.207 1.84229C10.7852 2.90999 8.66927 4.3488 6.85938 6.15869C5.04948 7.96859 3.61068 10.0845 2.54297 12.5063C1.5013 14.9282 0.980469 17.5194 0.980469 20.2798C0.980469 23.0402 1.5013 25.6313 2.54297 28.0532C3.61068 30.4751 5.04948 32.591 6.85938 34.4009C8.66927 36.2108 10.7852 37.6496 13.207 38.7173C15.6289 39.759 18.2201 40.2798 20.9805 40.2798C23.7409 40.2798 26.332 39.759 28.7539 38.7173C31.1758 37.6496 33.2917 36.2108 35.1016 34.4009C36.9115 32.591 38.3503 30.4751 39.418 28.0532C40.4596 25.6313 40.9805 23.0402 40.9805 20.2798C40.9805 17.5194 40.4596 14.9282 39.418 12.5063C38.3503 10.0845 36.9115 7.96859 35.1016 6.15869C33.2917 4.3488 31.1758 2.90999 28.7539 1.84229C26.332 0.800617 23.7409 0.279785 20.9805 0.279785ZM31.0977 16.022L20.2773 26.8813C20.1211 27.0376 19.9388 27.1548 19.7305 27.2329C19.5221 27.311 19.3138 27.3501 19.1055 27.3501C18.8971 27.3501 18.6888 27.311 18.4805 27.2329C18.2721 27.1548 18.0898 27.0376 17.9336 26.8813L12.5039 21.4517C12.1914 21.1392 12.0352 20.7485 12.0352 20.2798C12.0352 19.811 12.1914 19.4204 12.5039 19.1079C12.8424 18.7694 13.2396 18.6001 13.6953 18.6001C14.151 18.6001 14.5352 18.7694 14.8477 19.1079L19.1055 23.3267L28.7539 13.6782C29.0924 13.3657 29.4896 13.2095 29.9453 13.2095C30.401 13.2095 30.7852 13.3657 31.0977 13.6782C31.4362 14.0168 31.6055 14.4139 31.6055 14.8696C31.6055 15.3254 31.4362 15.7095 31.0977 16.022Z" fill="#4BAF47"/>
</svg>
