<svg width="14" height="13" viewBox="0 0 14 13" fill="none" xmlns="http://www.w3.org/2000/svg">
<path d="M7.20516 0.345058C8.07664 0.345058 8.89313 0.510049 9.65462 0.840029C10.4161 1.17001 11.0824 1.62056 11.6535 2.19168C12.2247 2.7628 12.6752 3.4291 13.0052 4.19059C13.3352 4.95209 13.5002 5.76857 13.5002 6.64006C13.5002 7.51154 13.3352 8.32803 13.0052 9.08952C12.6752 9.85102 12.2247 10.5173 11.6535 11.0884C11.0824 11.6596 10.4161 12.1101 9.65462 12.4401C8.89313 12.7701 8.07664 12.9351 7.20516 12.9351C6.33367 12.9351 5.51718 12.7701 4.75569 12.4401C3.9942 12.1101 3.32789 11.6596 2.75677 11.0884C2.18566 10.5173 1.73511 9.85102 1.40513 9.08952C1.07515 8.32803 0.910156 7.51154 0.910156 6.64006C0.910156 5.76857 1.07515 4.95209 1.40513 4.19059C1.73511 3.4291 2.18566 2.7628 2.75677 2.19168C3.32789 1.62056 3.9942 1.17001 4.75569 0.840029C5.51718 0.510049 6.33367 0.345058 7.20516 0.345058ZM7.20516 2.78183C6.5875 2.78183 6.0608 2.9997 5.62506 3.43545C5.18932 3.87119 4.97145 4.39789 4.97145 5.01554C4.97145 5.6332 5.18932 6.1599 5.62506 6.59564C6.0608 7.03138 6.5875 7.24925 7.20516 7.24925C7.82281 7.24925 8.34951 7.03138 8.78525 6.59564C9.22099 6.1599 9.43887 5.6332 9.43887 5.01554C9.43887 4.39789 9.22099 3.87119 8.78525 3.43545C8.34951 2.9997 7.82281 2.78183 7.20516 2.78183ZM7.20516 11.5136C7.57744 11.5136 7.93703 11.4713 8.28394 11.3867C8.6393 11.3105 8.97351 11.1963 9.28657 11.044C9.59963 10.8917 9.89576 10.7098 10.175 10.4983C10.4542 10.2868 10.7038 10.0499 10.9238 9.78756C10.6869 9.33912 10.3463 8.97319 9.90211 8.68974C9.4579 8.4063 8.96505 8.26457 8.42354 8.26457C8.3897 8.26457 8.35797 8.26669 8.32836 8.27092C8.29874 8.27515 8.27125 8.2815 8.24586 8.28996C8.07664 8.34072 7.90531 8.38303 7.73185 8.41687C7.5584 8.45072 7.38284 8.46764 7.20516 8.46764C7.02747 8.46764 6.85191 8.45072 6.67846 8.41687C6.50501 8.38303 6.33367 8.34072 6.16445 8.28996C6.13907 8.2815 6.11157 8.27515 6.08196 8.27092C6.05234 8.26669 6.02061 8.26457 5.98677 8.26457C5.44526 8.26457 4.95241 8.4063 4.50821 8.68974C4.064 8.97319 3.72345 9.33912 3.48654 9.78756C3.70652 10.0499 3.95612 10.2868 4.23534 10.4983C4.51455 10.7098 4.81069 10.8917 5.12374 11.044C5.4368 11.1963 5.77101 11.3105 6.12638 11.3867C6.47328 11.4713 6.83287 11.5136 7.20516 11.5136Z" fill="#EEC044"/>
</svg>
