<svg width="16" height="13" viewBox="0 0 16 13" fill="none" xmlns="http://www.w3.org/2000/svg">
<path d="M11.1993 5.01459C11.1993 5.57337 11.0596 6.10253 10.7802 6.60205C10.5092 7.0931 10.1346 7.52277 9.65624 7.89106C9.17789 8.25935 8.61699 8.54933 7.97354 8.76099C7.33009 8.97265 6.64431 9.07848 5.91619 9.07848C5.39974 9.07848 4.90234 9.02345 4.42399 8.91338C3.94563 8.80332 3.49903 8.64669 3.08417 8.4435C2.81325 8.60436 2.48729 8.7504 2.1063 8.88163C1.72531 9.01286 1.30199 9.07848 0.836334 9.07848C0.794002 9.07848 0.755903 9.0679 0.722037 9.04673C0.688171 9.02556 0.662772 8.99381 0.645839 8.95148C0.628906 8.91762 0.624673 8.87952 0.633139 8.83719C0.641606 8.79485 0.658539 8.76099 0.683938 8.73559C0.692405 8.73559 0.804585 8.60013 1.02048 8.3292C1.23637 8.05827 1.42898 7.73232 1.59831 7.35133C1.29352 7.02113 1.05646 6.65708 0.887133 6.25916C0.717804 5.86123 0.633139 5.44638 0.633139 5.01459C0.633139 4.4558 0.772836 3.92665 1.05223 3.42713C1.32315 2.93608 1.69779 2.50641 2.17615 2.13812C2.6545 1.76983 3.2154 1.47985 3.85885 1.26819C4.5023 1.05653 5.18808 0.950701 5.91619 0.950701C6.64431 0.950701 7.33009 1.05653 7.97354 1.26819C8.61699 1.47985 9.17789 1.76983 9.65624 2.13812C10.1346 2.50641 10.5092 2.93608 10.7802 3.42713C11.0596 3.92665 11.1993 4.4558 11.1993 5.01459ZM14.298 10.6024C14.4673 10.9834 14.6599 11.3094 14.8758 11.5803C15.0917 11.8512 15.2039 11.9867 15.2123 11.9867C15.2377 12.0206 15.2547 12.0565 15.2631 12.0946C15.2716 12.1327 15.2674 12.1687 15.2504 12.2026C15.2335 12.2449 15.2081 12.2767 15.1742 12.2978C15.1404 12.319 15.1023 12.3296 15.0599 12.3296C14.5943 12.3296 14.171 12.264 13.79 12.1327C13.409 12.0015 13.083 11.8555 12.8121 11.6946C12.3973 11.8978 11.9528 12.0544 11.4786 12.1645C11.0045 12.2746 10.505 12.3296 9.98008 12.3296C9.42976 12.3296 8.90485 12.2703 8.40533 12.1518C7.90581 12.0248 7.44439 11.8512 7.02106 11.6311C6.59774 11.411 6.22522 11.1485 5.9035 10.8437C5.5733 10.5389 5.31084 10.2045 5.11612 9.84046C5.24311 9.85739 5.37434 9.87009 5.50981 9.87856C5.64527 9.88702 5.78073 9.89126 5.91619 9.89126C6.75437 9.89126 7.54598 9.76426 8.29103 9.51027C9.02761 9.25627 9.67106 8.90703 10.2214 8.46255C10.7717 8.01806 11.2077 7.49949 11.5294 6.90684C11.8512 6.31419 12.012 5.68344 12.012 5.01459C12.012 4.92992 12.0099 4.84526 12.0057 4.7606C12.0014 4.67593 11.9909 4.59127 11.9739 4.5066C12.4565 4.659 12.901 4.85796 13.3074 5.10349C13.7053 5.35748 14.0503 5.64746 14.3424 5.97341C14.6345 6.29937 14.861 6.65708 15.0218 7.04653C15.1827 7.43599 15.2631 7.84238 15.2631 8.2657C15.2631 8.69749 15.1785 9.11234 15.0091 9.51027C14.8398 9.90819 14.6028 10.2722 14.298 10.6024Z" fill="#EEC044"/>
</svg>
