<svg width="18" height="21" viewBox="0 0 18 21" fill="none" xmlns="http://www.w3.org/2000/svg">
<path d="M14.25 6.30005H18V16.925C18 17.7844 17.6875 18.5136 17.0625 19.1125C16.4635 19.7375 15.7344 20.05 14.875 20.05H3.625C2.76562 20.05 2.02344 19.7375 1.39844 19.1125C0.799479 18.5136 0.5 17.7844 0.5 16.925V6.30005H4.25V5.05005C4.25 3.66984 4.73177 2.49797 5.69531 1.53442C6.6849 0.54484 7.86979 0.0500488 9.25 0.0500488C10.6302 0.0500488 11.8021 0.54484 12.7656 1.53442C13.7552 2.49797 14.25 3.66984 14.25 5.05005V6.30005ZM6.75 5.05005V6.30005H11.75V5.05005C11.75 4.37297 11.5026 3.78703 11.0078 3.29224C10.513 2.79744 9.92708 2.55005 9.25 2.55005C8.57292 2.55005 7.98698 2.79744 7.49219 3.29224C6.9974 3.78703 6.75 4.37297 6.75 5.05005ZM12.3359 9.46411C12.5182 9.6464 12.7396 9.73755 13 9.73755C13.2604 9.73755 13.4818 9.6464 13.6641 9.46411C13.8464 9.28182 13.9375 9.06047 13.9375 8.80005C13.9375 8.53963 13.8464 8.31828 13.6641 8.13599C13.4818 7.95369 13.2604 7.86255 13 7.86255C12.7396 7.86255 12.5182 7.95369 12.3359 8.13599C12.1536 8.31828 12.0625 8.53963 12.0625 8.80005C12.0625 9.06047 12.1536 9.28182 12.3359 9.46411ZM4.83594 9.46411C5.01823 9.6464 5.23958 9.73755 5.5 9.73755C5.76042 9.73755 5.98177 9.6464 6.16406 9.46411C6.34635 9.28182 6.4375 9.06047 6.4375 8.80005C6.4375 8.53963 6.34635 8.31828 6.16406 8.13599C5.98177 7.95369 5.76042 7.86255 5.5 7.86255C5.23958 7.86255 5.01823 7.95369 4.83594 8.13599C4.65365 8.31828 4.5625 8.53963 4.5625 8.80005C4.5625 9.06047 4.65365 9.28182 4.83594 9.46411Z" fill="#04000B"/>
</svg>
