<svg width="16" height="17" viewBox="0 0 16 17" fill="none" xmlns="http://www.w3.org/2000/svg">
<rect y="0.5" width="16" height="16" rx="8" fill="#4BAF47"/>
<path d="M8.17767 12.165C7.63867 12.165 7.162 12.0477 6.74767 11.813C6.33333 11.5747 6.007 11.2483 5.76867 10.834C5.534 10.4197 5.41667 9.943 5.41667 9.404V6.676C5.41667 6.137 5.534 5.66033 5.76867 5.246C6.007 4.83167 6.33333 4.50717 6.74767 4.2725C7.162 4.03417 7.63867 3.915 8.17767 3.915C8.71667 3.915 9.19333 4.03417 9.60767 4.2725C10.022 4.50717 10.3465 4.83167 10.5812 5.246C10.8195 5.66033 10.9387 6.137 10.9387 6.676V9.404C10.9387 9.943 10.8195 10.4197 10.5812 10.834C10.3465 11.2483 10.022 11.5747 9.60767 11.813C9.19333 12.0477 8.71667 12.165 8.17767 12.165ZM8.17767 11.065C8.471 11.065 8.73683 10.9953 8.97517 10.856C9.21717 10.713 9.40967 10.5223 9.55267 10.284C9.69567 10.042 9.76717 9.7725 9.76717 9.4755V6.5935C9.76717 6.30017 9.69567 6.03433 9.55267 5.796C9.40967 5.554 9.21717 5.36333 8.97517 5.224C8.73683 5.081 8.471 5.0095 8.17767 5.0095C7.88433 5.0095 7.61667 5.081 7.37467 5.224C7.13633 5.36333 6.94567 5.554 6.80267 5.796C6.65967 6.03433 6.58817 6.30017 6.58817 6.5935V9.4755C6.58817 9.7725 6.65967 10.042 6.80267 10.284C6.94567 10.5223 7.13633 10.713 7.37467 10.856C7.61667 10.9953 7.88433 11.065 8.17767 11.065Z" fill="white"/>
</svg>
