<svg width="16" height="12" viewBox="0 0 16 12" fill="none" xmlns="http://www.w3.org/2000/svg">
<path d="M5.19766 11.2964L0.305078 6.43311C0.168359 6.29639 0.0999999 6.12061 0.0999999 5.90576C0.0999999 5.69092 0.168359 5.51514 0.305078 5.37842L1.38906 4.32373C1.52578 4.16748 1.6918 4.08936 1.88711 4.08936C2.10195 4.08936 2.2875 4.16748 2.44375 4.32373L5.725 7.60498L12.7562 0.57373C12.9125 0.41748 13.0883 0.339355 13.2836 0.339355C13.4984 0.339355 13.6742 0.41748 13.8109 0.57373L14.8949 1.62842C15.0316 1.76514 15.1 1.94092 15.1 2.15576C15.1 2.37061 15.0316 2.54639 14.8949 2.68311L6.25234 11.2964C6.11562 11.4526 5.93984 11.5308 5.725 11.5308C5.51016 11.5308 5.33437 11.4526 5.19766 11.2964Z" fill="#FCFCFC"/>
</svg>
