<svg width="46" height="41" viewBox="0 0 46 41" fill="none" xmlns="http://www.w3.org/2000/svg">
<path d="M33.3582 17.59C33.3582 18.9962 32.8634 20.1942 31.8738 21.1837C30.9363 22.1212 29.7645 22.59 28.3582 22.59H13.5145L7.1082 27.4337C6.84779 27.6421 6.56133 27.6681 6.24883 27.5119C5.98841 27.3556 5.8582 27.1212 5.8582 26.8087V22.59C4.45195 22.59 3.25404 22.1212 2.26445 21.1837C1.32695 20.1942 0.858204 18.9962 0.858204 17.59V5.09C0.858204 3.68375 1.32695 2.51187 2.26445 1.57437C3.25404 0.584788 4.45195 0.0899963 5.8582 0.0899963H28.3582C29.7645 0.0899963 30.9363 0.584788 31.8738 1.57437C32.8634 2.51187 33.3582 3.68375 33.3582 5.09V17.59ZM18.3582 17.59C19.2957 17.5379 20.077 17.1733 20.702 16.4962C21.379 15.8192 21.7176 15.0119 21.7176 14.0744C21.7176 13.2931 21.4832 12.59 21.0145 11.965C20.5457 11.34 19.9467 10.8973 19.2176 10.6369L15.702 9.62125C15.2332 9.465 14.9988 9.12645 14.9988 8.60562C14.9988 8.44937 15.0249 8.29312 15.077 8.13687C15.1811 7.98062 15.3113 7.85041 15.4676 7.74625C15.6238 7.64208 15.7801 7.59 15.9363 7.59H18.1238C18.4884 7.59 18.827 7.69416 19.1395 7.9025C19.452 8.05875 19.7124 8.0327 19.9207 7.82437L20.8582 6.965C21.2228 6.60041 21.1967 6.28791 20.7801 6.0275C20.0509 5.45458 19.2436 5.14208 18.3582 5.09V3.84C18.3582 3.42333 18.1499 3.215 17.7332 3.215H16.4832C16.0665 3.215 15.8582 3.42333 15.8582 3.84V5.09C14.9207 5.14208 14.1134 5.50666 13.4363 6.18375C12.8113 6.86083 12.4988 7.66812 12.4988 8.60562C12.4988 9.12645 12.603 9.62125 12.8113 10.09C13.0197 10.5587 13.3061 10.9754 13.6707 11.34C14.0874 11.6525 14.5301 11.8869 14.9988 12.0431L18.5145 13.0587C18.9832 13.215 19.2176 13.5535 19.2176 14.0744C19.2176 14.2306 19.1655 14.3869 19.0613 14.5431C19.0092 14.6994 18.9051 14.8296 18.7488 14.9337C18.5926 15.0379 18.4363 15.09 18.2801 15.09H16.0926C15.728 15.09 15.3895 14.9858 15.077 14.7775C14.7645 14.6212 14.504 14.6473 14.2957 14.8556L13.3582 15.715C12.9936 16.0796 13.0197 16.3921 13.4363 16.6525C14.1655 17.2254 14.9728 17.5379 15.8582 17.59V18.84C15.8582 19.2567 16.0665 19.465 16.4832 19.465H17.7332C18.1499 19.465 18.3582 19.2567 18.3582 18.84V17.59ZM40.8582 12.59C42.2645 12.59 43.4363 13.0848 44.3738 14.0744C45.3634 15.0119 45.8582 16.1837 45.8582 17.59V30.09C45.8582 31.4962 45.3634 32.6942 44.3738 33.6837C43.4363 34.6212 42.2645 35.09 40.8582 35.09H38.3582V39.3087C38.3582 39.6212 38.202 39.8556 37.8895 40.0119C37.629 40.1681 37.3686 40.1421 37.1082 39.9337L30.702 35.09H20.8582C19.452 35.09 18.254 34.6212 17.2645 33.6837C16.327 32.6942 15.8582 31.4962 15.8582 30.09V25.09H28.3582C30.4415 25.09 32.2124 24.3608 33.6707 22.9025C35.129 21.4442 35.8582 19.6733 35.8582 17.59V12.59H40.8582Z" fill="white"/>
</svg>
