<svg width="31" height="29" viewBox="0 0 31 29" fill="none" xmlns="http://www.w3.org/2000/svg">
<path d="M30.2705 11.3223C30.2705 11.3027 30.2705 11.2783 30.2705 11.249C30.2705 11.2197 30.2607 11.1953 30.2412 11.1758C30.2217 11.0977 30.1875 11.0195 30.1387 10.9414C30.0898 10.8633 30.0264 10.7949 29.9482 10.7363L25.6416 7.77734V4.55469C25.6416 4.33984 25.5684 4.15918 25.4219 4.0127C25.2754 3.86621 25.0947 3.79297 24.8799 3.79297H19.958L15.7393 0.863281C15.6025 0.785156 15.4561 0.746094 15.2998 0.746094C15.1436 0.746094 14.9971 0.785156 14.8604 0.863281L10.6416 3.79297H5.71973C5.50488 3.79297 5.32422 3.86621 5.17773 4.0127C5.03125 4.15918 4.95801 4.33984 4.95801 4.55469V7.71875L0.62207 10.707C0.524414 10.7852 0.446289 10.8779 0.387695 10.9854C0.329102 11.0928 0.299805 11.2051 0.299805 11.3223C0.299805 11.3223 0.299805 11.3271 0.299805 11.3369C0.299805 11.3467 0.299805 11.3516 0.299805 11.3516L0.329102 27.9922C0.329102 28.0898 0.348633 28.1875 0.387695 28.2852C0.426758 28.3828 0.475586 28.4707 0.53418 28.5488C0.612305 28.6074 0.700195 28.6562 0.797852 28.6953C0.895508 28.7344 0.993164 28.7539 1.09082 28.7539L29.5381 28.7246C29.7529 28.7246 29.9336 28.6514 30.0801 28.5049C30.2266 28.3584 30.2998 28.1777 30.2998 27.9629L30.2705 11.3223ZM25.6416 9.62305L28.1025 11.3516L25.6416 13.0508V9.62305ZM15.2998 2.44531L17.2627 3.79297H13.3369L15.2998 2.44531ZM6.48145 5.3457H24.1182V14.1055L18.2002 18.2363L15.7686 16.3613C15.6318 16.2637 15.4756 16.21 15.2998 16.2002C15.124 16.1904 14.9678 16.2441 14.8311 16.3613L12.3994 18.2363L6.48145 14.1641V5.3457ZM4.95801 9.59375V13.0801L2.40918 11.3516L4.95801 9.59375ZM1.85254 12.8164L11.1396 19.2324L1.85254 26.4395V12.8164ZM3.34668 27.2305L15.2998 17.9434L27.2529 27.2012L3.34668 27.2305ZM19.46 19.2324L28.7471 12.7578V26.4395L19.46 19.2324ZM20.5146 8.39258H10.085C9.88965 8.39258 9.71387 8.4707 9.55762 8.62695C9.40137 8.7832 9.32324 8.96875 9.32324 9.18359C9.32324 9.39844 9.40137 9.5791 9.55762 9.72559C9.71387 9.87207 9.88965 9.94531 10.085 9.94531H20.5146C20.71 9.94531 20.8857 9.87207 21.042 9.72559C21.1982 9.5791 21.2764 9.39844 21.2764 9.18359C21.2764 8.96875 21.1982 8.7832 21.042 8.62695C20.8857 8.4707 20.71 8.39258 20.5146 8.39258ZM20.5146 12.4062H10.085C9.88965 12.4062 9.71387 12.4795 9.55762 12.626C9.40137 12.7725 9.32324 12.9531 9.32324 13.168C9.32324 13.3828 9.40137 13.5635 9.55762 13.71C9.71387 13.8564 9.88965 13.9297 10.085 13.9297H20.5146C20.71 13.9297 20.8857 13.8564 21.042 13.71C21.1982 13.5635 21.2764 13.3828 21.2764 13.168C21.2764 12.9531 21.1982 12.7725 21.042 12.626C20.8857 12.4795 20.71 12.4062 20.5146 12.4062Z" fill="#4BAF47"/>
</svg>
