<svg width="91" height="65" viewBox="0 0 91 65" fill="none" xmlns="http://www.w3.org/2000/svg">
<g opacity="0.7">
<rect y="0.310059" width="64" height="64" rx="32" fill="#F8F7F0"/>
<g clip-path="url(#clip0_4138_1293)">
<path d="M86.9741 63.771H12.1092L24.4836 63.6343C25.1907 63.6271 25.5442 63.6182 25.5442 63.6074C25.5442 63.5967 25.1907 63.5874 24.4836 63.5796C23.8354 63.5718 23.0252 63.5679 22.0529 63.5679C21.0806 63.5679 20.2409 63.5718 19.5338 63.5796L1.06066 63.7827C0.353553 63.7899 0 63.799 0 63.8101C0 63.8211 0.353553 63.8302 1.06066 63.8374L19.5338 64.0405C20.2409 64.0483 21.0806 64.0522 22.0529 64.0522C23.0252 64.0522 23.8354 64.0483 24.4836 64.0405C25.1907 64.0327 25.5442 64.0234 25.5442 64.0127C25.5442 64.002 25.1907 63.993 24.4836 63.9858L12.1092 63.8491H86.9741C87.9759 63.8491 88.8156 63.8454 89.4932 63.8379C90.1708 63.8304 90.5097 63.8211 90.5097 63.8101C90.5097 63.799 90.1708 63.7897 89.4932 63.7822C88.8156 63.7747 87.9759 63.771 86.9741 63.771Z" fill="#1F1E17"/>
</g>
</g>
<defs>
<clipPath id="clip0_4138_1293">
<rect width="90.5097" height="1" fill="white" transform="matrix(1 0 0 -1 0 64.3101)"/>
</clipPath>
</defs>
</svg>
