<svg width="13" height="13" viewBox="0 0 13 13" fill="none" xmlns="http://www.w3.org/2000/svg">
<path d="M12.3011 0.789146C12.3715 0.836054 12.4223 0.896643 12.4536 0.970913C12.4848 1.04518 12.4927 1.12532 12.477 1.21131L10.7649 11.5075C10.7571 11.57 10.7336 11.6267 10.6945 11.6775C10.6554 11.7283 10.6085 11.7733 10.5538 11.8124C10.5225 11.828 10.4893 11.8397 10.4541 11.8475C10.419 11.8554 10.3818 11.8593 10.3427 11.8593C10.3193 11.8593 10.2939 11.8573 10.2665 11.8534C10.2391 11.8495 10.2098 11.8397 10.1786 11.8241L7.15303 10.5928L5.52301 12.5629C5.48392 12.6176 5.43505 12.6567 5.37642 12.6802C5.31779 12.7036 5.2572 12.7153 5.19465 12.7153C5.1712 12.7153 5.14775 12.7134 5.12429 12.7095C5.10084 12.7056 5.07739 12.6997 5.05393 12.6919C4.96794 12.6606 4.89953 12.6078 4.84871 12.5336C4.7979 12.4593 4.77249 12.3792 4.77249 12.2932V9.9478L10.5538 2.85307L3.40045 9.05656L0.750186 7.96597C0.672007 7.93469 0.609464 7.88583 0.562557 7.81938C0.515649 7.75293 0.488287 7.68061 0.480469 7.60243C0.480469 7.51644 0.498059 7.43826 0.533239 7.3679C0.56842 7.29754 0.621191 7.24281 0.691552 7.20372L11.8438 0.765693C11.875 0.750057 11.9102 0.736376 11.9493 0.724649C11.9884 0.712922 12.0236 0.707059 12.0548 0.707059C12.1018 0.707059 12.1467 0.714877 12.1897 0.730513C12.2327 0.746148 12.2698 0.765693 12.3011 0.789146Z" fill="white"/>
</svg>
