<svg width="15" height="15" viewBox="0 0 15 15" fill="none" xmlns="http://www.w3.org/2000/svg">
<path d="M14.5654 11.4629C14.5654 11.6387 14.5303 11.873 14.46 12.166C14.3896 12.459 14.3193 12.6875 14.249 12.8516C14.1084 13.1914 13.6982 13.5488 13.0186 13.9238C12.3857 14.2637 11.7646 14.4336 11.1553 14.4336C10.9678 14.4336 10.792 14.4219 10.6279 14.3984C10.4521 14.375 10.2588 14.334 10.0479 14.2754C9.83691 14.2051 9.67871 14.1523 9.57324 14.1172C9.46777 14.082 9.28027 14.0176 9.01074 13.9238C8.74121 13.8184 8.57715 13.7539 8.51855 13.7305C7.8623 13.4961 7.27637 13.2207 6.76074 12.9043C5.91699 12.377 5.03223 11.6504 4.10645 10.7246C3.19238 9.81055 2.47168 8.93164 1.94434 8.08789C1.61621 7.57227 1.33496 6.98633 1.10059 6.33008C1.08887 6.25977 1.03027 6.0957 0.924805 5.83789C0.831055 5.56836 0.760742 5.38086 0.713867 5.27539C0.678711 5.16992 0.631836 5.01172 0.573242 4.80078C0.514648 4.58984 0.473633 4.39648 0.450195 4.2207C0.426758 4.04492 0.415039 3.86914 0.415039 3.69336C0.415039 3.07227 0.584961 2.45117 0.924805 1.83008C1.2998 1.15039 1.65723 0.740234 1.99707 0.599609C2.16113 0.529297 2.38965 0.458984 2.68262 0.388672C2.97559 0.318359 3.20996 0.283203 3.38574 0.283203C3.47949 0.283203 3.5498 0.294922 3.59668 0.318359C3.71387 0.353516 3.88965 0.605469 4.12402 1.07422C4.20605 1.20312 4.31152 1.38477 4.44043 1.61914C4.55762 1.85352 4.6748 2.06445 4.79199 2.25195C4.89746 2.45117 4.99707 2.63281 5.09082 2.79688C5.11426 2.82031 5.17285 2.90234 5.2666 3.04297C5.37207 3.18359 5.44824 3.30664 5.49512 3.41211C5.54199 3.50586 5.56543 3.59961 5.56543 3.69336C5.56543 3.82227 5.46582 3.98633 5.2666 4.18555C5.0791 4.39648 4.87402 4.58398 4.65137 4.74805C4.42871 4.91211 4.21777 5.08789 4.01855 5.27539C3.83105 5.46289 3.7373 5.61523 3.7373 5.73242C3.7373 5.80273 3.75488 5.87891 3.79004 5.96094C3.8252 6.05469 3.85449 6.125 3.87793 6.17188C3.90137 6.21875 3.94824 6.30078 4.01855 6.41797C4.08887 6.52344 4.12402 6.58789 4.12402 6.61133C4.63965 7.52539 5.22559 8.31055 5.88184 8.9668C6.53809 9.62305 7.32324 10.2031 8.2373 10.707C8.24902 10.7188 8.31348 10.7598 8.43066 10.8301C8.54785 10.9004 8.62988 10.9473 8.67676 10.9707C8.72363 10.9941 8.78809 11.0234 8.87012 11.0586C8.96387 11.0938 9.04004 11.1113 9.09863 11.1113C9.22754 11.1113 9.38574 11.0117 9.57324 10.8125C9.76074 10.625 9.93652 10.4199 10.1006 10.1973C10.2646 9.97461 10.4463 9.76367 10.6455 9.56445C10.8447 9.37695 11.0146 9.2832 11.1553 9.2832C11.249 9.2832 11.3428 9.30664 11.4365 9.35352C11.5303 9.40039 11.6475 9.4707 11.7881 9.56445C11.9287 9.66992 12.0166 9.72852 12.0518 9.74023C12.2158 9.8457 12.3916 9.95117 12.5791 10.0566C12.7783 10.1621 12.9951 10.2793 13.2295 10.4082C13.4639 10.5371 13.6396 10.6367 13.7568 10.707C14.2256 10.9414 14.4834 11.123 14.5303 11.252C14.5537 11.2988 14.5654 11.3691 14.5654 11.4629Z" fill="#EEC044"/>
</svg>
