<svg width="84" height="72" viewBox="0 0 84 72" fill="none" xmlns="http://www.w3.org/2000/svg">
<path d="M14.9297 49.4551C13.0703 49.4551 11.4707 50.125 10.1309 51.4648C8.79102 52.8047 8.12109 54.4043 8.12109 56.2637C8.12109 58.123 8.79102 59.709 10.1309 61.0215C11.4707 62.334 13.0703 62.9902 14.9297 62.9902C16.7891 62.9902 18.375 62.334 19.6875 61.0215C21 59.709 21.6562 58.123 21.6562 56.2637C21.6562 54.4043 21 52.8047 19.6875 51.4648C18.375 50.125 16.7891 49.4551 14.9297 49.4551ZM14.9297 60.2832C13.7812 60.2832 12.8105 59.8867 12.0176 59.0938C11.2246 58.3008 10.8281 57.3574 10.8281 56.2637C10.8281 55.1152 11.2246 54.1445 12.0176 53.3516C12.8105 52.5586 13.7812 52.1621 14.9297 52.1621C16.0234 52.1621 16.9668 52.5586 17.7598 53.3516C18.5527 54.1445 18.9492 55.1152 18.9492 56.2637C18.9492 57.3574 18.5527 58.3008 17.7598 59.0938C16.9668 59.8867 16.0234 60.2832 14.9297 60.2832ZM72.7617 33.2129L76.4531 35.6738C76.5625 35.7832 76.6855 35.8516 76.8223 35.8789C76.959 35.9062 77.082 35.9199 77.1914 35.9199H82.6055C82.9883 35.9199 83.3164 35.7832 83.5898 35.5098C83.8633 35.2363 84 34.9082 84 34.5254V29.1113C84 28.7832 83.8633 28.4824 83.5898 28.209C83.3164 27.9355 82.9883 27.7988 82.6055 27.7988H80.3086L76.6172 25.3379C76.5078 25.2285 76.3848 25.1602 76.248 25.1328C76.1113 25.1055 75.9883 25.0918 75.8789 25.0918H70.4648V8.84961H71.7773C72.1602 8.84961 72.4883 8.71289 72.7617 8.43945C73.0352 8.16602 73.1719 7.83789 73.1719 7.45508V2.04102C73.1719 1.6582 73.0352 1.34375 72.7617 1.09766C72.4883 0.851562 72.1602 0.728516 71.7773 0.728516H42C41.8359 0.728516 41.6719 0.755859 41.5078 0.810547C41.3438 0.865234 41.1797 0.947266 41.0156 1.05664L35.6016 6.4707C35.4375 6.68945 35.3281 6.93555 35.2734 7.20898C35.2188 7.48242 35.2461 7.72852 35.3555 7.94727C35.4648 8.2207 35.6289 8.43945 35.8477 8.60352C36.0664 8.76758 36.3125 8.84961 36.5859 8.84961H67.7578V15.5762H63.6562C63.2734 15.5762 62.959 15.7129 62.7129 15.9863C62.4668 16.2598 62.3438 16.5879 62.3438 16.9707V23.6973C62.3438 24.0801 62.207 24.4082 61.9336 24.6816C61.6602 24.9551 61.332 25.0918 60.9492 25.0918H52.8281C52.4453 25.0918 52.1309 25.2285 51.8848 25.502C51.6387 25.7754 51.5156 26.0762 51.5156 26.4043V31.8184C51.5156 32.2012 51.6387 32.5293 51.8848 32.8027C52.1309 33.0762 52.4453 33.2129 52.8281 33.2129H55.4531L43.8867 41.5801C43.7227 41.7441 43.5996 41.9219 43.5176 42.1133C43.4355 42.3047 43.3945 42.5098 43.3945 42.7285V46.748H35.1914V44.041H36.5859C36.9688 44.041 37.2832 43.9043 37.5293 43.6309C37.7754 43.3574 37.8984 43.0566 37.8984 42.7285V38.627H42C42.1641 38.627 42.3281 38.5996 42.4922 38.5449C42.6562 38.4902 42.8203 38.3809 42.9844 38.2168L45.6914 35.5098L43.7227 33.623L41.4258 35.9199H37.8984V32.3926L50.1211 20.252L51.8438 21.9746L53.8125 20.0879L48.3984 14.6738L46.4297 16.5605L48.2344 18.2832L37.8984 28.6191V26.4043C37.8984 26.0762 37.7754 25.7754 37.5293 25.502C37.2832 25.2285 36.9688 25.0918 36.5859 25.0918H32.4844V23.6973C32.4844 23.3691 32.3613 23.0684 32.1152 22.7949C31.8691 22.5215 31.5547 22.3848 31.1719 22.3848H29.7773V15.5762C29.7773 14.4824 29.3809 13.5391 28.5879 12.7461C27.7949 11.9531 26.8516 11.5566 25.7578 11.5566H21.6562V14.2637H25.7578C26.1406 14.2637 26.4551 14.3867 26.7012 14.6328C26.9473 14.8789 27.0703 15.1934 27.0703 15.5762V22.3848H25.7578C25.375 22.3848 25.0469 22.5215 24.7734 22.7949C24.5 23.0684 24.3633 23.3691 24.3633 23.6973V27.7988H14.9297C13.7812 27.7988 12.8105 28.1953 12.0176 28.9883C11.2246 29.7812 10.8281 30.7246 10.8281 31.8184V43.3027C10.5 43.4121 10.1582 43.5352 9.80273 43.6719C9.44727 43.8086 9.10547 43.959 8.77734 44.123L7.71094 43.0566C7.4375 42.8379 7.12305 42.7285 6.76758 42.7285C6.41211 42.7285 6.09766 42.8379 5.82422 43.0566L1.72266 47.1582C1.50391 47.4316 1.39453 47.7461 1.39453 48.1016C1.39453 48.457 1.50391 48.7715 1.72266 49.0449L2.78906 50.1113C2.625 50.4395 2.48828 50.7812 2.37891 51.1367C2.26953 51.4922 2.13281 51.834 1.96875 52.1621H1.39453C1.01172 52.1621 0.683594 52.2988 0.410156 52.5723C0.136719 52.8457 0 53.1738 0 53.5566V58.9707C0 59.3535 0.136719 59.668 0.410156 59.9141C0.683594 60.1602 1.01172 60.2832 1.39453 60.2832H1.96875C2.07812 60.666 2.20117 61.0215 2.33789 61.3496C2.47461 61.6777 2.65234 62.0059 2.87109 62.334L1.72266 63.4004C1.50391 63.6738 1.39453 64.002 1.39453 64.3848C1.39453 64.7676 1.50391 65.0957 1.72266 65.3691L5.82422 69.3887C6.09766 69.6621 6.41211 69.7988 6.76758 69.7988C7.12305 69.7988 7.4375 69.6621 7.71094 69.3887L8.77734 68.3223C9.10547 68.4863 9.44727 68.6367 9.80273 68.7734C10.1582 68.9102 10.5 69.0332 10.8281 69.1426V69.7988C10.8281 70.1816 10.9648 70.4961 11.2383 70.7422C11.5117 70.9883 11.8398 71.1113 12.2227 71.1113H17.6367C18.0195 71.1113 18.334 70.9883 18.5801 70.7422C18.8262 70.4961 18.9492 70.1816 18.9492 69.7988V69.1426C19.332 69.0332 19.6875 68.9102 20.0156 68.7734C20.3438 68.6367 20.6719 68.4863 21 68.3223L22.0664 69.3887C22.3398 69.6621 22.668 69.7988 23.0508 69.7988C23.4336 69.7988 23.7344 69.6621 23.9531 69.3887L28.0547 65.3691C28.3281 65.0957 28.4648 64.7676 28.4648 64.3848C28.4648 64.002 28.3281 63.6738 28.0547 63.4004L26.9883 62.334C27.1523 62.0059 27.3027 61.6777 27.4395 61.3496C27.5762 61.0215 27.6992 60.666 27.8086 60.2832H28.4648C28.8477 60.2832 29.1621 60.1602 29.4082 59.9141C29.6543 59.668 29.7773 59.3535 29.7773 58.9707V57.5762H32.4844V58.9707C32.4844 59.3535 32.6211 59.668 32.8945 59.9141C33.168 60.1602 33.4961 60.2832 33.8789 60.2832H44.707C45.0898 60.2832 45.418 60.1602 45.6914 59.9141C45.9648 59.668 46.1016 59.3535 46.1016 58.9707V57.5762H50.6953C50.8594 58.2871 51.0781 58.9844 51.3516 59.668C51.625 60.3516 51.9531 60.9941 52.3359 61.5957L51.8438 62.0879C51.7344 62.1973 51.6523 62.334 51.5977 62.498C51.543 62.6621 51.5156 62.8262 51.5156 62.9902C51.5156 63.209 51.543 63.4004 51.5977 63.5645C51.6523 63.7285 51.7344 63.8652 51.8438 63.9746L55.9453 68.0762C56.2188 68.2949 56.5469 68.4043 56.9297 68.4043C57.3125 68.4043 57.6133 68.2949 57.832 68.0762L58.3242 67.584C58.9258 67.9668 59.5684 68.2949 60.252 68.5684C60.9355 68.8418 61.6328 69.0879 62.3438 69.3066V69.7988C62.3438 70.1816 62.4668 70.4961 62.7129 70.7422C62.959 70.9883 63.2734 71.1113 63.6562 71.1113H69.0703C69.4531 71.1113 69.7812 70.9883 70.0547 70.7422C70.3281 70.4961 70.4648 70.1816 70.4648 69.7988V69.3066C71.1758 69.0879 71.873 68.8418 72.5566 68.5684C73.2402 68.2949 73.8828 67.9668 74.4844 67.584L74.8945 68.0762C75.0586 68.1855 75.2227 68.2676 75.3867 68.3223C75.5508 68.377 75.7148 68.4043 75.8789 68.4043C76.043 68.4043 76.207 68.377 76.3711 68.3223C76.5352 68.2676 76.6992 68.1855 76.8633 68.0762L80.8828 63.9746C81.1562 63.7012 81.293 63.373 81.293 62.9902C81.293 62.6074 81.1562 62.3066 80.8828 62.0879L80.4727 61.6777C80.8555 61.0215 81.1836 60.3516 81.457 59.668C81.7305 58.9844 81.9492 58.2871 82.1133 57.5762H82.6055C82.9883 57.5762 83.3164 57.4531 83.5898 57.207C83.8633 56.9609 84 56.6465 84 56.2637V50.8496C84 50.4668 83.8633 50.1387 83.5898 49.8652C83.3164 49.5918 82.9883 49.4551 82.6055 49.4551H82.1133C81.9492 48.7441 81.7305 48.0605 81.457 47.4043C81.1836 46.748 80.8555 46.0918 80.4727 45.4355L80.8828 45.0254C80.9922 44.8613 81.0879 44.6973 81.1699 44.5332C81.252 44.3691 81.293 44.2051 81.293 44.041C81.293 43.877 81.252 43.7129 81.1699 43.5488C81.0879 43.3848 80.9922 43.2207 80.8828 43.0566L76.8633 39.0371C76.5898 38.7637 76.2617 38.627 75.8789 38.627C75.4961 38.627 75.168 38.7637 74.8945 39.0371L74.4844 39.4473C73.8281 39.0645 73.1719 38.7363 72.5156 38.4629C71.8594 38.1895 71.1758 37.9707 70.4648 37.8066V37.3145C70.4648 36.9316 70.3281 36.6035 70.0547 36.3301C69.7812 36.0566 69.4531 35.9199 69.0703 35.9199H67.7578V33.2129H72.7617ZM42.5742 3.43555H70.4648V6.14258H39.8672L42.5742 3.43555ZM79.1602 30.2598C79.2695 30.3691 79.3926 30.4375 79.5293 30.4648C79.666 30.4922 79.7891 30.5059 79.8984 30.5059H81.293V33.2129H77.6016L73.9102 30.752C73.8008 30.6426 73.6777 30.5742 73.541 30.5469C73.4043 30.5195 73.2812 30.5059 73.1719 30.5059H66.9375L69.6445 27.7988H75.4688L79.1602 30.2598ZM54.2227 27.7988H60.9492C62.0977 27.7988 63.0684 27.4023 63.8613 26.6094C64.6543 25.8164 65.0508 24.8457 65.0508 23.6973V18.2832H67.7578V25.9121L63.082 30.5059H54.2227V27.7988ZM43.3945 49.4551V52.1621H35.1914V49.4551H43.3945ZM32.4844 31.8184V27.7988H35.1914V41.334H29.7773V33.2129H31.1719C31.5547 33.2129 31.8691 33.0762 32.1152 32.8027C32.3613 32.5293 32.4844 32.2012 32.4844 31.8184ZM27.0703 25.0918H29.7773V30.5059H27.0703V25.0918ZM14.9297 30.5059H18.9492V35.9199H13.5352V31.8184C13.5352 31.4902 13.6719 31.1895 13.9453 30.916C14.2188 30.6426 14.5469 30.5059 14.9297 30.5059ZM27.0703 57.5762H26.7422C26.4141 57.5762 26.127 57.6719 25.8809 57.8633C25.6348 58.0547 25.4844 58.3145 25.4297 58.6426C25.3203 59.2441 25.1562 59.8184 24.9375 60.3652C24.7188 60.9121 24.4453 61.4043 24.1172 61.8418C23.9531 62.1152 23.8984 62.416 23.9531 62.7441C24.0078 63.0723 24.1445 63.3457 24.3633 63.5645L25.1836 64.3848L23.0508 66.5176L22.2305 65.6973C22.0117 65.4785 21.7383 65.3418 21.4102 65.2871C21.082 65.2324 20.7812 65.2871 20.5078 65.4512C20.0156 65.7793 19.4961 66.0527 18.9492 66.2715C18.4023 66.4902 17.8555 66.6816 17.3086 66.8457C16.9805 66.9004 16.7207 67.0508 16.5293 67.2969C16.3379 67.543 16.2422 67.8301 16.2422 68.1582V68.4043H13.5352V68.1582C13.5352 67.8301 13.4395 67.543 13.248 67.2969C13.0566 67.0508 12.7969 66.873 12.4688 66.7637C11.9219 66.6543 11.3887 66.4902 10.8691 66.2715C10.3496 66.0527 9.81641 65.7793 9.26953 65.4512C8.99609 65.2871 8.70898 65.2324 8.4082 65.2871C8.10742 65.3418 7.84766 65.4785 7.62891 65.6973L6.80859 66.5176L4.59375 64.3848L5.49609 63.4824C5.71484 63.2637 5.83789 63.0039 5.86523 62.7031C5.89258 62.4023 5.82422 62.1152 5.66016 61.8418C5.33203 61.3496 5.05859 60.8301 4.83984 60.2832C4.62109 59.7363 4.45703 59.1895 4.34766 58.6426C4.29297 58.3145 4.14258 58.0547 3.89648 57.8633C3.65039 57.6719 3.36328 57.5762 3.03516 57.5762H2.70703V54.8691H3.03516C3.36328 54.8691 3.65039 54.7734 3.89648 54.582C4.14258 54.3906 4.29297 54.1309 4.34766 53.8027C4.51172 53.2559 4.70312 52.709 4.92188 52.1621C5.14062 51.6152 5.38672 51.0957 5.66016 50.6035C5.82422 50.3301 5.89258 50.043 5.86523 49.7422C5.83789 49.4414 5.71484 49.1816 5.49609 48.9629L4.59375 48.1426L6.80859 45.9277L7.62891 46.8301C7.84766 47.0488 8.10742 47.1719 8.4082 47.1992C8.70898 47.2266 8.99609 47.1582 9.26953 46.9941C9.76172 46.666 10.2812 46.3926 10.8281 46.1738C11.375 45.9551 11.9219 45.791 12.4688 45.6816C12.7969 45.627 13.0566 45.4766 13.248 45.2305C13.4395 44.9844 13.5352 44.6973 13.5352 44.3691V44.041H16.2422V44.3691C16.2422 44.6973 16.3379 44.9844 16.5293 45.2305C16.7207 45.4766 16.9805 45.627 17.3086 45.6816C17.8555 45.791 18.4023 45.9551 18.9492 46.1738C19.4961 46.3926 20.0156 46.666 20.5078 46.9941C20.7812 47.1582 21.0684 47.2266 21.3691 47.1992C21.6699 47.1719 21.9297 47.0488 22.1484 46.8301L23.0508 45.9277L25.1836 48.1426L24.3633 48.9629C24.1445 49.1816 24.0078 49.4414 23.9531 49.7422C23.8984 50.043 23.9531 50.3301 24.1172 50.6035C24.4453 51.1504 24.7188 51.6836 24.9375 52.2031C25.1562 52.7227 25.3203 53.2559 25.4297 53.8027C25.5391 54.1309 25.7168 54.3906 25.9629 54.582C26.209 54.7734 26.4961 54.8691 26.8242 54.8691H27.0703V57.5762ZM29.7773 54.8691V53.5566C29.7773 53.1738 29.6543 52.8457 29.4082 52.5723C29.1621 52.2988 28.8477 52.1621 28.4648 52.1621H27.8086C27.6992 51.834 27.5762 51.5059 27.4395 51.1777C27.3027 50.8496 27.1523 50.5215 26.9883 50.1934L28.0547 49.0449C28.3281 48.7715 28.4648 48.457 28.4648 48.1016C28.4648 47.7461 28.3281 47.4316 28.0547 47.1582L23.9531 43.0566C23.7344 42.8379 23.4336 42.7285 23.0508 42.7285C22.668 42.7285 22.3398 42.8379 22.0664 43.0566L21 44.2051C20.6719 43.9863 20.3301 43.8086 19.9746 43.6719C19.6191 43.5352 19.2773 43.4121 18.9492 43.3027V42.7285C18.9492 42.3457 18.8262 42.0176 18.5801 41.7441C18.334 41.4707 18.0195 41.334 17.6367 41.334H13.5352V38.627H20.3438C20.7266 38.627 21.041 38.4902 21.2871 38.2168C21.5332 37.9434 21.6562 37.6426 21.6562 37.3145V30.5059H24.3633V31.8184C24.3633 32.2012 24.5 32.5293 24.7734 32.8027C25.0469 33.0762 25.375 33.2129 25.7578 33.2129H27.0703V42.7285C27.0703 43.0566 27.207 43.3574 27.4805 43.6309C27.7539 43.9043 28.082 44.041 28.4648 44.041H32.4844V54.8691H29.7773ZM35.1914 57.5762V54.8691H43.3945V57.5762H35.1914ZM68.8242 40.1855C69.7539 40.3496 70.6426 40.6094 71.4902 40.9648C72.3379 41.3203 73.1445 41.7715 73.9102 42.3184C74.1836 42.4824 74.4844 42.5508 74.8125 42.5234C75.1406 42.4961 75.4141 42.373 75.6328 42.1543L75.8789 41.9082L78.0117 44.041L77.7656 44.2871C77.5469 44.5059 77.4238 44.7793 77.3965 45.1074C77.3691 45.4355 77.4375 45.7363 77.6016 46.0098C78.1484 46.7754 78.5996 47.582 78.9551 48.4297C79.3105 49.2773 79.5703 50.166 79.7344 51.0957C79.7891 51.4238 79.9395 51.6836 80.1855 51.875C80.4316 52.0664 80.7188 52.1621 81.0469 52.1621H81.293V54.8691H81.0469C80.7188 54.8691 80.4316 54.9785 80.1855 55.1973C79.9395 55.416 79.7891 55.6895 79.7344 56.0176C79.5156 56.9473 79.2422 57.8359 78.9141 58.6836C78.5859 59.5312 78.1484 60.3379 77.6016 61.1035C77.4375 61.377 77.3691 61.6641 77.3965 61.9648C77.4238 62.2656 77.5469 62.5527 77.7656 62.8262L78.0117 62.9902L75.8789 65.2051L75.6328 64.959C75.4141 64.7402 75.1406 64.6172 74.8125 64.5898C74.4844 64.5625 74.1836 64.6309 73.9102 64.7949C73.1445 65.2871 72.3379 65.7109 71.4902 66.0664C70.6426 66.4219 69.7539 66.6816 68.8242 66.8457C68.4961 66.9004 68.2363 67.0508 68.0449 67.2969C67.8535 67.543 67.7578 67.8301 67.7578 68.1582V68.4043H65.0508V68.1582C65.0508 67.8301 64.9414 67.543 64.7227 67.2969C64.5039 67.0508 64.2305 66.9004 63.9023 66.8457C63.0273 66.6816 62.166 66.4219 61.3184 66.0664C60.4707 65.7109 59.6367 65.2871 58.8164 64.7949C58.543 64.5762 58.2559 64.4941 57.9551 64.5488C57.6543 64.6035 57.3945 64.7402 57.1758 64.959L56.9297 65.2051L54.7969 62.9902L54.9609 62.7441C55.2344 62.5254 55.3848 62.2656 55.4121 61.9648C55.4395 61.6641 55.3438 61.377 55.125 61.1035C54.6328 60.2832 54.209 59.4492 53.8535 58.6016C53.498 57.7539 53.2383 56.8926 53.0742 56.0176C53.0195 55.6895 52.8691 55.416 52.623 55.1973C52.377 54.9785 52.0898 54.8691 51.7617 54.8691H51.5156V52.1621H51.7617C52.0898 52.1621 52.377 52.0664 52.623 51.875C52.8691 51.6836 53.0195 51.4238 53.0742 51.0957C53.2383 50.166 53.498 49.2773 53.8535 48.4297C54.209 47.582 54.6328 46.7754 55.125 46.0098C55.2891 45.7363 55.3574 45.4355 55.3301 45.1074C55.3027 44.7793 55.1797 44.5059 54.9609 44.2871L54.7148 44.041L56.9297 41.9082L57.0938 42.1543C57.3672 42.373 57.6543 42.4961 57.9551 42.5234C58.2559 42.5508 58.543 42.4824 58.8164 42.3184C59.582 41.7715 60.3887 41.334 61.2363 41.0059C62.084 40.6777 62.9727 40.4043 63.9023 40.1855C64.2305 40.1309 64.5039 39.9805 64.7227 39.7344C64.9414 39.4883 65.0508 39.2012 65.0508 38.873V38.627H67.7578V38.873C67.7578 39.2012 67.8535 39.4883 68.0449 39.7344C68.2363 39.9805 68.4961 40.1309 68.8242 40.1855ZM65.0508 35.9199H63.6562C63.2734 35.9199 62.959 36.0566 62.7129 36.3301C62.4668 36.6035 62.3438 36.9316 62.3438 37.3145V37.8066C61.6328 37.9707 60.9355 38.1895 60.252 38.4629C59.5684 38.7363 58.8984 39.0645 58.2422 39.4473L57.832 39.0371C57.7227 38.9277 57.5859 38.832 57.4219 38.75C57.2578 38.668 57.0938 38.627 56.9297 38.627C56.7109 38.627 56.5195 38.668 56.3555 38.75C56.1914 38.832 56.0547 38.9277 55.9453 39.0371L51.8438 43.0566C51.625 43.3301 51.5156 43.6582 51.5156 44.041C51.5156 44.4238 51.625 44.752 51.8438 45.0254L52.3359 45.4355C51.9531 46.0371 51.625 46.6797 51.3516 47.3633C51.0781 48.0469 50.8594 48.7441 50.6953 49.4551H50.1211C49.7383 49.4551 49.4238 49.5918 49.1777 49.8652C48.9316 50.1387 48.8086 50.4668 48.8086 50.8496V54.8691H46.1016V43.3848L60.0469 33.2129H65.0508V35.9199ZM56.9297 53.5566C56.9297 56.1816 57.8457 58.4102 59.6777 60.2422C61.5098 62.0742 63.7383 62.9902 66.3633 62.9902C68.9883 62.9902 71.2305 62.0742 73.0898 60.2422C74.9492 58.4102 75.8789 56.1816 75.8789 53.5566C75.8789 50.9316 74.9492 48.6895 73.0898 46.8301C71.2305 44.9707 68.9883 44.041 66.3633 44.041C63.7383 44.041 61.5098 44.9707 59.6777 46.8301C57.8457 48.6895 56.9297 50.9316 56.9297 53.5566ZM73.1719 53.5566C73.1719 55.416 72.502 57.002 71.1621 58.3145C69.8223 59.627 68.2227 60.2832 66.3633 60.2832C64.5039 60.2832 62.918 59.627 61.6055 58.3145C60.293 57.002 59.6367 55.416 59.6367 53.5566C59.6367 51.6973 60.293 50.0977 61.6055 48.7578C62.918 47.418 64.5039 46.748 66.3633 46.748C68.2227 46.748 69.8223 47.418 71.1621 48.7578C72.502 50.0977 73.1719 51.6973 73.1719 53.5566Z" fill="white"/>
</svg>
