<svg width="84" height="84" viewBox="0 0 84 84" fill="none" xmlns="http://www.w3.org/2000/svg">
<path d="M82.7695 81.2949H80.0625C79.8984 80.3652 79.5293 79.5312 78.9551 78.793C78.3809 78.0547 77.6836 77.4941 76.8633 77.1113C76.2617 76.8379 75.6738 76.6738 75.0996 76.6191C74.5254 76.5645 74.0195 76.5645 73.582 76.6191C73.3633 75.8535 73.0078 75.1699 72.5156 74.5684C72.0234 73.9668 71.4219 73.502 70.7109 73.1738C70.0547 72.8457 69.4121 72.6816 68.7832 72.6816C68.1543 72.6816 67.6211 72.709 67.1836 72.7637C67.1836 72.709 67.1836 71.9434 67.1836 70.4668C67.1836 68.9902 67.1836 67.3906 67.1836 65.668C67.1836 63.9453 67.1836 62.373 67.1836 60.9512C67.1836 59.4746 67.1836 58.7363 67.1836 58.7363L71.2852 54.6348H74.8125C77.0547 54.6348 78.9688 53.8418 80.5547 52.2559C82.1406 50.6699 82.9336 48.7559 82.9336 46.5137V43.1504C82.9336 42.6582 82.7422 42.2207 82.3594 41.8379C81.9766 41.4551 81.5391 41.2637 81.0469 41.2637H77.6836C75.4414 41.2637 73.5273 42.0703 71.9414 43.6836C70.3555 45.2969 69.5625 47.2246 69.5625 49.4668V52.9121L67.1836 55.291V41.1816L69.6445 38.7207C71.2305 37.1348 72.0234 35.2207 72.0234 32.9785C72.0234 30.7363 71.2305 28.8223 69.6445 27.2363L67.2656 24.8574C67.1016 24.6934 66.9102 24.5566 66.6914 24.4473C66.4727 24.3379 66.2266 24.2832 65.9531 24.2832C65.6797 24.2832 65.4336 24.3379 65.2148 24.4473C64.9961 24.5566 64.8047 24.6934 64.6406 24.8574L62.2617 27.2363C60.6758 28.8223 59.8828 30.7363 59.8828 32.9785C59.8828 35.2207 60.6758 37.1348 62.2617 38.7207L64.7227 41.1816V62.6738L62.3438 60.2949V55.209C62.3438 52.2012 61.2773 49.6309 59.1445 47.498C57.0117 45.3652 54.4414 44.2988 51.4336 44.2988H46.5117C45.9648 44.2988 45.5137 44.4766 45.1582 44.832C44.8027 45.1875 44.625 45.6387 44.625 46.1855V51.1074C44.625 54.1152 45.6914 56.6855 47.8242 58.8184C49.957 60.9512 52.5273 62.0176 55.5352 62.0176H60.6211L64.7227 66.1191V70.6309C63.793 69.7559 62.6035 68.9219 61.1543 68.1289C59.7051 67.3359 58.0234 66.8848 56.1094 66.7754C56.0547 66.7754 55.8633 66.7617 55.5352 66.7344C55.207 66.707 54.7969 66.7207 54.3047 66.7754C53.9219 66.7754 53.6211 66.9121 53.4023 67.1855C53.1836 67.459 53.1016 67.7598 53.1562 68.0879C53.1562 68.416 53.293 68.6895 53.5664 68.9082C53.8398 69.127 54.1406 69.2363 54.4688 69.2363C54.9062 69.1816 55.248 69.168 55.4941 69.1953C55.7402 69.2227 55.8906 69.2363 55.9453 69.2363C58.4062 69.4004 60.3887 70.1387 61.8926 71.4512C63.3965 72.7637 64.4219 73.8027 64.9688 74.5684C65.2422 74.9512 65.584 75.2109 65.9941 75.3477C66.4043 75.4844 66.8281 75.4707 67.2656 75.3066C67.5938 75.1973 67.9629 75.1289 68.373 75.1016C68.7832 75.0742 69.207 75.1699 69.6445 75.3887C70.082 75.6074 70.4375 75.8945 70.7109 76.25C70.9844 76.6055 71.1758 77.0293 71.2852 77.5215C71.4492 78.0684 71.75 78.4922 72.1875 78.793C72.625 79.0938 73.1172 79.1895 73.6641 79.0801C73.9375 79.0254 74.2656 78.998 74.6484 78.998C75.0312 78.998 75.4141 79.1074 75.7969 79.3262C76.1797 79.4902 76.5215 79.75 76.8223 80.1055C77.123 80.4609 77.3555 80.8574 77.5195 81.2949H39.0469C39.1016 80.9668 39.2246 80.6387 39.416 80.3105C39.6074 79.9824 39.8398 79.7363 40.1133 79.5723C40.3867 79.3535 40.6738 79.2305 40.9746 79.2031C41.2754 79.1758 41.5352 79.1895 41.7539 79.2441C42.3008 79.2988 42.793 79.1621 43.2305 78.834C43.668 78.5059 43.9414 78.0957 44.0508 77.6035C44.1602 76.8379 44.3652 76.127 44.666 75.4707C44.9668 74.8145 45.3086 74.2129 45.6914 73.666C46.1836 73.0098 46.7305 72.4219 47.332 71.9023C47.9336 71.3828 48.6172 70.9316 49.3828 70.5488C49.7109 70.3848 49.916 70.1387 49.998 69.8105C50.0801 69.4824 50.0664 69.1816 49.957 68.9082C49.793 68.5801 49.5469 68.3613 49.2188 68.252C48.8906 68.1426 48.5898 68.1699 48.3164 68.334C47.3867 68.8262 46.5391 69.3867 45.7734 70.0156C45.0078 70.6445 44.3242 71.3691 43.7227 72.1895C43.2305 72.8457 42.8203 73.5566 42.4922 74.3223C42.1641 75.0879 41.8906 75.8809 41.6719 76.7012C41.5625 76.7012 41.4395 76.7012 41.3027 76.7012C41.166 76.7012 41.043 76.7285 40.9336 76.7832C40.7148 75.9629 40.3594 75.2383 39.8672 74.6094C39.375 73.9805 38.7461 73.502 37.9805 73.1738C37.2148 72.791 36.4766 72.6133 35.7656 72.6406C35.0547 72.668 34.4805 72.7637 34.043 72.9277C33.2773 71.8887 31.9102 70.5898 29.9414 69.0312C27.9727 67.4727 25.5117 66.6934 22.5586 66.6934V58.9004L26.7422 54.7988H30.1875C32.4297 54.7988 34.3438 54.0059 35.9297 52.4199C37.5156 50.834 38.3086 48.9199 38.3086 46.6777V43.3145C38.3086 42.8223 38.1309 42.3848 37.7754 42.002C37.4199 41.6191 36.9688 41.4277 36.4219 41.4277H33.1406C30.8984 41.4277 28.9707 42.2344 27.3574 43.8477C25.7441 45.4609 24.9375 47.3887 24.9375 49.6309V53.0762L22.5586 55.4551V36.752L26.7422 32.6504H30.1875C32.4297 32.6504 34.3438 31.8574 35.9297 30.2715C37.5156 28.6855 38.3086 26.7715 38.3086 24.5293V21.166C38.3086 20.6738 38.1309 20.2363 37.7754 19.8535C37.4199 19.4707 36.9688 19.2793 36.4219 19.2793H33.1406C30.8984 19.2793 28.9707 20.0859 27.3574 21.6992C25.7441 23.3125 24.9375 25.2402 24.9375 27.4824V30.9277L22.5586 33.3066V16.9004L25.0195 14.4395C26.6055 12.8535 27.3984 10.9395 27.3984 8.69727C27.3984 6.45508 26.6055 4.54102 25.0195 2.95508L22.7227 0.576172C22.5039 0.412109 22.2852 0.289062 22.0664 0.207031C21.8477 0.125 21.6016 0.0839844 21.3281 0.0839844C21.1094 0.0839844 20.877 0.125 20.6309 0.207031C20.3848 0.289062 20.1797 0.412109 20.0156 0.576172L17.6367 2.95508C16.0508 4.54102 15.2578 6.45508 15.2578 8.69727C15.2578 10.9395 16.0508 12.8535 17.6367 14.4395L20.0977 16.9004V40.6895L17.7188 38.3105V33.2246C17.7188 32.4043 17.6367 31.5977 17.4727 30.8047C17.3086 30.0117 17.0352 29.2324 16.6523 28.4668C16.4883 28.1934 16.2559 28.002 15.9551 27.8926C15.6543 27.7832 15.3398 27.7832 15.0117 27.8926C14.7383 28.0566 14.5332 28.3027 14.3965 28.6309C14.2598 28.959 14.2734 29.2598 14.4375 29.5332C14.7109 30.1348 14.916 30.7363 15.0527 31.3379C15.1895 31.9395 15.2578 32.5684 15.2578 33.2246V35.8496L10.5 31.0098C10.2266 30.791 9.92578 30.6816 9.59766 30.6816C9.26953 30.6816 8.96875 30.791 8.69531 31.0098C8.47656 31.2832 8.36719 31.584 8.36719 31.9121C8.36719 32.2402 8.47656 32.5137 8.69531 32.7324L13.5352 37.5723H10.9102C8.61328 37.5723 6.63086 36.752 4.96289 35.1113C3.29492 33.4707 2.46094 31.4746 2.46094 29.123V24.7754H6.80859C7.57422 24.7754 8.32617 24.8711 9.06445 25.0625C9.80273 25.2539 10.4727 25.541 11.0742 25.9238C11.4023 26.0879 11.7305 26.1289 12.0586 26.0469C12.3867 25.9648 12.6328 25.7871 12.7969 25.5137C12.9609 25.1855 13.002 24.8574 12.9199 24.5293C12.8379 24.2012 12.6602 23.9551 12.3867 23.791C11.5117 23.2988 10.6094 22.9297 9.67969 22.6836C8.75 22.4375 7.79297 22.3145 6.80859 22.3145H1.88672C1.33984 22.3145 0.888672 22.4922 0.533203 22.8477C0.177734 23.2031 0 23.6543 0 24.2012V29.123C0 32.1309 1.06641 34.7012 3.19922 36.834C5.33203 38.9668 7.90234 40.0332 10.9102 40.0332H15.9961L20.0977 44.1348V65.2988L18.5391 63.7402V59.3926C18.5391 56.7676 17.6094 54.5117 15.75 52.625C13.8906 50.7383 11.6211 49.7949 8.94141 49.7949H4.75781C4.26562 49.7949 3.82812 49.9863 3.44531 50.3691C3.0625 50.752 2.87109 51.1895 2.87109 51.6816V55.8652C2.87109 58.4902 3.81445 60.7461 5.70117 62.6328C7.58789 64.5195 9.87109 65.4629 12.5508 65.4629H16.8164L18.6211 67.2676C17.3633 67.541 16.0371 68.0605 14.6426 68.8262C13.248 69.5918 12.0312 70.7129 10.9922 72.1895C10.5 72.8457 10.0898 73.5566 9.76172 74.3223C9.43359 75.0879 9.16016 75.8809 8.94141 76.7012C8.55859 76.7012 8.10742 76.7559 7.58789 76.8652C7.06836 76.9746 6.5625 77.1934 6.07031 77.5215C5.41406 77.9043 4.89453 78.4375 4.51172 79.1211C4.12891 79.8047 3.91016 80.5293 3.85547 81.2949H1.23047C0.902344 81.2949 0.615234 81.418 0.369141 81.6641C0.123047 81.9102 0 82.1973 0 82.5254C0 82.9082 0.123047 83.209 0.369141 83.4277C0.615234 83.6465 0.902344 83.7559 1.23047 83.7559H82.7695C83.0977 83.7559 83.3848 83.6465 83.6309 83.4277C83.877 83.209 84 82.9082 84 82.5254C84 82.1973 83.877 81.9102 83.6309 81.6641C83.3848 81.418 83.0977 81.2949 82.7695 81.2949ZM72.0234 49.4668C72.0234 47.8809 72.584 46.5273 73.7051 45.4062C74.8262 44.2852 76.1523 43.7246 77.6836 43.7246H80.4727V46.5137C80.4727 48.0449 79.9121 49.3711 78.791 50.4922C77.6699 51.6133 76.3438 52.1738 74.8125 52.1738H73.7461L76.2891 49.7129C76.5078 49.4395 76.6172 49.1387 76.6172 48.8105C76.6172 48.4824 76.5078 48.209 76.2891 47.9902C76.0156 47.7168 75.7148 47.5801 75.3867 47.5801C75.0586 47.5801 74.7578 47.7168 74.4844 47.9902L72.0234 50.4512V49.4668ZM59.8828 57.834L55.043 52.9941C54.8242 52.7754 54.5371 52.666 54.1816 52.666C53.8262 52.666 53.5391 52.7754 53.3203 52.9941C53.1016 53.2676 52.9922 53.5684 52.9922 53.8965C52.9922 54.2246 53.1016 54.498 53.3203 54.7168L58.1602 59.5566H55.5352C53.1836 59.5566 51.1875 58.7363 49.5469 57.0957C47.9062 55.4551 47.0859 53.459 47.0859 51.1074V46.7598H51.4336C53.7305 46.7598 55.7129 47.5801 57.3809 49.2207C59.0488 50.8613 59.8828 52.8574 59.8828 55.209V57.834ZM65.9531 32.9785C65.625 32.9785 65.3379 33.1016 65.0918 33.3477C64.8457 33.5938 64.7227 33.8809 64.7227 34.209V37.7363L63.9844 36.998C62.8906 35.9043 62.3438 34.5645 62.3438 32.9785C62.3438 31.3926 62.8906 30.0527 63.9844 28.959L65.9531 26.9902L67.9219 28.959C69.0156 30.0527 69.5625 31.3926 69.5625 32.9785C69.5625 34.5645 69.0156 35.9043 67.9219 36.998L67.1836 37.7363V34.209C67.1836 33.8809 67.0605 33.5938 66.8145 33.3477C66.5684 33.1016 66.2812 32.9785 65.9531 32.9785ZM27.3984 49.6309C27.3984 48.0449 27.959 46.6914 29.0801 45.5703C30.2012 44.4492 31.5547 43.8887 33.1406 43.8887H35.8477V46.6777C35.8477 48.209 35.3008 49.5352 34.207 50.6562C33.1133 51.7773 31.7734 52.3379 30.1875 52.3379H29.2031L31.6641 49.877C31.8828 49.6035 31.9922 49.3027 31.9922 48.9746C31.9922 48.6465 31.8828 48.373 31.6641 48.1543C31.3906 47.8809 31.0898 47.7441 30.7617 47.7441C30.4336 47.7441 30.1602 47.8809 29.9414 48.1543L27.3984 50.6152V49.6309ZM27.3984 27.4824C27.3984 25.8965 27.959 24.543 29.0801 23.4219C30.2012 22.3008 31.5547 21.7402 33.1406 21.7402H35.8477V24.5293C35.8477 26.0605 35.3008 27.3867 34.207 28.5078C33.1133 29.6289 31.7734 30.1895 30.1875 30.1895H29.2031L31.6641 27.7285C31.8828 27.4551 31.9922 27.1543 31.9922 26.8262C31.9922 26.498 31.8828 26.2246 31.6641 26.0059C31.3906 25.7324 31.0898 25.5957 30.7617 25.5957C30.4336 25.5957 30.1602 25.7324 29.9414 26.0059L27.3984 28.4668V27.4824ZM16.0781 61.2793L12.2227 57.4238C12.0039 57.1504 11.7168 57.0137 11.3613 57.0137C11.0059 57.0137 10.7188 57.1504 10.5 57.4238C10.2812 57.6426 10.1719 57.9297 10.1719 58.2852C10.1719 58.6406 10.2812 58.9277 10.5 59.1465L14.3555 63.002H12.5508C10.582 63.002 8.88672 62.3047 7.46484 60.9102C6.04297 59.5156 5.33203 57.834 5.33203 55.8652V52.2559H8.94141C10.9102 52.2559 12.5918 52.9531 13.9863 54.3477C15.3809 55.7422 16.0781 57.4238 16.0781 59.3926V61.2793ZM20.0977 9.92773V13.4551L19.4414 12.7168C18.293 11.623 17.7188 10.2969 17.7188 8.73828C17.7188 7.17969 18.293 5.82617 19.4414 4.67773L21.3281 2.79102L23.2969 4.67773C24.3906 5.82617 24.9375 7.17969 24.9375 8.73828C24.9375 10.2969 24.3906 11.623 23.2969 12.7168L22.5586 13.4551V9.92773C22.5586 9.59961 22.4492 9.3125 22.2305 9.06641C22.0117 8.82031 21.7109 8.69727 21.3281 8.69727C21 8.69727 20.7129 8.82031 20.4668 9.06641C20.2207 9.3125 20.0977 9.59961 20.0977 9.92773ZM36.5039 81.2949H21.4922C21.4375 81.2949 21.4102 81.2949 21.4102 81.2949C21.4102 81.2949 21.3828 81.2949 21.3281 81.2949C21.3281 81.2949 21.3145 81.2949 21.2871 81.2949C21.2598 81.2949 21.2461 81.2949 21.2461 81.2949H6.31641C6.37109 80.9668 6.49414 80.6387 6.68555 80.3105C6.87695 79.9824 7.10938 79.7363 7.38281 79.5723C7.65625 79.3535 7.94336 79.2305 8.24414 79.2031C8.54492 79.1758 8.80469 79.1895 9.02344 79.2441C9.57031 79.2988 10.0625 79.1621 10.5 78.834C10.9375 78.5059 11.2109 78.0957 11.3203 77.6035C11.4297 76.8379 11.6348 76.127 11.9355 75.4707C12.2363 74.8145 12.5781 74.2129 12.9609 73.666C14.7109 71.2051 16.8438 69.8516 19.3594 69.6055C21.875 69.3594 23.1602 69.2363 23.2148 69.2363C25.6758 69.4004 27.6582 70.1387 29.1621 71.4512C30.666 72.7637 31.6914 73.8027 32.2383 74.5684C32.5117 74.9512 32.8672 75.2109 33.3047 75.3477C33.7422 75.4844 34.1523 75.4707 34.5352 75.3066C34.8633 75.1973 35.2324 75.1289 35.6426 75.1016C36.0527 75.0742 36.4766 75.1699 36.9141 75.3887C37.3516 75.6074 37.7207 75.9082 38.0215 76.291C38.3223 76.6738 38.5273 77.1113 38.6367 77.6035C38.0352 78.041 37.5566 78.5879 37.2012 79.2441C36.8457 79.9004 36.6133 80.584 36.5039 81.2949Z" fill="white"/>
</svg>
