<svg width="79" height="80" viewBox="0 0 79 80" fill="none" xmlns="http://www.w3.org/2000/svg">
<path d="M21 76.6699H18.6211C16.9805 76.6699 15.5449 76.1367 14.3145 75.0703C13.084 74.0039 12.3594 72.6777 12.1406 71.0918V71.0098L8.61328 46.3184C8.55859 45.9902 8.4082 45.7168 8.16211 45.498C7.91602 45.2793 7.62891 45.1699 7.30078 45.1699C6.97266 45.1699 6.67188 45.293 6.39844 45.5391C6.125 45.7852 5.98828 46.0996 5.98828 46.4824C5.98828 46.5371 5.98828 46.5781 5.98828 46.6055C5.98828 46.6328 5.98828 46.6465 5.98828 46.6465L9.51562 71.4199C9.89844 73.6621 10.9375 75.5352 12.6328 77.0391C14.3281 78.543 16.3242 79.2949 18.6211 79.2949H21C21.3828 79.2949 21.6973 79.1719 21.9434 78.9258C22.1895 78.6797 22.3125 78.3652 22.3125 77.9824C22.3125 77.5996 22.1895 77.2852 21.9434 77.0391C21.6973 76.793 21.3828 76.6699 21 76.6699ZM36.75 63.5449C36.3672 63.5449 36.0527 63.668 35.8066 63.9141C35.5605 64.1602 35.4375 64.4746 35.4375 64.8574V70.1074C35.4375 71.2012 35.8203 72.1309 36.5859 72.8965C37.3516 73.6621 38.2812 74.0449 39.375 74.0449C40.4688 74.0449 41.3984 73.6621 42.1641 72.8965C42.9297 72.1309 43.3125 71.2012 43.3125 70.1074V54.3574C43.3125 53.2637 42.9297 52.334 42.1641 51.5684C41.3984 50.8027 40.4688 50.4199 39.375 50.4199C38.2812 50.4199 37.3516 50.8027 36.5859 51.5684C35.8203 52.334 35.4375 53.2637 35.4375 54.3574V59.6074C35.4375 59.9902 35.5605 60.3047 35.8066 60.5508C36.0527 60.7969 36.3672 60.9199 36.75 60.9199C37.1328 60.9199 37.4473 60.7969 37.6934 60.5508C37.9395 60.3047 38.0625 59.9902 38.0625 59.6074V54.3574C38.0625 53.9746 38.1855 53.6602 38.4316 53.4141C38.6777 53.168 38.9922 53.0449 39.375 53.0449C39.7578 53.0449 40.0723 53.168 40.3184 53.4141C40.5645 53.6602 40.6875 53.9746 40.6875 54.3574V70.1074C40.6875 70.4902 40.5645 70.8047 40.3184 71.0508C40.0723 71.2969 39.7578 71.4199 39.375 71.4199C38.9922 71.4199 38.6777 71.2969 38.4316 71.0508C38.1855 70.8047 38.0625 70.4902 38.0625 70.1074V64.8574C38.0625 64.4746 37.9395 64.1602 37.6934 63.9141C37.4473 63.668 37.1328 63.5449 36.75 63.5449ZM18.375 50.4199C17.2812 50.4199 16.3516 50.8027 15.5859 51.5684C14.8203 52.334 14.4375 53.2637 14.4375 54.3574V70.1074C14.4375 71.2012 14.8203 72.1309 15.5859 72.8965C16.3516 73.6621 17.2812 74.0449 18.375 74.0449C19.4688 74.0449 20.3984 73.6621 21.1641 72.8965C21.9297 72.1309 22.3125 71.2012 22.3125 70.1074V54.3574C22.3125 53.2637 21.9297 52.334 21.1641 51.5684C20.3984 50.8027 19.4688 50.4199 18.375 50.4199ZM19.6875 70.1074C19.6875 70.4902 19.5645 70.8047 19.3184 71.0508C19.0723 71.2969 18.7578 71.4199 18.375 71.4199C17.9922 71.4199 17.6777 71.2969 17.4316 71.0508C17.1855 70.8047 17.0625 70.4902 17.0625 70.1074V54.3574C17.0625 53.9746 17.1855 53.6602 17.4316 53.4141C17.6777 53.168 17.9922 53.0449 18.375 53.0449C18.7578 53.0449 19.0723 53.168 19.3184 53.4141C19.5645 53.6602 19.6875 53.9746 19.6875 54.3574V70.1074ZM24.9375 54.3574V70.1074C24.9375 71.2012 25.3203 72.1309 26.0859 72.8965C26.8516 73.6621 27.7812 74.0449 28.875 74.0449C29.9688 74.0449 30.8984 73.6621 31.6641 72.8965C32.4297 72.1309 32.8125 71.2012 32.8125 70.1074V54.3574C32.8125 53.2637 32.4297 52.334 31.6641 51.5684C30.8984 50.8027 29.9688 50.4199 28.875 50.4199C27.7812 50.4199 26.8516 50.8027 26.0859 51.5684C25.3203 52.334 24.9375 53.2637 24.9375 54.3574ZM30.1875 54.3574V70.1074C30.1875 70.4902 30.0645 70.8047 29.8184 71.0508C29.5723 71.2969 29.2578 71.4199 28.875 71.4199C28.4922 71.4199 28.1777 71.2969 27.9316 71.0508C27.6855 70.8047 27.5625 70.4902 27.5625 70.1074V54.3574C27.5625 53.9746 27.6855 53.6602 27.9316 53.4141C28.1777 53.168 28.4922 53.0449 28.875 53.0449C29.2578 53.0449 29.5723 53.168 29.8184 53.4141C30.0645 53.6602 30.1875 53.9746 30.1875 54.3574ZM57.75 47.7949C58.1328 47.7949 58.4473 47.6719 58.6934 47.4258C58.9395 47.1797 59.0625 46.8652 59.0625 46.4824C59.0625 46.0996 58.9395 45.7852 58.6934 45.5391C58.4473 45.293 58.1328 45.1699 57.75 45.1699H48.5625C48.1797 45.1699 47.8652 45.293 47.6191 45.5391C47.373 45.7852 47.25 46.0996 47.25 46.4824C47.25 46.8652 47.373 47.1797 47.6191 47.4258C47.8652 47.6719 48.1797 47.7949 48.5625 47.7949H57.75ZM30.1875 45.1699H14.4375C14.0547 45.1699 13.7402 45.293 13.4941 45.5391C13.248 45.7852 13.125 46.0996 13.125 46.4824C13.125 46.8652 13.248 47.1797 13.4941 47.4258C13.7402 47.6719 14.0547 47.7949 14.4375 47.7949H30.1875C30.5703 47.7949 30.8848 47.6719 31.1309 47.4258C31.377 47.1797 31.5 46.8652 31.5 46.4824C31.5 46.0996 31.377 45.7852 31.1309 45.5391C30.8848 45.293 30.5703 45.1699 30.1875 45.1699ZM73.418 54.4395C74.2383 53.8379 74.8945 53.0723 75.3867 52.1426C75.8789 51.2129 76.125 50.2012 76.125 49.1074C76.125 48.7246 76.002 48.4102 75.7559 48.1641C75.5098 47.918 75.1953 47.7949 74.8125 47.7949H72.5977L73.3359 42.5449H74.8125C75.9062 42.5449 76.8359 42.1621 77.6016 41.3965C78.3672 40.6309 78.75 39.7012 78.75 38.6074C78.75 37.5137 78.3672 36.584 77.6016 35.8184C76.8359 35.0527 75.9062 34.6699 74.8125 34.6699H66.6094L67.7578 32.127C68.1953 32.4551 68.6738 32.7148 69.1934 32.9062C69.7129 33.0977 70.2734 33.1934 70.875 33.1934C72.0781 33.1934 73.1445 32.8379 74.0742 32.127C75.0039 31.416 75.6328 30.4863 75.9609 29.3379C76.0156 29.1191 76.0566 28.9004 76.084 28.6816C76.1113 28.4629 76.125 28.2441 76.125 28.0254C76.125 27.9707 76.125 27.9297 76.125 27.9023C76.125 27.875 76.125 27.834 76.125 27.7793C76.8906 27.3418 77.5195 26.7129 78.0117 25.8926C78.5039 25.0723 78.75 24.1973 78.75 23.2676C78.75 22.502 78.5996 21.7773 78.2988 21.0938C77.998 20.4102 77.5742 19.8223 77.0273 19.3301C77.1367 19.1113 77.2598 18.8516 77.3965 18.5508C77.5332 18.25 77.6289 17.9355 77.6836 17.6074H77.7656C77.8203 17.2793 77.875 16.9375 77.9297 16.582C77.9844 16.2266 78.0117 15.8848 78.0117 15.5566C78.0117 14.4629 77.8066 13.4375 77.3965 12.4805C76.9863 11.5234 76.4258 10.6895 75.7148 9.97852C75.6055 9.86914 75.4688 9.78711 75.3047 9.73242C75.1406 9.67773 74.9766 9.65039 74.8125 9.65039C74.4297 9.65039 74.1152 9.77344 73.8691 10.0195C73.623 10.2656 73.5 10.5801 73.5 10.9629C73.5 11.127 73.5273 11.291 73.582 11.4551C73.6367 11.6191 73.7461 11.7559 73.9102 11.8652C74.3477 12.3574 74.7031 12.918 74.9766 13.5469C75.25 14.1758 75.3867 14.8457 75.3867 15.5566C75.3867 16.6504 75.0723 17.6484 74.4434 18.5508C73.8145 19.4531 72.9805 20.0684 71.9414 20.3965V20.4785C71.7227 20.5332 71.5312 20.6699 71.3672 20.8887C71.2031 21.1074 71.1211 21.3535 71.1211 21.627C71.1211 21.791 71.1074 21.9551 71.0801 22.1191C71.0527 22.2832 71.0117 22.4473 70.957 22.6113V22.5293C70.7383 23.4043 70.2734 24.1152 69.5625 24.6621C68.8516 25.209 68.0586 25.4824 67.1836 25.4824C66.2539 25.4824 65.4473 25.209 64.7637 24.6621C64.0801 24.1152 63.6289 23.4316 63.4102 22.6113C63.4102 22.6113 63.4102 22.584 63.4102 22.5293C63.3555 22.4199 63.3145 22.2695 63.2871 22.0781C63.2598 21.8867 63.2461 21.709 63.2461 21.5449C63.2461 20.834 63.4238 20.1777 63.7793 19.5762C64.1348 18.9746 64.5859 18.4824 65.1328 18.0996H65.2148C65.3789 17.9902 65.5293 17.8398 65.666 17.6484C65.8027 17.457 65.8711 17.2246 65.8711 16.9512C65.8711 16.623 65.7344 16.3223 65.4609 16.0488C65.1875 15.7754 64.8867 15.6387 64.5586 15.6387C64.3945 15.6387 64.2578 15.666 64.1484 15.7207C64.0391 15.7754 63.957 15.8301 63.9023 15.8848C62.918 16.4316 62.125 17.2109 61.5234 18.2227C60.9219 19.2344 60.6211 20.3418 60.6211 21.5449C60.6211 21.5996 60.6211 21.6816 60.6211 21.791C60.6211 21.9004 60.6211 22.0098 60.6211 22.1191V22.0371C60.5117 22.0918 60.3887 22.1191 60.252 22.1191C60.1152 22.1191 59.9648 22.1191 59.8008 22.1191C59.6367 22.1191 59.4727 22.1191 59.3086 22.1191C59.1445 22.1191 58.9805 22.0918 58.8164 22.0371H58.8984C58.2969 21.873 57.791 21.6133 57.3809 21.2578C56.9707 20.9023 56.6289 20.4785 56.3555 19.9863C56.3555 19.9316 56.3555 19.9043 56.3555 19.9043C56.2461 19.6309 56.1504 19.3574 56.0684 19.084C55.9863 18.8105 55.9453 18.5098 55.9453 18.1816C55.9453 18.1816 55.9453 18.1543 55.9453 18.0996C55.9453 17.7715 55.8223 17.4707 55.5762 17.1973C55.3301 16.9238 55.0156 16.7871 54.6328 16.7871C54.3047 16.7871 54.0039 16.9102 53.7305 17.1562C53.457 17.4023 53.3203 17.7168 53.3203 18.0996C53.3203 18.0996 53.3203 18.1133 53.3203 18.1406C53.3203 18.168 53.3203 18.1816 53.3203 18.1816C53.3203 18.5098 53.3477 18.8105 53.4023 19.084C53.457 19.3574 53.5117 19.6309 53.5664 19.9043C53.3477 19.959 53.1289 20.0137 52.9102 20.0684C52.6914 20.123 52.4727 20.1504 52.2539 20.1504C52.0898 20.1504 51.9258 20.1367 51.7617 20.1094C51.5977 20.082 51.4336 20.041 51.2695 19.9863C50.832 19.877 50.4492 19.7129 50.1211 19.4941C49.793 19.2754 49.4922 19.002 49.2188 18.6738V18.5918C48.9453 18.2637 48.7266 17.8945 48.5625 17.4844C48.3984 17.0742 48.3164 16.6504 48.3164 16.2129C48.3164 15.2832 48.6035 14.4629 49.1777 13.752C49.752 13.041 50.4492 12.5762 51.2695 12.3574H51.3516C51.5703 12.3027 51.7754 12.1797 51.9668 11.9883C52.1582 11.7969 52.2539 11.5645 52.2539 11.291L52.3359 11.0449C52.3359 10.9902 52.3359 10.9355 52.3359 10.8809C52.3359 10.8262 52.3359 10.7988 52.3359 10.7988C52.6094 9.86914 53.0742 9.07617 53.7305 8.41992C54.3867 7.76367 55.1797 7.32617 56.1094 7.10742C56.1094 7.27148 56.0957 7.47656 56.0684 7.72266C56.041 7.96875 56.0273 8.20117 56.0273 8.41992C56.0273 9.13086 56.123 9.82812 56.3145 10.5117C56.5059 11.1953 56.7656 11.8105 57.0938 12.3574C57.2031 12.5762 57.3535 12.7402 57.5449 12.8496C57.7363 12.959 57.9414 13.0137 58.1602 13.0137C58.543 13.0137 58.8574 12.8906 59.1035 12.6445C59.3496 12.3984 59.4727 12.084 59.4727 11.7012C59.4727 11.5918 59.459 11.4824 59.4316 11.373C59.4043 11.2637 59.3633 11.1543 59.3086 11.0449C59.0898 10.6621 58.9258 10.252 58.8164 9.81445C58.707 9.37695 58.6523 8.91211 58.6523 8.41992C58.6523 8.03711 58.6934 7.6543 58.7754 7.27148C58.8574 6.88867 58.9805 6.50586 59.1445 6.12305C59.582 5.24805 60.2246 4.53711 61.0723 3.99023C61.9199 3.44336 62.8633 3.16992 63.9023 3.16992C65.3242 3.16992 66.5547 3.67578 67.5938 4.6875C68.6328 5.69922 69.1523 6.94336 69.1523 8.41992C69.1523 8.47461 69.1387 8.54297 69.1113 8.625C69.084 8.70703 69.0703 8.80273 69.0703 8.91211V8.83008C69.0703 8.88477 69.0703 8.91211 69.0703 8.91211C69.0703 9.29492 69.207 9.60938 69.4805 9.85547C69.7539 10.1016 70.0547 10.2246 70.3828 10.2246C70.7109 10.2246 70.998 10.1152 71.2441 9.89648C71.4902 9.67773 71.6406 9.4043 71.6953 9.07617C71.6953 8.9668 71.709 8.85742 71.7363 8.74805C71.7637 8.63867 71.7773 8.5293 71.7773 8.41992C71.7773 6.23242 70.998 4.37305 69.4395 2.8418C67.8809 1.31055 66.0352 0.544922 63.9023 0.544922C62.4805 0.544922 61.1816 0.886719 60.0059 1.57031C58.8301 2.25391 57.8867 3.14258 57.1758 4.23633C55.4258 4.29102 53.8809 4.86523 52.541 5.95898C51.2012 7.05273 50.3125 8.41992 49.875 10.0605V10.1426C48.6172 10.6348 47.6191 11.4141 46.8809 12.4805C46.1426 13.5469 45.7734 14.7637 45.7734 16.1309C45.7734 16.7324 45.8418 17.293 45.9785 17.8125C46.1152 18.332 46.293 18.8379 46.5117 19.3301V19.248C46.4023 19.4121 46.2793 19.5898 46.1426 19.7812C46.0059 19.9727 45.9102 20.1504 45.8555 20.3145L45.7734 20.3965L44.707 18.0176C44.2695 17.0879 43.668 16.2812 42.9023 15.5977C42.1367 14.9141 41.2617 14.4355 40.2773 14.1621L40.1953 14.0801C40.0859 14.0254 39.9355 13.9844 39.7441 13.957C39.5527 13.9297 39.375 13.916 39.2109 13.916L39.1289 13.834L38.7188 6.86133C38.7188 6.5332 38.582 6.24609 38.3086 6C38.0352 5.75391 37.7344 5.63086 37.4062 5.63086C37.0234 5.63086 36.709 5.75391 36.4629 6C36.2168 6.24609 36.0938 6.56055 36.0938 6.94336C36.0938 6.94336 36.0938 6.95703 36.0938 6.98438C36.0938 7.01172 36.0938 7.02539 36.0938 7.02539L36.5039 13.916C36.2852 13.9707 36.0664 14.0391 35.8477 14.1211C35.6289 14.2031 35.4102 14.2715 35.1914 14.3262H35.2734L33.4688 8.0918C33.4141 7.81836 33.2637 7.58594 33.0176 7.39453C32.7715 7.20312 32.5117 7.10742 32.2383 7.10742C31.8555 7.10742 31.541 7.23047 31.2949 7.47656C31.0488 7.72266 30.9258 8.03711 30.9258 8.41992C30.9258 8.47461 30.9258 8.5293 30.9258 8.58398C30.9258 8.63867 30.9258 8.7207 30.9258 8.83008V8.74805L31.0078 8.91211L30.8438 8.83008C30.7344 8.7207 30.5977 8.625 30.4336 8.54297C30.2695 8.46094 30.1055 8.41992 29.9414 8.41992C29.7773 8.41992 29.6133 8.44727 29.4492 8.50195C29.2852 8.55664 29.1484 8.66602 29.0391 8.83008V8.74805L25.1016 12.5215C24.9922 12.6855 24.8965 12.8359 24.8145 12.9727C24.7324 13.1094 24.6914 13.2871 24.6914 13.5059C24.6914 13.7246 24.7461 13.9297 24.8555 14.1211C24.9648 14.3125 25.1289 14.4629 25.3477 14.5723L31.1719 18.4277C31.1172 18.5918 31.0625 18.7559 31.0078 18.9199C30.9531 19.084 30.8984 19.2754 30.8438 19.4941C30.7891 19.7676 30.748 20.041 30.7207 20.3145C30.6934 20.5879 30.6797 20.8613 30.6797 21.1348C30.6797 21.2441 30.6797 21.3535 30.6797 21.4629C30.6797 21.5723 30.6797 21.6816 30.6797 21.791C29.6953 21.9551 28.7656 22.2422 27.8906 22.6523C27.0156 23.0625 26.1953 23.5684 25.4297 24.1699L24.5273 23.2676C24.418 23.1582 24.2812 23.0625 24.1172 22.9805C23.9531 22.8984 23.7891 22.8574 23.625 22.8574C23.2969 22.8574 22.9961 22.9941 22.7227 23.2676C22.4492 23.541 22.3125 23.8418 22.3125 24.1699C22.3125 24.334 22.3535 24.498 22.4355 24.6621C22.5176 24.8262 22.6133 24.9629 22.7227 25.0723L22.8047 25.1543C21.7109 25.4277 20.7676 25.9199 19.9746 26.6309C19.1816 27.3418 18.5938 28.2168 18.2109 29.2559H18.1289L18.0469 29.666L14.8477 28.5996C14.793 28.5449 14.7383 28.5176 14.6836 28.5176C14.6289 28.5176 14.5469 28.5176 14.4375 28.5176C14.0547 28.5176 13.7402 28.6406 13.4941 28.8867C13.248 29.1328 13.125 29.4473 13.125 29.8301C13.125 30.1035 13.207 30.3496 13.3711 30.5684C13.5352 30.7871 13.7539 30.9512 14.0273 31.0605L40.4414 40.166C40.6602 40.2754 40.8516 40.4395 41.0156 40.6582C41.1797 40.877 41.2617 41.1504 41.2617 41.4785C41.2617 41.8066 41.1387 42.1074 40.8926 42.3809C40.6465 42.6543 40.332 42.791 39.9492 42.791C39.8945 42.791 39.8262 42.7773 39.7441 42.75C39.6621 42.7227 39.5938 42.709 39.5391 42.709L4.83984 30.6504C4.56641 30.541 4.34766 30.377 4.18359 30.1582C4.01953 29.9395 3.9375 29.6934 3.9375 29.4199C3.9375 29.1465 4.00586 28.9141 4.14258 28.7227C4.2793 28.5312 4.45703 28.3809 4.67578 28.2715C4.78516 28.2168 4.88086 28.1758 4.96289 28.1484C5.04492 28.1211 5.14062 28.1074 5.25 28.1074C5.30469 28.1074 5.37305 28.1074 5.45508 28.1074C5.53711 28.1074 5.60547 28.1348 5.66016 28.1895L9.02344 29.3379C9.13281 29.3926 9.22852 29.4199 9.31055 29.4199C9.39258 29.4199 9.46094 29.4199 9.51562 29.4199C9.89844 29.4199 10.2129 29.2969 10.459 29.0508C10.7051 28.8047 10.8281 28.4902 10.8281 28.1074C10.8281 27.834 10.7461 27.5879 10.582 27.3691C10.418 27.1504 10.1992 26.9863 9.92578 26.877L6.5625 25.7285C6.34375 25.6191 6.125 25.5508 5.90625 25.5234C5.6875 25.4961 5.44141 25.4824 5.16797 25.4824C4.12891 25.4824 3.21289 25.8652 2.41992 26.6309C1.62695 27.3965 1.23047 28.3262 1.23047 29.4199C1.23047 30.2949 1.49023 31.0605 2.00977 31.7168C2.5293 32.373 3.17188 32.8379 3.9375 33.1113L8.36719 34.6699H3.9375C2.84375 34.6699 1.91406 35.0527 1.14844 35.8184C0.382813 36.584 0 37.5137 0 38.6074C0 39.7012 0.382813 40.6309 1.14844 41.3965C1.91406 42.1621 2.84375 42.5449 3.9375 42.5449H31.0898L38.7188 45.1699C38.8828 45.2246 39.0742 45.2793 39.293 45.334C39.5117 45.3887 39.7578 45.416 40.0312 45.416C41.125 45.416 42.0547 45.0332 42.8203 44.2676C43.5859 43.502 43.9688 42.5723 43.9688 41.4785C43.9688 40.6035 43.709 39.8242 43.1895 39.1406C42.6699 38.457 42.0273 37.9785 41.2617 37.7051L40.0312 37.2949H74.8125C75.1953 37.2949 75.5098 37.418 75.7559 37.6641C76.002 37.9102 76.125 38.2246 76.125 38.6074C76.125 38.9902 76.002 39.3047 75.7559 39.5508C75.5098 39.7969 75.1953 39.9199 74.8125 39.9199H47.8242C47.4961 39.9199 47.1953 40.043 46.9219 40.2891C46.6484 40.5352 46.5117 40.8496 46.5117 41.2324C46.5117 41.6152 46.6484 41.9297 46.9219 42.1758C47.1953 42.4219 47.4961 42.5449 47.8242 42.5449H70.7109L69.8906 48.2051C69.5078 48.3691 69.1523 48.5605 68.8242 48.7793C68.4961 48.998 68.1953 49.2168 67.9219 49.4355V49.2715C67.9219 49.1621 67.9219 49.0801 67.9219 49.0254C67.9219 48.9707 67.9219 48.8887 67.9219 48.7793C67.9219 48.3418 67.8398 47.918 67.6758 47.5078C67.5117 47.0977 67.293 46.7285 67.0195 46.4004C66.6914 46.0176 66.2949 45.7305 65.8301 45.5391C65.3652 45.3477 64.8594 45.252 64.3125 45.252C63.7656 45.252 63.2598 45.3477 62.7949 45.5391C62.3301 45.7305 61.9336 46.0176 61.6055 46.4004C61.332 46.7285 61.1133 47.0977 60.9492 47.5078C60.7852 47.918 60.7031 48.3418 60.7031 48.7793C60.7031 48.8887 60.7031 48.9844 60.7031 49.0664C60.7031 49.1484 60.7031 49.2168 60.7031 49.2715L61.1953 53.127C61.0312 53.0723 60.8809 53.0449 60.7441 53.0449C60.6074 53.0449 60.4844 53.0449 60.375 53.0449C59.1172 53.0449 57.9277 53.25 56.8066 53.6602C55.6855 54.0703 54.6875 54.6309 53.8125 55.3418V54.3574C53.8125 53.2637 53.4297 52.334 52.6641 51.5684C51.8984 50.8027 50.9688 50.4199 49.875 50.4199C48.7812 50.4199 47.8516 50.8027 47.0859 51.5684C46.3203 52.334 45.9375 53.2637 45.9375 54.3574V70.1074C45.9375 71.2012 46.3203 72.1309 47.0859 72.8965C47.8516 73.6621 48.7812 74.0449 49.875 74.0449C50.3672 74.0449 50.8457 73.9492 51.3105 73.7578C51.7754 73.5664 52.1992 73.3066 52.582 72.9785C52.9102 73.6895 53.293 74.3457 53.7305 74.9473C54.168 75.5488 54.6328 76.123 55.125 76.6699H26.25C25.8672 76.6699 25.5527 76.793 25.3066 77.0391C25.0605 77.2852 24.9375 77.5996 24.9375 77.9824C24.9375 78.3652 25.0605 78.6797 25.3066 78.9258C25.5527 79.1719 25.8672 79.2949 26.25 79.2949H60.1289C60.1289 79.2949 60.1562 79.2949 60.2109 79.2949C60.2656 79.2949 60.3066 79.2949 60.334 79.2949C60.3613 79.2949 60.375 79.2949 60.375 79.2949C61.0859 79.2949 61.7832 79.2266 62.4668 79.0898C63.1504 78.9531 63.793 78.748 64.3945 78.4746L64.3125 78.5566C64.9141 78.7754 65.543 78.9531 66.1992 79.0898C66.8555 79.2266 67.5391 79.2949 68.25 79.2949C69.4531 79.2949 70.6152 78.9121 71.7363 78.1465C72.8574 77.3809 73.9102 76.2871 74.8945 74.8652C75.0039 74.7559 75.0723 74.6328 75.0996 74.4961C75.127 74.3594 75.1406 74.2363 75.1406 74.127C75.1406 73.7441 75.0176 73.4297 74.7715 73.1836C74.5254 72.9375 74.2109 72.8145 73.8281 72.8145C73.6094 72.8145 73.4043 72.8555 73.2129 72.9375C73.0215 73.0195 72.8711 73.1699 72.7617 73.3887C72.0508 74.4277 71.2988 75.2344 70.5059 75.8086C69.7129 76.3828 68.9609 76.6699 68.25 76.6699C67.6484 76.6699 67.0605 76.6016 66.4863 76.4648C65.9121 76.3281 65.3516 76.123 64.8047 75.8496L64.8867 75.9316C64.7773 75.877 64.6816 75.8359 64.5996 75.8086C64.5176 75.7812 64.4219 75.7676 64.3125 75.7676C64.2031 75.7676 64.1074 75.7812 64.0254 75.8086C63.9434 75.8359 63.8477 75.877 63.7383 75.9316C63.2461 76.1504 62.7129 76.3281 62.1387 76.4648C61.5645 76.6016 60.9766 76.6699 60.375 76.6699C60.375 76.6699 60.3613 76.6699 60.334 76.6699C60.3066 76.6699 60.293 76.6699 60.293 76.6699C58.3242 76.6152 56.5332 75.0156 54.9199 71.8711C53.3066 68.7266 52.5 65.9512 52.5 63.5449C52.5 61.3574 53.2656 59.498 54.7969 57.9668C56.3281 56.4355 58.1875 55.6699 60.375 55.6699C60.5938 55.6699 60.7988 55.6836 60.9902 55.7109C61.1816 55.7383 61.3867 55.752 61.6055 55.752H61.5234V55.834C61.6328 56.5449 61.9473 57.1328 62.4668 57.5977C62.9863 58.0625 63.6016 58.2949 64.3125 58.2949C65.0234 58.2949 65.6387 58.0625 66.1582 57.5977C66.6777 57.1328 66.9922 56.5449 67.1016 55.834V55.752C67.2656 55.752 67.4434 55.7383 67.6348 55.7109C67.8262 55.6836 68.0312 55.6699 68.25 55.6699C70.4375 55.6699 72.2969 56.4355 73.8281 57.9668C75.3594 59.498 76.125 61.3574 76.125 63.5449C76.0703 64.5293 75.9473 65.4863 75.7559 66.416C75.5645 67.3457 75.3047 68.2207 74.9766 69.041V68.959C74.9766 69.0137 74.9629 69.082 74.9355 69.1641C74.9082 69.2461 74.8945 69.3418 74.8945 69.4512C74.8945 69.834 75.0176 70.1484 75.2637 70.3945C75.5098 70.6406 75.8242 70.7637 76.207 70.7637C76.4805 70.7637 76.7402 70.6816 76.9863 70.5176C77.2324 70.3535 77.3828 70.1348 77.4375 69.8613C77.8203 68.9316 78.1211 67.9336 78.3398 66.8672C78.5586 65.8008 78.6953 64.6934 78.75 63.5449C78.75 61.5762 78.2578 59.7852 77.2734 58.1719C76.2891 56.5586 75.0039 55.3145 73.418 54.4395ZM3.9375 39.9199C3.55469 39.9199 3.24023 39.7969 2.99414 39.5508C2.74805 39.3047 2.625 38.9902 2.625 38.6074C2.625 38.2246 2.74805 37.9102 2.99414 37.6641C3.24023 37.418 3.55469 37.2949 3.9375 37.2949H15.9961L23.543 39.9199H3.9375ZM73.5 23.2676C73.5 23.1582 73.5137 23.0488 73.541 22.9395C73.5684 22.8301 73.6094 22.7207 73.6641 22.6113V22.5293C73.9922 22.3652 74.293 22.1875 74.5664 21.9961C74.8398 21.8047 75.1133 21.5996 75.3867 21.3809C75.6055 21.5996 75.7832 21.873 75.9199 22.2012C76.0566 22.5293 76.125 22.8848 76.125 23.2676C76.125 23.8145 75.9473 24.3203 75.5918 24.7852C75.2363 25.25 74.8125 25.5645 74.3203 25.7285H74.2383C73.9648 25.8379 73.7461 26.002 73.582 26.2207C73.418 26.4395 73.3359 26.6855 73.3359 26.959C73.3359 27.0137 73.3359 27.0684 73.3359 27.123C73.3359 27.1777 73.3633 27.2324 73.418 27.2871C73.418 27.3965 73.4316 27.5059 73.459 27.6152C73.4863 27.7246 73.5 27.8613 73.5 28.0254C73.5 28.1348 73.4863 28.2441 73.459 28.3535C73.4316 28.4629 73.418 28.5723 73.418 28.6816V28.5996C73.2539 29.2012 72.9395 29.6797 72.4746 30.0352C72.0098 30.3906 71.4766 30.5684 70.875 30.5684C70.7656 30.5684 70.6426 30.5684 70.5059 30.5684C70.3691 30.5684 70.2461 30.541 70.1367 30.4863H70.2188C69.9453 30.4316 69.6855 30.3223 69.4395 30.1582C69.1934 29.9941 68.9883 29.8027 68.8242 29.584L69.7266 27.5332C69.8906 27.4785 70.0273 27.4238 70.1367 27.3691C70.2461 27.3145 70.3555 27.2598 70.4648 27.2051C71.1758 26.7676 71.8047 26.207 72.3516 25.5234C72.8984 24.8398 73.2812 24.0879 73.5 23.2676ZM66.6914 28.0254L63.7383 34.6699H55.4531L55.7812 33.5215C55.7812 33.5215 55.7949 33.4805 55.8223 33.3984C55.8496 33.3164 55.8633 33.248 55.8633 33.1934C55.8633 33.1934 55.8496 33.166 55.8223 33.1113C55.7949 33.0566 55.7812 33.002 55.7812 32.9473L53.7305 22.6113C53.8945 22.5566 54.0723 22.502 54.2637 22.4473C54.4551 22.3926 54.6328 22.3105 54.7969 22.2012L54.7148 22.2832C55.0977 22.7207 55.5078 23.1035 55.9453 23.4316C56.3828 23.7598 56.8477 24.0332 57.3398 24.252H57.4219L58.9805 32.209C59.0352 32.4824 59.1719 32.7148 59.3906 32.9062C59.6094 33.0977 59.8555 33.1934 60.1289 33.1934C60.1836 33.1934 60.2109 33.1934 60.2109 33.1934C60.2109 33.1934 60.2383 33.1934 60.293 33.1934C60.5664 33.1934 60.8125 33.125 61.0312 32.9883C61.25 32.8516 61.3867 32.6738 61.4414 32.4551H61.5234L63.9844 27.2051C64.3672 27.4785 64.7773 27.6836 65.2148 27.8203C65.6523 27.957 66.1172 28.0254 66.6094 28.0254H66.6914ZM61.3594 24.5801C61.4688 24.7441 61.5645 24.8945 61.6465 25.0312C61.7285 25.168 61.8242 25.291 61.9336 25.4004L60.7852 27.7793L60.2109 24.7441C60.4297 24.7441 60.6348 24.7305 60.8262 24.7031C61.0176 24.6758 61.2227 24.6348 61.4414 24.5801H61.3594ZM51.0234 22.6113L51.5156 24.9902C51.3516 25.0449 51.1875 25.0859 51.0234 25.1133C50.8594 25.1406 50.6953 25.1543 50.5312 25.1543C50.4219 25.1543 50.3125 25.1406 50.2031 25.1133C50.0938 25.0859 49.9844 25.0723 49.875 25.0723C49.3281 24.9082 48.877 24.5938 48.5215 24.1289C48.166 23.6641 47.9883 23.1309 47.9883 22.5293C47.9883 22.4199 47.9883 22.2969 47.9883 22.1602C47.9883 22.0234 48.0156 21.9004 48.0703 21.791V21.873C48.0703 21.7637 48.0977 21.668 48.1523 21.5859C48.207 21.5039 48.2344 21.4355 48.2344 21.3809C48.5625 21.6543 48.918 21.8867 49.3008 22.0781C49.6836 22.2695 50.0938 22.4199 50.5312 22.5293H50.6133C50.668 22.5293 50.7363 22.543 50.8184 22.5703C50.9004 22.5977 50.9688 22.6113 51.0234 22.6113ZM49.2188 27.6152C49.4375 27.6699 49.6562 27.7109 49.875 27.7383C50.0938 27.7656 50.3398 27.7793 50.6133 27.7793C50.832 27.7793 51.0781 27.752 51.3516 27.6973C51.625 27.6426 51.8711 27.5879 52.0898 27.5332H52.0078L53.1562 33.1934L52.7461 34.6699H52.5L49.2188 27.6152ZM49.6289 34.6699H47.0039C47.0586 34.6699 47.1133 34.6562 47.168 34.6289C47.2227 34.6016 47.2773 34.5879 47.332 34.5879L49.1367 33.5215L49.6289 34.6699ZM40.6055 17.1973L39.2109 18.0176C39.0469 18.127 38.8965 18.2773 38.7598 18.4688C38.623 18.6602 38.5547 18.8926 38.5547 19.166C38.5547 19.4941 38.6914 19.7949 38.9648 20.0684C39.2383 20.3418 39.5391 20.4785 39.8672 20.4785C40.0312 20.4785 40.168 20.4512 40.2773 20.3965C40.3867 20.3418 40.4961 20.2871 40.6055 20.2324H40.5234L42.3281 19.248L44.0508 22.7754L42.4922 23.6777C42.3281 23.7871 42.1777 23.9375 42.041 24.1289C41.9043 24.3203 41.8359 24.5527 41.8359 24.8262C41.8359 25.1543 41.9727 25.4551 42.2461 25.7285C42.5195 26.002 42.8203 26.1387 43.1484 26.1387C43.3125 26.1387 43.4492 26.125 43.5586 26.0977C43.668 26.0703 43.7773 26.0293 43.8867 25.9746H43.8047L45.1992 25.1543L47.9883 31.1426L46.0195 32.291C45.8008 32.4004 45.6367 32.5508 45.5273 32.7422C45.418 32.9336 45.3633 33.166 45.3633 33.4395C45.3633 33.7129 45.4453 33.959 45.6094 34.1777C45.7734 34.3965 45.9922 34.5605 46.2656 34.6699H41.6719L40.1953 32.6191L43.5586 30.6504C43.7227 30.541 43.873 30.3906 44.0098 30.1992C44.1465 30.0078 44.2148 29.7754 44.2148 29.502C44.2148 29.1738 44.0781 28.873 43.8047 28.5996C43.5312 28.3262 43.2305 28.1895 42.9023 28.1895C42.793 28.1895 42.6699 28.2031 42.5332 28.2305C42.3965 28.2578 42.3008 28.3262 42.2461 28.4355V28.3535L38.7188 30.4043L36.5039 27.2051L39.1289 25.6465C39.293 25.5371 39.4434 25.3867 39.5801 25.1953C39.7168 25.0039 39.7852 24.7715 39.7852 24.498C39.7852 24.1699 39.6484 23.8691 39.375 23.5957C39.1016 23.3223 38.8008 23.1855 38.4727 23.1855C38.3633 23.1855 38.2539 23.1992 38.1445 23.2266C38.0352 23.2539 37.9258 23.2949 37.8164 23.3496L34.9453 24.9902L34.125 23.8418C33.8516 23.459 33.6465 23.0352 33.5098 22.5703C33.373 22.1055 33.3047 21.627 33.3047 21.1348C33.3047 19.8223 33.7695 18.7012 34.6992 17.7715C35.6289 16.8418 36.7227 16.377 37.9805 16.377C38.2539 16.377 38.5137 16.4043 38.7598 16.459C39.0059 16.5137 39.2383 16.5684 39.457 16.623C39.6758 16.6777 39.8809 16.7598 40.0723 16.8691C40.2637 16.9785 40.4414 17.0879 40.6055 17.1973ZM28.1367 13.3418L29.8594 11.6191L32.4844 14.3262L32.9766 15.8027C32.9219 15.8574 32.8535 15.9258 32.7715 16.0078C32.6895 16.0898 32.6211 16.1582 32.5664 16.2129L28.1367 13.3418ZM20.5898 30.1582C20.918 29.4473 21.4102 28.8457 22.0664 28.3535C22.7227 27.8613 23.4609 27.6152 24.2812 27.6152C24.3359 27.6152 24.3633 27.6152 24.3633 27.6152L24.0352 28.6816C23.8164 29.1738 23.502 29.625 23.0918 30.0352C22.6816 30.4453 22.2031 30.7324 21.6562 30.8965L20.5078 30.5684L20.5898 30.1582ZM24.8555 32.0449C25.1836 31.7168 25.4844 31.3477 25.7578 30.9375C26.0312 30.5273 26.25 30.0762 26.4141 29.584H26.4961L26.6602 29.0098C26.7695 29.1191 26.8926 29.2012 27.0293 29.2559C27.166 29.3105 27.3164 29.3379 27.4805 29.3379C27.8633 29.3379 28.1777 29.2148 28.4238 28.9688C28.6699 28.7227 28.793 28.4082 28.793 28.0254C28.793 27.8613 28.7656 27.7109 28.7109 27.5742C28.6562 27.4375 28.5742 27.3145 28.4648 27.2051L27.3164 26.0566C27.918 25.6191 28.5605 25.25 29.2441 24.9492C29.9277 24.6484 30.625 24.4434 31.3359 24.334H31.418C31.5273 24.498 31.623 24.6621 31.7051 24.8262C31.7871 24.9902 31.8828 25.1543 31.9922 25.3184L38.4727 34.6699H32.4844L24.8555 32.0449ZM51.1875 70.1074C51.1875 70.4902 51.0645 70.8047 50.8184 71.0508C50.5723 71.2969 50.2578 71.4199 49.875 71.4199C49.4922 71.4199 49.1777 71.2969 48.9316 71.0508C48.6855 70.8047 48.5625 70.4902 48.5625 70.1074V54.3574C48.5625 53.9746 48.6855 53.6602 48.9316 53.4141C49.1777 53.168 49.4922 53.0449 49.875 53.0449C50.2578 53.0449 50.5723 53.168 50.8184 53.4141C51.0645 53.6602 51.1875 53.9746 51.1875 54.3574V58.459C50.75 59.2246 50.4219 60.0312 50.2031 60.8789C49.9844 61.7266 49.875 62.6152 49.875 63.5449C49.9297 64.748 50.0801 65.9102 50.3262 67.0312C50.5723 68.1523 50.8867 69.2324 51.2695 70.2715V70.1074H51.1875ZM72.1875 50.4199H73.2539C72.9805 51.1855 72.5156 51.8145 71.8594 52.3066C71.2031 52.7988 70.4375 53.0449 69.5625 53.0449H68.4961C68.7695 52.2793 69.2344 51.6504 69.8906 51.1582C70.5469 50.666 71.3125 50.4199 72.1875 50.4199ZM64.1484 55.5059L63.3281 48.9434C63.3281 48.8887 63.3281 48.8613 63.3281 48.8613C63.3281 48.8613 63.3281 48.834 63.3281 48.7793C63.3281 48.5059 63.4238 48.2734 63.6152 48.082C63.8066 47.8906 64.0391 47.7949 64.3125 47.7949C64.5859 47.7949 64.8184 47.8906 65.0098 48.082C65.2012 48.2734 65.2969 48.5059 65.2969 48.7793C65.2969 48.834 65.2969 48.8613 65.2969 48.8613C65.2969 48.8613 65.2969 48.8887 65.2969 48.9434L64.4766 55.5059C64.4766 55.5605 64.4629 55.6016 64.4355 55.6289C64.4082 55.6562 64.3672 55.6699 64.3125 55.6699C64.2578 55.6699 64.2168 55.6562 64.1895 55.6289C64.1621 55.6016 64.1484 55.5605 64.1484 55.5059ZM70.0547 58.541C70 58.4863 69.918 58.4453 69.8086 58.418C69.6992 58.3906 69.5898 58.377 69.4805 58.377C69.0977 58.377 68.7832 58.5137 68.5371 58.7871C68.291 59.0605 68.168 59.3613 68.168 59.6895C68.168 59.9629 68.2363 60.1953 68.373 60.3867C68.5098 60.5781 68.6602 60.7285 68.8242 60.8379C69.2617 61.0566 69.6172 61.3301 69.8906 61.6582C70.1641 61.9863 70.3828 62.3691 70.5469 62.8066C70.6562 63.0801 70.8203 63.2988 71.0391 63.4629C71.2578 63.627 71.5039 63.709 71.7773 63.709C72.1602 63.709 72.4746 63.5859 72.7207 63.3398C72.9668 63.0938 73.0898 62.7793 73.0898 62.3965C73.0898 62.2871 73.0898 62.1914 73.0898 62.1094C73.0898 62.0273 73.0625 61.959 73.0078 61.9043C72.7344 61.1934 72.3516 60.5508 71.8594 59.9766C71.3672 59.4023 70.793 58.9238 70.1367 58.541H70.0547Z" fill="white"/>
</svg>
