<svg width="8" height="6" viewBox="0 0 8 6" fill="none" xmlns="http://www.w3.org/2000/svg">
<path d="M3.67412 5.20744L0.253008 1.78633C0.170924 1.70424 0.129883 1.60457 0.129883 1.48731C0.129883 1.37005 0.170924 1.27037 0.253008 1.18829L0.657561 0.792531C0.739645 0.710447 0.837852 0.669405 0.952182 0.669405C1.06651 0.669405 1.16765 0.710447 1.2556 0.792531L3.97314 3.50128L6.69069 0.792531C6.77863 0.710447 6.87977 0.669405 6.9941 0.669405C7.10843 0.669405 7.20664 0.710447 7.28872 0.792531L7.69328 1.18829C7.77536 1.27037 7.8164 1.37005 7.8164 1.48731C7.8164 1.60457 7.77536 1.70424 7.69328 1.78633L4.27216 5.20744C4.19008 5.28952 4.0904 5.33057 3.97314 5.33057C3.85588 5.33057 3.75621 5.28952 3.67412 5.20744Z" fill="#1F1E17"/>
</svg>
