<svg width="65" height="42" viewBox="0 0 65 42" fill="none" xmlns="http://www.w3.org/2000/svg">
<path d="M60.3604 17.9375L58.7354 11.3125C58.9437 11.2708 59.1208 11.1562 59.2666 10.9688C59.4124 10.7812 59.4854 10.5625 59.4854 10.3125V9.25C59.4854 8.08333 59.0791 7.09375 58.2666 6.28125C57.4541 5.46875 56.4645 5.0625 55.2979 5.0625H47.7354V2.8125C47.7354 2.27083 47.5374 1.79167 47.1416 1.375C46.7458 0.958332 46.2562 0.75 45.6729 0.75H7.23535C6.65202 0.75 6.15202 0.958332 5.73535 1.375C5.31869 1.79167 5.11035 2.27083 5.11035 2.8125V21C5.11035 21.2917 5.21452 21.5312 5.42285 21.7188C5.63119 21.9062 5.86035 22 6.11035 22C6.40202 22 6.6416 21.9062 6.8291 21.7188C7.0166 21.5312 7.11035 21.2917 7.11035 21V2.8125C7.11035 2.8125 7.12077 2.80208 7.1416 2.78125C7.16244 2.76042 7.19369 2.75 7.23535 2.75H45.6729C45.7145 2.75 45.7354 2.76042 45.7354 2.78125C45.7354 2.80208 45.7354 2.8125 45.7354 2.8125V21C45.7354 21.2917 45.8395 21.5312 46.0479 21.7188C46.2562 21.9062 46.4854 22 46.7354 22C47.027 22 47.2666 21.9062 47.4541 21.7188C47.6416 21.5312 47.7354 21.2917 47.7354 21V19.875H59.6104C60.3187 19.875 60.9541 20.0833 61.5166 20.5C62.0791 20.9167 62.4645 21.4583 62.6729 22.125H59.6104C59.3187 22.125 59.0791 22.2292 58.8916 22.4375C58.7041 22.6458 58.6104 22.875 58.6104 23.125V25.25C58.6104 26.125 58.9124 26.875 59.5166 27.5C60.1208 28.125 60.8604 28.4375 61.7354 28.4375H62.8604V32.8125H60.2354C59.8187 31.5625 59.0583 30.5417 57.9541 29.75C56.8499 28.9583 55.6104 28.5625 54.2354 28.5625C52.8604 28.5625 51.6208 28.9583 50.5166 29.75C49.4124 30.5417 48.652 31.5625 48.2354 32.8125H47.7354V25.25C47.7354 25 47.6416 24.7708 47.4541 24.5625C47.2666 24.3542 47.027 24.25 46.7354 24.25C46.4854 24.25 46.2562 24.3542 46.0479 24.5625C45.8395 24.7708 45.7354 25 45.7354 25.25V32.8125H24.9854C24.527 31.5625 23.7562 30.5417 22.6729 29.75C21.5895 28.9583 20.3604 28.5625 18.9854 28.5625C17.5687 28.5625 16.3187 28.9583 15.2354 29.75C14.152 30.5417 13.402 31.5625 12.9854 32.8125H7.23535C7.19369 32.8125 7.16244 32.8125 7.1416 32.8125C7.12077 32.8125 7.11035 32.7917 7.11035 32.75V30.5625H11.4854C11.777 30.5625 12.0166 30.4583 12.2041 30.25C12.3916 30.0417 12.4854 29.8125 12.4854 29.5625C12.4854 29.2708 12.3916 29.0312 12.2041 28.8438C12.0166 28.6562 11.777 28.5625 11.4854 28.5625H1.86035C1.56868 28.5625 1.3291 28.6562 1.1416 28.8438C0.954102 29.0312 0.860352 29.2708 0.860352 29.5625C0.860352 29.8125 0.954102 30.0417 1.1416 30.25C1.3291 30.4583 1.56868 30.5625 1.86035 30.5625H5.11035V32.75C5.11035 33.3333 5.31869 33.8229 5.73535 34.2188C6.15202 34.6146 6.65202 34.8125 7.23535 34.8125H12.6104C12.6104 34.8542 12.6104 34.875 12.6104 34.875C12.6104 36.625 13.2354 38.125 14.4854 39.375C15.7354 40.625 17.2354 41.25 18.9854 41.25C20.7354 41.25 22.2249 40.625 23.4541 39.375C24.6833 38.125 25.2979 36.625 25.2979 34.875C25.2979 34.875 25.2979 34.8542 25.2979 34.8125H47.9229C47.9229 34.8542 47.9124 34.875 47.8916 34.875C47.8708 34.875 47.8604 34.875 47.8604 34.875C47.8604 36.625 48.4854 38.125 49.7354 39.375C50.9854 40.625 52.4854 41.25 54.2354 41.25C55.9854 41.25 57.4854 40.625 58.7354 39.375C59.9854 38.125 60.6104 36.625 60.6104 34.875C60.6104 34.875 60.6104 34.8542 60.6104 34.8125H63.8604C64.152 34.8125 64.3916 34.7188 64.5791 34.5312C64.7666 34.3438 64.8604 34.1042 64.8604 33.8125V23.125C64.8604 21.8333 64.4333 20.6875 63.5791 19.6875C62.7249 18.6875 61.652 18.1042 60.3604 17.9375ZM47.7354 7.0625H55.2979C55.9229 7.0625 56.4437 7.27083 56.8604 7.6875C57.277 8.10417 57.4854 8.625 57.4854 9.25V9.3125H47.7354V7.0625ZM47.7354 17.875V11.3125H56.6729L58.2979 17.875H47.7354ZM18.9854 39.25C17.777 39.25 16.7458 38.8229 15.8916 37.9688C15.0374 37.1146 14.6104 36.0833 14.6104 34.875C14.6104 33.7083 15.0374 32.6979 15.8916 31.8438C16.7458 30.9896 17.777 30.5625 18.9854 30.5625C20.152 30.5625 21.1624 30.9896 22.0166 31.8438C22.8708 32.6979 23.2979 33.7083 23.2979 34.875C23.2979 36.0833 22.8708 37.1146 22.0166 37.9688C21.1624 38.8229 20.152 39.25 18.9854 39.25ZM54.2354 39.25C53.027 39.25 52.0062 38.8229 51.1729 37.9688C50.3395 37.1146 49.9229 36.0833 49.9229 34.875C49.9229 33.7083 50.3395 32.6979 51.1729 31.8438C52.0062 30.9896 53.027 30.5625 54.2354 30.5625C55.4437 30.5625 56.4749 30.9896 57.3291 31.8438C58.1833 32.6979 58.6104 33.7083 58.6104 34.875C58.6104 36.0833 58.1833 37.1146 57.3291 37.9688C56.4749 38.8229 55.4437 39.25 54.2354 39.25ZM62.8604 26.4375H61.7354C61.402 26.4375 61.1312 26.3229 60.9229 26.0938C60.7145 25.8646 60.6104 25.5833 60.6104 25.25V24.125H62.8604V26.4375ZM18.9854 32.8125C18.402 32.8125 17.9124 33.0208 17.5166 33.4375C17.1208 33.8542 16.9229 34.3333 16.9229 34.875C16.9229 35.4583 17.1208 35.9479 17.5166 36.3438C17.9124 36.7396 18.402 36.9375 18.9854 36.9375C19.527 36.9375 20.0062 36.7396 20.4229 36.3438C20.8395 35.9479 21.0479 35.4583 21.0479 34.875C21.0479 34.3333 20.8395 33.8542 20.4229 33.4375C20.0062 33.0208 19.527 32.8125 18.9854 32.8125ZM54.2354 32.8125C53.652 32.8125 53.1624 33.0208 52.7666 33.4375C52.3708 33.8542 52.1729 34.3333 52.1729 34.875C52.1729 35.4583 52.3708 35.9479 52.7666 36.3438C53.1624 36.7396 53.652 36.9375 54.2354 36.9375C54.8187 36.9375 55.3083 36.7396 55.7041 36.3438C56.0999 35.9479 56.2979 35.4583 56.2979 34.875C56.2979 34.3333 56.0999 33.8542 55.7041 33.4375C55.3083 33.0208 54.8187 32.8125 54.2354 32.8125ZM42.4854 28.5625H27.4854C27.2354 28.5625 27.0062 28.6562 26.7979 28.8438C26.5895 29.0312 26.4854 29.2708 26.4854 29.5625C26.4854 29.8125 26.5895 30.0417 26.7979 30.25C27.0062 30.4583 27.2354 30.5625 27.4854 30.5625H42.4854C42.777 30.5625 43.0166 30.4583 43.2041 30.25C43.3916 30.0417 43.4854 29.8125 43.4854 29.5625C43.4854 29.2708 43.3916 29.0312 43.2041 28.8438C43.0166 28.6562 42.777 28.5625 42.4854 28.5625ZM16.7979 24.25H3.98535C3.73535 24.25 3.50618 24.3542 3.29785 24.5625C3.08952 24.7708 2.98535 25 2.98535 25.25C2.98535 25.5417 3.08952 25.7812 3.29785 25.9688C3.50618 26.1562 3.73535 26.25 3.98535 26.25H16.7979C17.0895 26.25 17.3291 26.1562 17.5166 25.9688C17.7041 25.7812 17.7979 25.5417 17.7979 25.25C17.7979 25 17.7041 24.7708 17.5166 24.5625C17.3291 24.3542 17.0895 24.25 16.7979 24.25ZM35.7354 10.6875C35.527 10.4792 35.2874 10.375 35.0166 10.375C34.7458 10.375 34.5062 10.4792 34.2979 10.6875L25.3604 19.5625L20.7354 14.9375C20.527 14.7292 20.2874 14.625 20.0166 14.625C19.7458 14.625 19.5062 14.7292 19.2979 14.9375C19.1312 15.1458 19.0479 15.3854 19.0479 15.6562C19.0479 15.9271 19.1312 16.1667 19.2979 16.375L24.6729 21.6875C24.7562 21.8125 24.8604 21.8958 24.9854 21.9375C25.1104 21.9792 25.2354 22 25.3604 22C25.4854 22 25.6104 21.9792 25.7354 21.9375C25.8604 21.8958 25.9854 21.8125 26.1104 21.6875L35.7354 12.0625C35.902 11.8958 35.9854 11.6667 35.9854 11.375C35.9854 11.0833 35.902 10.8542 35.7354 10.6875Z" fill="#4BAF47"/>
</svg>
