<svg width="90" height="66" viewBox="0 0 90 66" fill="none" xmlns="http://www.w3.org/2000/svg">
<rect x="1" y="1" width="64" height="64" rx="32" stroke="white" stroke-width="2"/>
<g clip-path="url(#clip0_4138_1508)">
<path d="M88.6537 63.4727L70.7579 63.2695C70.0728 63.2617 69.2594 63.2578 68.3175 63.2578C67.3756 63.2578 66.5907 63.2617 65.9628 63.2695C65.2778 63.2773 64.9353 63.2866 64.9353 63.2974C64.9353 63.3081 65.2778 63.3171 65.9628 63.3242L77.9505 63.4609H5.42505C4.45462 63.4609 3.64117 63.4647 2.9847 63.4722C2.32823 63.4797 2 63.4889 2 63.5C2 63.5111 2.32823 63.5203 2.9847 63.5278C3.64117 63.5353 4.45462 63.5391 5.42505 63.5391H77.9505L65.9628 63.6758C65.2778 63.6829 64.9353 63.6919 64.9353 63.7026C64.9353 63.7134 65.2778 63.7227 65.9628 63.7305C66.5907 63.7383 67.3756 63.7422 68.3175 63.7422C69.2594 63.7422 70.0728 63.7383 70.7579 63.7305L88.6537 63.5273C89.3387 63.5202 89.6812 63.5111 89.6812 63.5C89.6812 63.4889 89.3387 63.4798 88.6537 63.4727Z" fill="white"/>
</g>
<defs>
<clipPath id="clip0_4138_1508">
<rect width="87.6812" height="1" fill="white" transform="matrix(1 0 0 -1 2 64)"/>
</clipPath>
</defs>
</svg>
