<svg width="24" height="24" viewBox="0 0 24 24" fill="none" xmlns="http://www.w3.org/2000/svg">
<rect x="0.689453" y="0.919922" width="22" height="22" rx="4.5" stroke="white" stroke-opacity="0.4"/>
<path d="M10.0277 15.7266L6.43984 12.1602C6.33958 12.0599 6.28945 11.931 6.28945 11.7734C6.28945 11.6159 6.33958 11.487 6.43984 11.3867L7.23477 10.6133C7.33503 10.4987 7.45677 10.4414 7.6 10.4414C7.75755 10.4414 7.89362 10.4987 8.0082 10.6133L10.4145 13.0195L15.5707 7.86328C15.6853 7.7487 15.8142 7.69141 15.9574 7.69141C16.115 7.69141 16.2439 7.7487 16.3441 7.86328L17.1391 8.63672C17.2393 8.73698 17.2895 8.86589 17.2895 9.02344C17.2895 9.18099 17.2393 9.3099 17.1391 9.41016L10.8012 15.7266C10.7009 15.8411 10.572 15.8984 10.4145 15.8984C10.2569 15.8984 10.128 15.8411 10.0277 15.7266Z" fill="#F8F9FA"/>
</svg>
