<svg width="65" height="64" viewBox="0 0 65 64" fill="none" xmlns="http://www.w3.org/2000/svg">
<path d="M47.752 48.3125C47.752 48.0208 47.8457 47.7812 48.0332 47.5938C48.2207 47.4062 48.4603 47.3125 48.752 47.3125C49.002 47.3125 49.2311 47.4062 49.4395 47.5938C49.6478 47.7812 49.752 48.0208 49.752 48.3125V63C49.752 63.2917 49.6478 63.5312 49.4395 63.7188C49.2311 63.9062 49.002 64 48.752 64H6.12695C5.87695 64 5.64779 63.9062 5.43945 63.7188C5.23112 63.5312 5.12695 63.2917 5.12695 63V37.75C5.12695 37.4583 5.23112 37.2188 5.43945 37.0312C5.64779 36.8438 5.87695 36.75 6.12695 36.75C6.41862 36.75 6.6582 36.8438 6.8457 37.0312C7.0332 37.2188 7.12695 37.4583 7.12695 37.75V62H47.752V48.3125ZM15.002 60.375C15.002 60.6667 14.8978 60.9167 14.6895 61.125C14.4811 61.3333 14.252 61.4375 14.002 61.4375C13.7103 61.4375 13.4707 61.3333 13.2832 61.125C13.0957 60.9167 13.002 60.6667 13.002 60.375V47.625C13.002 46.6667 13.179 45.7708 13.5332 44.9375C13.8874 44.1042 14.377 43.375 15.002 42.75C15.627 42.125 16.3665 41.6354 17.2207 41.2812C18.0749 40.9271 18.9603 40.75 19.877 40.75C20.8353 40.75 21.7311 40.9271 22.5645 41.2812C23.3978 41.6354 24.127 42.125 24.752 42.75C25.377 43.375 25.877 44.1042 26.252 44.9375C26.627 45.7708 26.8145 46.6667 26.8145 47.625V60.375C26.8145 60.6667 26.7103 60.9167 26.502 61.125C26.2936 61.3333 26.0645 61.4375 25.8145 61.4375C25.5228 61.4375 25.2832 61.3333 25.0957 61.125C24.9082 60.9167 24.8145 60.6667 24.8145 60.375V47.625C24.8145 46.9583 24.679 46.3229 24.4082 45.7188C24.1374 45.1146 23.7936 44.6042 23.377 44.1875C22.9186 43.7292 22.3874 43.375 21.7832 43.125C21.179 42.875 20.5436 42.75 19.877 42.75C19.2103 42.75 18.5749 42.875 17.9707 43.125C17.3665 43.375 16.8561 43.7292 16.4395 44.1875C15.9811 44.6042 15.627 45.1146 15.377 45.7188C15.127 46.3229 15.002 46.9583 15.002 47.625V60.375ZM33.252 52.4375H42.4395V45.4375H33.252V52.4375ZM43.4395 54.4375H32.252C31.9603 54.4375 31.7207 54.3333 31.5332 54.125C31.3457 53.9167 31.252 53.6875 31.252 53.4375V44.4375C31.252 44.1458 31.3457 43.9062 31.5332 43.7188C31.7207 43.5312 31.9603 43.4375 32.252 43.4375H43.4395C43.6895 43.4375 43.9186 43.5312 44.127 43.7188C44.3353 43.9062 44.4395 44.1458 44.4395 44.4375V53.4375C44.4395 53.6875 44.3353 53.9167 44.127 54.125C43.9186 54.3333 43.6895 54.4375 43.4395 54.4375ZM21.5645 55C21.8561 55 22.0957 54.9062 22.2832 54.7188C22.4707 54.5312 22.5645 54.3125 22.5645 54.0625C22.5645 53.7708 22.4707 53.5208 22.2832 53.3125C22.0957 53.1042 21.8561 53 21.5645 53C21.2728 53 21.0332 53.1042 20.8457 53.3125C20.6582 53.5208 20.5645 53.7708 20.5645 54.0625C20.5645 54.3125 20.6582 54.5312 20.8457 54.7188C21.0332 54.9062 21.2728 55 21.5645 55ZM22.752 31V30.9375L23.377 18.5625H19.5645L17.3145 31.0625C17.3145 31.4375 17.3874 31.8021 17.5332 32.1562C17.679 32.5104 17.8561 32.8125 18.0645 33.0625C18.3145 33.3125 18.6061 33.5104 18.9395 33.6562C19.2728 33.8021 19.627 33.875 20.002 33.875C20.377 33.875 20.7311 33.8021 21.0645 33.6562C21.3978 33.5104 21.6686 33.3125 21.877 33.0625C22.1686 32.8125 22.377 32.5 22.502 32.125C22.627 31.75 22.6895 31.375 22.6895 31H22.752ZM25.377 18.5625L24.752 31C24.752 31.375 24.8249 31.75 24.9707 32.125C25.1165 32.5 25.3145 32.8125 25.5645 33.0625C25.7728 33.3125 26.0436 33.5104 26.377 33.6562C26.7103 33.8021 27.0645 33.875 27.4395 33.875C27.8145 33.875 28.1686 33.8021 28.502 33.6562C28.8353 33.5104 29.127 33.3125 29.377 33.0625C29.627 32.8125 29.8145 32.5 29.9395 32.125C30.0645 31.75 30.127 31.375 30.127 31H30.1895L29.8145 24.75C29.8145 24.4583 29.9082 24.2083 30.0957 24C30.2832 23.7917 30.502 23.6875 30.752 23.6875C31.0436 23.6875 31.2936 23.7812 31.502 23.9688C31.7103 24.1562 31.8145 24.375 31.8145 24.625L32.127 30.9375V31H32.1895C32.1895 31.375 32.2624 31.75 32.4082 32.125C32.554 32.5 32.752 32.8125 33.002 33.0625C33.2103 33.3125 33.4811 33.5104 33.8145 33.6562C34.1478 33.8021 34.502 33.875 34.877 33.875C35.1686 33.875 35.4082 33.9792 35.5957 34.1875C35.7832 34.3958 35.877 34.625 35.877 34.875C35.877 35.1667 35.7832 35.4062 35.5957 35.5938C35.4082 35.7812 35.1686 35.875 34.877 35.875C34.2103 35.875 33.5957 35.75 33.0332 35.5C32.4707 35.25 31.9603 34.8958 31.502 34.4375C31.4603 34.3542 31.4082 34.2812 31.3457 34.2188C31.2832 34.1562 31.2311 34.0833 31.1895 34C31.1061 34.0833 31.0332 34.1562 30.9707 34.2188C30.9082 34.2812 30.8561 34.3542 30.8145 34.4375C30.3561 34.8958 29.8457 35.25 29.2832 35.5C28.7207 35.75 28.1061 35.875 27.4395 35.875C26.7728 35.875 26.1582 35.75 25.5957 35.5C25.0332 35.25 24.5228 34.8958 24.0645 34.4375C24.0228 34.3542 23.9707 34.2812 23.9082 34.2188C23.8457 34.1562 23.7936 34.0833 23.752 34C23.6686 34.0833 23.5957 34.1562 23.5332 34.2188C23.4707 34.2812 23.4186 34.3542 23.377 34.4375C22.9186 34.8958 22.4082 35.25 21.8457 35.5C21.2832 35.75 20.6686 35.875 20.002 35.875C19.3353 35.875 18.7207 35.75 18.1582 35.5C17.5957 35.25 17.0853 34.8958 16.627 34.4375C16.5853 34.3542 16.5332 34.2812 16.4707 34.2188C16.4082 34.1562 16.3353 34.0833 16.252 34C16.2103 34.0833 16.1582 34.1562 16.0957 34.2188C16.0332 34.2812 15.9811 34.3542 15.9395 34.4375C15.4811 34.8958 14.9707 35.25 14.4082 35.5C13.8457 35.75 13.2311 35.875 12.5645 35.875C11.8978 35.875 11.2832 35.75 10.7207 35.5C10.1582 35.25 9.64779 34.8958 9.18945 34.4375C9.14779 34.3542 9.0957 34.2812 9.0332 34.2188C8.9707 34.1562 8.89779 34.0833 8.81445 34C8.77279 34.0833 8.7207 34.1562 8.6582 34.2188C8.5957 34.2812 8.54362 34.3542 8.50195 34.4375C8.04362 34.8958 7.5332 35.25 6.9707 35.5C6.4082 35.75 5.79362 35.875 5.12695 35.875C4.58529 35.875 4.06445 35.7812 3.56445 35.5938C3.06445 35.4062 2.60612 35.1458 2.18945 34.8125C1.77279 34.4792 1.41862 34.0833 1.12695 33.625C0.835286 33.1667 0.647786 32.6667 0.564453 32.125C0.522786 31.9583 0.491536 31.7812 0.470703 31.5938C0.44987 31.4062 0.439453 31.2292 0.439453 31.0625C0.48112 30.8958 0.522786 30.7292 0.564453 30.5625C0.60612 30.3958 0.647786 30.2292 0.689453 30.0625L4.81445 19.9375C5.06445 19.4375 5.35612 18.9792 5.68945 18.5625C6.02279 18.1458 6.39779 17.7917 6.81445 17.5C7.23112 17.1667 7.69987 16.9271 8.2207 16.7812C8.74154 16.6354 9.27279 16.5625 9.81445 16.5625H28.0645C28.3561 16.5625 28.5957 16.6562 28.7832 16.8438C28.9707 17.0312 29.0645 17.2708 29.0645 17.5625C29.0645 17.8125 28.9707 18.0417 28.7832 18.25C28.5957 18.4583 28.3561 18.5625 28.0645 18.5625H25.377ZM17.5645 18.5625H13.502L9.87695 31.0625C9.87695 31.4792 9.94987 31.8542 10.0957 32.1875C10.2415 32.5208 10.4186 32.8125 10.627 33.0625C10.877 33.3125 11.1686 33.5104 11.502 33.6562C11.8353 33.8021 12.1895 33.875 12.5645 33.875C12.9395 33.875 13.2936 33.8021 13.627 33.6562C13.9603 33.5104 14.2311 33.3125 14.4395 33.0625C14.7311 32.8125 14.9395 32.5 15.0645 32.125C15.1895 31.75 15.252 31.375 15.252 31H15.3145C15.3145 30.9583 15.3145 30.9167 15.3145 30.875C15.3145 30.8333 15.3145 30.8125 15.3145 30.8125L17.5645 18.5625ZM11.4395 18.5625H9.81445C9.48112 18.5625 9.14779 18.6042 8.81445 18.6875C8.48112 18.7708 8.18945 18.9167 7.93945 19.125C7.68945 19.2917 7.44987 19.5104 7.2207 19.7812C6.99154 20.0521 6.81445 20.375 6.68945 20.75L2.56445 30.8125C2.52279 30.8958 2.49154 30.9688 2.4707 31.0312C2.44987 31.0938 2.43945 31.1667 2.43945 31.25C2.43945 31.2917 2.43945 31.3542 2.43945 31.4375C2.43945 31.5208 2.46029 31.6042 2.50195 31.6875C2.54362 32.0208 2.64779 32.3229 2.81445 32.5938C2.98112 32.8646 3.18945 33.1042 3.43945 33.3125C3.68945 33.4792 3.94987 33.6146 4.2207 33.7188C4.49154 33.8229 4.79362 33.875 5.12695 33.875C5.50195 33.875 5.85612 33.8021 6.18945 33.6562C6.52279 33.5104 6.79362 33.3125 7.00195 33.0625C7.29362 32.8125 7.50195 32.5 7.62695 32.125C7.75195 31.75 7.81445 31.375 7.81445 31H7.87695C7.87695 30.9167 7.87695 30.8542 7.87695 30.8125C7.87695 30.7708 7.87695 30.7292 7.87695 30.6875L11.4395 18.5625ZM30.752 57.8125C30.4603 57.8125 30.2207 57.7083 30.0332 57.5C29.8457 57.2917 29.752 57.0625 29.752 56.8125C29.752 56.5208 29.8457 56.2812 30.0332 56.0938C30.2207 55.9062 30.4603 55.8125 30.752 55.8125H44.9395C45.1895 55.8125 45.4082 55.9062 45.5957 56.0938C45.7832 56.2812 45.877 56.5208 45.877 56.8125C45.877 57.0625 45.7832 57.2917 45.5957 57.5C45.4082 57.7083 45.1895 57.8125 44.9395 57.8125H30.752ZM62.4395 23.375L49.5645 45.125C49.4395 45.375 49.2415 45.5312 48.9707 45.5938C48.6999 45.6562 48.4395 45.625 48.1895 45.5C48.1061 45.4583 48.0332 45.4062 47.9707 45.3438C47.9082 45.2812 47.8561 45.2083 47.8145 45.125L35.002 23.375C35.002 23.375 34.9915 23.3646 34.9707 23.3438C34.9499 23.3229 34.9395 23.3125 34.9395 23.3125C34.6478 22.7292 34.377 22.1354 34.127 21.5312C33.877 20.9271 33.6686 20.3125 33.502 19.6875C33.3353 19.0208 33.2103 18.3646 33.127 17.7188C33.0436 17.0729 33.002 16.3958 33.002 15.6875C33.002 13.5208 33.4186 11.4896 34.252 9.59375C35.0853 7.69792 36.2103 6.04167 37.627 4.625C39.0436 3.20833 40.6999 2.08333 42.5957 1.25C44.4915 0.416668 46.5436 0 48.752 0C50.9186 0 52.9499 0.416668 54.8457 1.25C56.7415 2.08333 58.3978 3.20833 59.8145 4.625C61.2311 6.04167 62.3561 7.69792 63.1895 9.59375C64.0228 11.4896 64.4395 13.5208 64.4395 15.6875C64.4395 16.3958 64.3978 17.0729 64.3145 17.7188C64.2311 18.3646 64.1061 19.0208 63.9395 19.6875C63.7728 20.3125 63.5645 20.9375 63.3145 21.5625C63.0645 22.1875 62.7728 22.7917 62.4395 23.375ZM48.752 6.1875C50.0436 6.1875 51.2728 6.4375 52.4395 6.9375C53.6061 7.4375 54.6061 8.125 55.4395 9C56.3145 9.83333 57.002 10.8333 57.502 12C58.002 13.1667 58.252 14.3958 58.252 15.6875C58.252 17.0208 58.002 18.2708 57.502 19.4375C57.002 20.6042 56.3145 21.6042 55.4395 22.4375C54.6061 23.3125 53.6061 24 52.4395 24.5C51.2728 25 50.0436 25.25 48.752 25.25C47.4186 25.25 46.1686 25 45.002 24.5C43.8353 24 42.8145 23.3125 41.9395 22.4375C41.1061 21.6042 40.4395 20.6042 39.9395 19.4375C39.4395 18.2708 39.1895 17.0208 39.1895 15.6875C39.1895 14.3958 39.4395 13.1667 39.9395 12C40.4395 10.8333 41.1061 9.83333 41.9395 9C42.8145 8.125 43.8353 7.4375 45.002 6.9375C46.1686 6.4375 47.4186 6.1875 48.752 6.1875ZM54.0645 10.375C53.3561 9.70833 52.554 9.17708 51.6582 8.78125C50.7624 8.38542 49.7936 8.1875 48.752 8.1875C47.7103 8.1875 46.7311 8.38542 45.8145 8.78125C44.8978 9.17708 44.0853 9.70833 43.377 10.375C42.7103 11.0833 42.179 11.8854 41.7832 12.7812C41.3874 13.6771 41.1895 14.6458 41.1895 15.6875C41.1895 16.7292 41.3874 17.7083 41.7832 18.625C42.179 19.5417 42.7103 20.3542 43.377 21.0625C44.0853 21.7292 44.8978 22.2604 45.8145 22.6562C46.7311 23.0521 47.7103 23.25 48.752 23.25C49.7936 23.25 50.7624 23.0521 51.6582 22.6562C52.554 22.2604 53.3561 21.7292 54.0645 21.0625C54.7311 20.3542 55.2624 19.5417 55.6582 18.625C56.054 17.7083 56.252 16.7292 56.252 15.6875C56.252 14.6458 56.054 13.6771 55.6582 12.7812C55.2624 11.8854 54.7311 11.0833 54.0645 10.375ZM48.752 42.6875L60.752 22.375C61.002 21.875 61.2311 21.3542 61.4395 20.8125C61.6478 20.2708 61.8353 19.7292 62.002 19.1875C62.127 18.6042 62.2311 18.0312 62.3145 17.4688C62.3978 16.9062 62.4395 16.3125 62.4395 15.6875C62.4395 13.8125 62.0749 12.0417 61.3457 10.375C60.6165 8.70833 59.6478 7.25 58.4395 6C57.1895 4.79167 55.7311 3.82292 54.0645 3.09375C52.3978 2.36458 50.627 2 48.752 2C46.8353 2 45.0436 2.36458 43.377 3.09375C41.7103 3.82292 40.252 4.79167 39.002 6C37.752 7.25 36.7728 8.70833 36.0645 10.375C35.3561 12.0417 35.002 13.8125 35.002 15.6875C35.002 16.3125 35.0332 16.9062 35.0957 17.4688C35.1582 18.0312 35.2728 18.6042 35.4395 19.1875C35.5645 19.7292 35.7415 20.2604 35.9707 20.7812C36.1999 21.3021 36.4395 21.8125 36.6895 22.3125V22.375L48.752 42.6875ZM48.752 11.125C49.3353 11.125 49.9082 11.25 50.4707 11.5C51.0332 11.75 51.5228 12.0833 51.9395 12.5C52.3561 12.9167 52.6895 13.3958 52.9395 13.9375C53.1895 14.4792 53.3145 15.0625 53.3145 15.6875C53.3145 16.3542 53.1895 16.9583 52.9395 17.5C52.6895 18.0417 52.3561 18.5208 51.9395 18.9375C51.5228 19.3542 51.0436 19.6875 50.502 19.9375C49.9603 20.1875 49.377 20.3125 48.752 20.3125C48.0853 20.3125 47.4811 20.1875 46.9395 19.9375C46.3978 19.6875 45.9186 19.3542 45.502 18.9375C45.4603 18.9375 45.4395 18.9271 45.4395 18.9062C45.4395 18.8854 45.4395 18.875 45.4395 18.875C45.0228 18.4583 44.6999 17.9792 44.4707 17.4375C44.2415 16.8958 44.127 16.3125 44.127 15.6875C44.127 15.0625 44.252 14.4792 44.502 13.9375C44.752 13.3958 45.0853 12.9167 45.502 12.5C45.502 12.5 45.502 12.4896 45.502 12.4688C45.502 12.4479 45.5228 12.4375 45.5645 12.4375C45.9811 12.0208 46.4603 11.6979 47.002 11.4688C47.5436 11.2396 48.127 11.125 48.752 11.125ZM50.5645 13.875C50.3145 13.6667 50.0332 13.4896 49.7207 13.3438C49.4082 13.1979 49.0853 13.125 48.752 13.125C48.377 13.125 48.0436 13.1875 47.752 13.3125C47.4603 13.4375 47.1895 13.625 46.9395 13.875C46.9395 13.875 46.929 13.875 46.9082 13.875C46.8874 13.875 46.877 13.875 46.877 13.875C46.6686 14.125 46.4915 14.4062 46.3457 14.7188C46.1999 15.0312 46.127 15.3542 46.127 15.6875C46.127 16.0625 46.1895 16.3958 46.3145 16.6875C46.4395 16.9792 46.627 17.25 46.877 17.5C46.877 17.5 46.877 17.5104 46.877 17.5312C46.877 17.5521 46.877 17.5625 46.877 17.5625C47.127 17.7708 47.4082 17.9479 47.7207 18.0938C48.0332 18.2396 48.377 18.3125 48.752 18.3125C49.0853 18.3125 49.4082 18.2396 49.7207 18.0938C50.0332 17.9479 50.3145 17.7708 50.5645 17.5625C50.7728 17.3125 50.9499 17.0312 51.0957 16.7188C51.2415 16.4062 51.3145 16.0625 51.3145 15.6875C51.3145 15.3542 51.2415 15.0312 51.0957 14.7188C50.9499 14.4062 50.7728 14.125 50.5645 13.875Z" fill="#4BAF47"/>
</svg>
