<svg width="63" height="58" viewBox="0 0 63 58" fill="none" xmlns="http://www.w3.org/2000/svg">
<path d="M48.5977 46.0625L47.1602 47.4375L43.7227 44.0625H46.5977L48.5977 46.0625ZM54.1602 46.0625C54.1602 47.7292 53.5768 49.1458 52.4102 50.3125C51.2435 51.4792 49.8268 52.0625 48.1602 52.0625H42.1602V50.0625H48.1602C49.2852 50.0625 50.2331 49.6667 51.0039 48.875C51.7747 48.0833 52.1602 47.1458 52.1602 46.0625C52.1602 45.6875 52.1081 45.3333 52.0039 45C51.8997 44.6667 51.7643 44.3333 51.5977 44V44.0625H53.7852C53.9102 44.3542 54.0039 44.6667 54.0664 45C54.1289 45.3333 54.1602 45.6875 54.1602 46.0625ZM47.1602 47.4375L40.7227 41.0625L47.1602 34.625L48.5977 36.0625L43.5977 41.0625L48.5977 46.0625L47.1602 47.4375ZM8.16016 39.25V41.0625L3.16016 39.0625V37.25L8.16016 39.25ZM8.16016 36.125V37.9375L3.16016 35.9375V34.125L8.16016 36.125ZM31.2227 55.1875L0.160156 41.6875V18.4375L33.0977 0.9375L62.1602 12.375V35.625L56.9102 38.9375L55.8477 37.25L60.1602 34.5V13.75L33.2227 3.125L2.16016 19.625V40.375L31.0977 52.9375L37.2852 49L38.3477 50.6875L31.2227 55.1875ZM31.1602 55.0625C31.0768 55.0625 31.0039 55.0521 30.9414 55.0312C30.8789 55.0104 30.806 54.9792 30.7227 54.9375H30.7852L0.785156 41.9375C0.576823 41.8958 0.420573 41.7917 0.316406 41.625C0.21224 41.4583 0.160156 41.2708 0.160156 41.0625V19.0625C0.160156 18.7708 0.253906 18.5312 0.441406 18.3438C0.628906 18.1562 0.86849 18.0625 1.16016 18.0625C1.24349 18.0625 1.31641 18.0625 1.37891 18.0625C1.44141 18.0625 1.49349 18.0833 1.53516 18.125L31.5352 30.125C31.7018 30.2083 31.8477 30.3333 31.9727 30.5C32.0977 30.6667 32.1602 30.8542 32.1602 31.0625V54.0625C32.1602 54.3125 32.0664 54.5417 31.8789 54.75C31.6914 54.9583 31.4518 55.0625 31.1602 55.0625ZM2.16016 40.375L30.1602 52.5V31.75L2.16016 20.5V40.375ZM31.1602 55.0625C30.8685 55.0625 30.6289 54.9583 30.4414 54.75C30.2539 54.5417 30.1602 54.3125 30.1602 54.0625V31.0625C30.1602 30.8542 30.2018 30.6771 30.2852 30.5312C30.3685 30.3854 30.4935 30.2708 30.6602 30.1875L60.6602 12.1875C60.7435 12.1458 60.8268 12.1146 60.9102 12.0938C60.9935 12.0729 61.0768 12.0625 61.1602 12.0625C61.4518 12.0625 61.6914 12.1562 61.8789 12.3438C62.0664 12.5312 62.1602 12.7708 62.1602 13.0625V35.0625C62.1602 35.2292 62.1185 35.3854 62.0352 35.5312C61.9518 35.6771 61.8477 35.7917 61.7227 35.875L56.9102 38.9375L55.8477 37.25L60.1602 34.5V14.8125L32.1602 31.625V52.25L37.2852 49L38.3477 50.6875L31.7227 54.875C31.6393 54.9167 31.5456 54.9583 31.4414 55C31.3372 55.0417 31.2435 55.0625 31.1602 55.0625ZM19.1602 34.0625C19.0768 34.0625 19.0039 34.0521 18.9414 34.0312C18.8789 34.0104 18.8268 34 18.7852 34L13.7852 32C13.6185 31.9167 13.4727 31.7917 13.3477 31.625C13.2227 31.4583 13.1602 31.2708 13.1602 31.0625V24.25C13.1602 23.9583 13.2539 23.7188 13.4414 23.5312C13.6289 23.3438 13.8685 23.25 14.1602 23.25C14.2435 23.25 14.3164 23.2604 14.3789 23.2812C14.4414 23.3021 14.4935 23.3125 14.5352 23.3125L19.5352 25.3125C19.7018 25.3958 19.8477 25.5208 19.9727 25.6875C20.0977 25.8542 20.1602 26.0417 20.1602 26.25V33.0625C20.1602 33.3125 20.0664 33.5417 19.8789 33.75C19.6914 33.9583 19.4518 34.0625 19.1602 34.0625ZM15.1602 30.375L18.1602 31.5625V26.9375L15.1602 25.75V30.375ZM19.1602 27.25C19.0768 27.25 19.0039 27.2396 18.9414 27.2188C18.8789 27.1979 18.8268 27.1875 18.7852 27.1875L13.7852 25.1875C13.6185 25.1042 13.4727 24.9792 13.3477 24.8125C13.2227 24.6458 13.1602 24.4583 13.1602 24.25C13.1602 24.0833 13.2018 23.9271 13.2852 23.7812C13.3685 23.6354 13.4935 23.5 13.6602 23.375L42.9727 5.25C43.0143 5.20833 43.0872 5.17708 43.1914 5.15625C43.2956 5.13542 43.3893 5.125 43.4727 5.125C43.556 5.125 43.6289 5.125 43.6914 5.125C43.7539 5.125 43.806 5.14583 43.8477 5.1875L48.9102 7.1875C49.0768 7.22917 49.2122 7.33333 49.3164 7.5C49.4206 7.66667 49.4727 7.85417 49.4727 8.0625C49.4727 8.27083 49.431 8.44792 49.3477 8.59375C49.2643 8.73958 49.1602 8.85417 49.0352 8.9375L19.6602 27.125C19.6185 27.1667 19.5456 27.1979 19.4414 27.2188C19.3372 27.2396 19.2435 27.25 19.1602 27.25ZM16.3477 24.0625L19.0352 25.125L46.2852 8.25L43.5977 7.1875L16.3477 24.0625ZM47.1602 57.0625C45.3685 57.0625 43.681 56.7083 42.0977 56C40.5143 55.3333 39.1393 54.4167 37.9727 53.25C36.806 52.0833 35.8685 50.7083 35.1602 49.125C34.4935 47.5417 34.1602 45.8542 34.1602 44.0625C34.1602 42.2708 34.4935 40.5833 35.1602 39C35.8685 37.4167 36.806 36.0312 37.9727 34.8438C39.1393 33.6562 40.5143 32.7292 42.0977 32.0625C43.681 31.3958 45.3685 31.0625 47.1602 31.0625C48.9518 31.0625 50.6393 31.3958 52.2227 32.0625C53.806 32.7292 55.181 33.6562 56.3477 34.8438C57.5143 36.0312 58.4518 37.4167 59.1602 39C59.8268 40.5833 60.1602 42.2708 60.1602 44.0625C60.1602 45.8542 59.8268 47.5417 59.1602 49.125C58.4518 50.7083 57.5143 52.0833 56.3477 53.25C55.181 54.4167 53.806 55.3333 52.2227 56C50.6393 56.7083 48.9518 57.0625 47.1602 57.0625ZM47.1602 33.0625C44.1185 33.0625 41.5247 34.1354 39.3789 36.2812C37.2331 38.4271 36.1602 41.0208 36.1602 44.0625C36.1602 47.1042 37.2331 49.6979 39.3789 51.8438C41.5247 53.9896 44.1185 55.0625 47.1602 55.0625C50.2018 55.0625 52.7956 53.9896 54.9414 51.8438C57.0872 49.6979 58.1602 47.1042 58.1602 44.0625C58.1602 41.0208 57.0872 38.4271 54.9414 36.2812C52.7956 34.1354 50.2018 33.0625 47.1602 33.0625ZM48.1602 52.0625H42.1602V50.0625H48.1602C49.2852 50.0625 50.2331 49.6667 51.0039 48.875C51.7747 48.0833 52.1602 47.1458 52.1602 46.0625C52.1602 44.9375 51.7747 43.9896 51.0039 43.2188C50.2331 42.4479 49.2852 42.0625 48.1602 42.0625H42.1602V40.0625H48.1602C49.8268 40.0625 51.2435 40.6458 52.4102 41.8125C53.5768 42.9792 54.1602 44.3958 54.1602 46.0625C54.1602 47.7292 53.5768 49.1458 52.4102 50.3125C51.2435 51.4792 49.8268 52.0625 48.1602 52.0625Z" fill="#4BAF47"/>
</svg>
