<svg width="60" height="61" viewBox="0 0 60 61" fill="none" xmlns="http://www.w3.org/2000/svg">
<path d="M16 58.19H14.1875C12.9375 58.19 11.8438 57.7838 10.9062 56.9713C9.96875 56.1588 9.41667 55.1483 9.25 53.94V53.8775L6.5625 35.065C6.52083 34.815 6.40625 34.6067 6.21875 34.44C6.03125 34.2733 5.8125 34.19 5.5625 34.19C5.3125 34.19 5.08333 34.2838 4.875 34.4713C4.66667 34.6588 4.5625 34.8983 4.5625 35.19C4.5625 35.2317 4.5625 35.2629 4.5625 35.2838C4.5625 35.3046 4.5625 35.315 4.5625 35.315L7.25 54.19C7.54167 55.8983 8.33333 57.3254 9.625 58.4713C10.9167 59.6171 12.4375 60.19 14.1875 60.19H16C16.2917 60.19 16.5312 60.0963 16.7188 59.9088C16.9062 59.7213 17 59.4817 17 59.19C17 58.8983 16.9062 58.6588 16.7188 58.4713C16.5312 58.2838 16.2917 58.19 16 58.19ZM28 48.19C27.7083 48.19 27.4688 48.2838 27.2812 48.4713C27.0938 48.6588 27 48.8983 27 49.19V53.19C27 54.0233 27.2917 54.7317 27.875 55.315C28.4583 55.8983 29.1667 56.19 30 56.19C30.8333 56.19 31.5417 55.8983 32.125 55.315C32.7083 54.7317 33 54.0233 33 53.19V41.19C33 40.3567 32.7083 39.6483 32.125 39.065C31.5417 38.4817 30.8333 38.19 30 38.19C29.1667 38.19 28.4583 38.4817 27.875 39.065C27.2917 39.6483 27 40.3567 27 41.19V45.19C27 45.4817 27.0938 45.7213 27.2812 45.9088C27.4688 46.0963 27.7083 46.19 28 46.19C28.2917 46.19 28.5312 46.0963 28.7188 45.9088C28.9062 45.7213 29 45.4817 29 45.19V41.19C29 40.8983 29.0938 40.6588 29.2812 40.4713C29.4688 40.2838 29.7083 40.19 30 40.19C30.2917 40.19 30.5312 40.2838 30.7188 40.4713C30.9062 40.6588 31 40.8983 31 41.19V53.19C31 53.4817 30.9062 53.7213 30.7188 53.9088C30.5312 54.0963 30.2917 54.19 30 54.19C29.7083 54.19 29.4688 54.0963 29.2812 53.9088C29.0938 53.7213 29 53.4817 29 53.19V49.19C29 48.8983 28.9062 48.6588 28.7188 48.4713C28.5312 48.2838 28.2917 48.19 28 48.19ZM14 38.19C13.1667 38.19 12.4583 38.4817 11.875 39.065C11.2917 39.6483 11 40.3567 11 41.19V53.19C11 54.0233 11.2917 54.7317 11.875 55.315C12.4583 55.8983 13.1667 56.19 14 56.19C14.8333 56.19 15.5417 55.8983 16.125 55.315C16.7083 54.7317 17 54.0233 17 53.19V41.19C17 40.3567 16.7083 39.6483 16.125 39.065C15.5417 38.4817 14.8333 38.19 14 38.19ZM15 53.19C15 53.4817 14.9062 53.7213 14.7188 53.9088C14.5312 54.0963 14.2917 54.19 14 54.19C13.7083 54.19 13.4688 54.0963 13.2812 53.9088C13.0938 53.7213 13 53.4817 13 53.19V41.19C13 40.8983 13.0938 40.6588 13.2812 40.4713C13.4688 40.2838 13.7083 40.19 14 40.19C14.2917 40.19 14.5312 40.2838 14.7188 40.4713C14.9062 40.6588 15 40.8983 15 41.19V53.19ZM19 41.19V53.19C19 54.0233 19.2917 54.7317 19.875 55.315C20.4583 55.8983 21.1667 56.19 22 56.19C22.8333 56.19 23.5417 55.8983 24.125 55.315C24.7083 54.7317 25 54.0233 25 53.19V41.19C25 40.3567 24.7083 39.6483 24.125 39.065C23.5417 38.4817 22.8333 38.19 22 38.19C21.1667 38.19 20.4583 38.4817 19.875 39.065C19.2917 39.6483 19 40.3567 19 41.19ZM23 41.19V53.19C23 53.4817 22.9062 53.7213 22.7188 53.9088C22.5312 54.0963 22.2917 54.19 22 54.19C21.7083 54.19 21.4688 54.0963 21.2812 53.9088C21.0938 53.7213 21 53.4817 21 53.19V41.19C21 40.8983 21.0938 40.6588 21.2812 40.4713C21.4688 40.2838 21.7083 40.19 22 40.19C22.2917 40.19 22.5312 40.2838 22.7188 40.4713C22.9062 40.6588 23 40.8983 23 41.19ZM44 36.19C44.2917 36.19 44.5312 36.0963 44.7188 35.9088C44.9062 35.7213 45 35.4817 45 35.19C45 34.8983 44.9062 34.6588 44.7188 34.4713C44.5312 34.2838 44.2917 34.19 44 34.19H37C36.7083 34.19 36.4688 34.2838 36.2812 34.4713C36.0938 34.6588 36 34.8983 36 35.19C36 35.4817 36.0938 35.7213 36.2812 35.9088C36.4688 36.0963 36.7083 36.19 37 36.19H44ZM23 34.19H11C10.7083 34.19 10.4688 34.2838 10.2812 34.4713C10.0938 34.6588 10 34.8983 10 35.19C10 35.4817 10.0938 35.7213 10.2812 35.9088C10.4688 36.0963 10.7083 36.19 11 36.19H23C23.2917 36.19 23.5312 36.0963 23.7188 35.9088C23.9062 35.7213 24 35.4817 24 35.19C24 34.8983 23.9062 34.6588 23.7188 34.4713C23.5312 34.2838 23.2917 34.19 23 34.19ZM55.9375 41.2525C56.5625 40.7942 57.0625 40.2108 57.4375 39.5025C57.8125 38.7942 58 38.0233 58 37.19C58 36.8983 57.9062 36.6588 57.7188 36.4713C57.5312 36.2838 57.2917 36.19 57 36.19H55.3125L55.875 32.19H57C57.8333 32.19 58.5417 31.8983 59.125 31.315C59.7083 30.7317 60 30.0233 60 29.19C60 28.3567 59.7083 27.6483 59.125 27.065C58.5417 26.4817 57.8333 26.19 57 26.19H50.75L51.625 24.2525C51.9583 24.5025 52.3229 24.7004 52.7188 24.8463C53.1146 24.9921 53.5417 25.065 54 25.065C54.9167 25.065 55.7292 24.7942 56.4375 24.2525C57.1458 23.7108 57.625 23.0025 57.875 22.1275C57.9167 21.9608 57.9479 21.7942 57.9688 21.6275C57.9896 21.4608 58 21.2942 58 21.1275C58 21.0858 58 21.0546 58 21.0338C58 21.0129 58 20.9817 58 20.94C58.5833 20.6067 59.0625 20.1275 59.4375 19.5025C59.8125 18.8775 60 18.2108 60 17.5025C60 16.9192 59.8854 16.3671 59.6562 15.8463C59.4271 15.3254 59.1042 14.8775 58.6875 14.5025C58.7708 14.3358 58.8646 14.1379 58.9688 13.9088C59.0729 13.6796 59.1458 13.44 59.1875 13.19H59.25C59.2917 12.94 59.3333 12.6796 59.375 12.4088C59.4167 12.1379 59.4375 11.8775 59.4375 11.6275C59.4375 10.7942 59.2812 10.0129 58.9688 9.28375C58.6562 8.55458 58.2292 7.91917 57.6875 7.3775C57.6042 7.29417 57.5 7.23167 57.375 7.19C57.25 7.14833 57.125 7.1275 57 7.1275C56.7083 7.1275 56.4688 7.22125 56.2812 7.40875C56.0938 7.59625 56 7.83583 56 8.1275C56 8.2525 56.0208 8.3775 56.0625 8.5025C56.1042 8.6275 56.1875 8.73167 56.3125 8.815C56.6458 9.19 56.9167 9.61708 57.125 10.0963C57.3333 10.5754 57.4375 11.0858 57.4375 11.6275C57.4375 12.4608 57.1979 13.2213 56.7188 13.9088C56.2396 14.5963 55.6042 15.065 54.8125 15.315V15.3775C54.6458 15.4192 54.5 15.5233 54.375 15.69C54.25 15.8567 54.1875 16.0442 54.1875 16.2525C54.1875 16.3775 54.1771 16.5025 54.1562 16.6275C54.1354 16.7525 54.1042 16.8775 54.0625 17.0025V16.94C53.8958 17.6067 53.5417 18.1483 53 18.565C52.4583 18.9817 51.8542 19.19 51.1875 19.19C50.4792 19.19 49.8646 18.9817 49.3438 18.565C48.8229 18.1483 48.4792 17.6275 48.3125 17.0025C48.3125 17.0025 48.3125 16.9817 48.3125 16.94C48.2708 16.8567 48.2396 16.7421 48.2188 16.5963C48.1979 16.4504 48.1875 16.315 48.1875 16.19C48.1875 15.6483 48.3229 15.1483 48.5938 14.69C48.8646 14.2317 49.2083 13.8567 49.625 13.565H49.6875C49.8125 13.4817 49.9271 13.3671 50.0312 13.2213C50.1354 13.0754 50.1875 12.8983 50.1875 12.69C50.1875 12.44 50.0833 12.2108 49.875 12.0025C49.6667 11.7942 49.4375 11.69 49.1875 11.69C49.0625 11.69 48.9583 11.7108 48.875 11.7525C48.7917 11.7942 48.7292 11.8358 48.6875 11.8775C47.9375 12.2942 47.3333 12.8879 46.875 13.6588C46.4167 14.4296 46.1875 15.2733 46.1875 16.19C46.1875 16.2317 46.1875 16.2942 46.1875 16.3775C46.1875 16.4608 46.1875 16.5442 46.1875 16.6275V16.565C46.1042 16.6067 46.0104 16.6275 45.9062 16.6275C45.8021 16.6275 45.6875 16.6275 45.5625 16.6275C45.4375 16.6275 45.3125 16.6275 45.1875 16.6275C45.0625 16.6275 44.9375 16.6067 44.8125 16.565H44.875C44.4167 16.44 44.0312 16.2421 43.7188 15.9713C43.4062 15.7004 43.1458 15.3775 42.9375 15.0025C42.9375 14.9608 42.9375 14.94 42.9375 14.94C42.8542 14.7317 42.7812 14.5233 42.7188 14.315C42.6562 14.1067 42.625 13.8775 42.625 13.6275C42.625 13.6275 42.625 13.6067 42.625 13.565C42.625 13.315 42.5312 13.0858 42.3438 12.8775C42.1562 12.6692 41.9167 12.565 41.625 12.565C41.375 12.565 41.1458 12.6588 40.9375 12.8463C40.7292 13.0338 40.625 13.2733 40.625 13.565C40.625 13.565 40.625 13.5754 40.625 13.5963C40.625 13.6171 40.625 13.6275 40.625 13.6275C40.625 13.8775 40.6458 14.1067 40.6875 14.315C40.7292 14.5233 40.7708 14.7317 40.8125 14.94C40.6458 14.9817 40.4792 15.0233 40.3125 15.065C40.1458 15.1067 39.9792 15.1275 39.8125 15.1275C39.6875 15.1275 39.5625 15.1171 39.4375 15.0963C39.3125 15.0754 39.1875 15.0442 39.0625 15.0025C38.7292 14.9192 38.4375 14.7942 38.1875 14.6275C37.9375 14.4608 37.7083 14.2525 37.5 14.0025V13.94C37.2917 13.69 37.125 13.4088 37 13.0963C36.875 12.7838 36.8125 12.4608 36.8125 12.1275C36.8125 11.4192 37.0312 10.7942 37.4688 10.2525C37.9062 9.71083 38.4375 9.35667 39.0625 9.19H39.125C39.2917 9.14833 39.4479 9.05458 39.5938 8.90875C39.7396 8.76292 39.8125 8.58583 39.8125 8.3775L39.875 8.19C39.875 8.14833 39.875 8.10667 39.875 8.065C39.875 8.02333 39.875 8.0025 39.875 8.0025C40.0833 7.29417 40.4375 6.69 40.9375 6.19C41.4375 5.69 42.0417 5.35667 42.75 5.19C42.75 5.315 42.7396 5.47125 42.7188 5.65875C42.6979 5.84625 42.6875 6.02333 42.6875 6.19C42.6875 6.73167 42.7604 7.26292 42.9062 7.78375C43.0521 8.30458 43.25 8.77333 43.5 9.19C43.5833 9.35667 43.6979 9.48167 43.8438 9.565C43.9896 9.64833 44.1458 9.69 44.3125 9.69C44.6042 9.69 44.8438 9.59625 45.0312 9.40875C45.2188 9.22125 45.3125 8.98167 45.3125 8.69C45.3125 8.60667 45.3021 8.52333 45.2812 8.44C45.2604 8.35667 45.2292 8.27333 45.1875 8.19C45.0208 7.89833 44.8958 7.58583 44.8125 7.2525C44.7292 6.91917 44.6875 6.565 44.6875 6.19C44.6875 5.89833 44.7188 5.60667 44.7812 5.315C44.8438 5.02333 44.9375 4.73167 45.0625 4.44C45.3958 3.77333 45.8854 3.23167 46.5312 2.815C47.1771 2.39833 47.8958 2.19 48.6875 2.19C49.7708 2.19 50.7083 2.57542 51.5 3.34625C52.2917 4.11708 52.6875 5.065 52.6875 6.19C52.6875 6.23167 52.6771 6.28375 52.6562 6.34625C52.6354 6.40875 52.625 6.48167 52.625 6.565V6.5025C52.625 6.54417 52.625 6.565 52.625 6.565C52.625 6.85667 52.7292 7.09625 52.9375 7.28375C53.1458 7.47125 53.375 7.565 53.625 7.565C53.875 7.565 54.0938 7.48167 54.2812 7.315C54.4688 7.14833 54.5833 6.94 54.625 6.69C54.625 6.60667 54.6354 6.52333 54.6562 6.44C54.6771 6.35667 54.6875 6.27333 54.6875 6.19C54.6875 4.52333 54.0938 3.10667 52.9062 1.94C51.7188 0.773335 50.3125 0.190002 48.6875 0.190002C47.6042 0.190002 46.6146 0.45042 45.7188 0.971252C44.8229 1.49208 44.1042 2.16917 43.5625 3.0025C42.2292 3.04417 41.0521 3.48167 40.0312 4.315C39.0104 5.14833 38.3333 6.19 38 7.44V7.5025C37.0417 7.8775 36.2812 8.47125 35.7188 9.28375C35.1562 10.0963 34.875 11.0233 34.875 12.065C34.875 12.5233 34.9271 12.9504 35.0312 13.3463C35.1354 13.7421 35.2708 14.1275 35.4375 14.5025V14.44C35.3542 14.565 35.2604 14.7004 35.1562 14.8463C35.0521 14.9921 34.9792 15.1275 34.9375 15.2525L34.875 15.315L34.0625 13.5025C33.7292 12.7942 33.2708 12.1796 32.6875 11.6588C32.1042 11.1379 31.4375 10.7733 30.6875 10.565L30.625 10.5025C30.5417 10.4608 30.4271 10.4296 30.2812 10.4088C30.1354 10.3879 30 10.3775 29.875 10.3775L29.8125 10.315L29.5 5.0025C29.5 4.7525 29.3958 4.53375 29.1875 4.34625C28.9792 4.15875 28.75 4.065 28.5 4.065C28.2083 4.065 27.9688 4.15875 27.7812 4.34625C27.5938 4.53375 27.5 4.77333 27.5 5.065C27.5 5.065 27.5 5.07542 27.5 5.09625C27.5 5.11708 27.5 5.1275 27.5 5.1275L27.8125 10.3775C27.6458 10.4192 27.4792 10.4713 27.3125 10.5338C27.1458 10.5963 26.9792 10.6483 26.8125 10.69H26.875L25.5 5.94C25.4583 5.73167 25.3438 5.55458 25.1562 5.40875C24.9688 5.26292 24.7708 5.19 24.5625 5.19C24.2708 5.19 24.0312 5.28375 23.8438 5.47125C23.6562 5.65875 23.5625 5.89833 23.5625 6.19C23.5625 6.23167 23.5625 6.27333 23.5625 6.315C23.5625 6.35667 23.5625 6.41917 23.5625 6.5025V6.44L23.625 6.565L23.5 6.5025C23.4167 6.41917 23.3125 6.34625 23.1875 6.28375C23.0625 6.22125 22.9375 6.19 22.8125 6.19C22.6875 6.19 22.5625 6.21083 22.4375 6.2525C22.3125 6.29417 22.2083 6.3775 22.125 6.5025V6.44L19.125 9.315C19.0417 9.44 18.9688 9.55458 18.9062 9.65875C18.8438 9.76292 18.8125 9.89833 18.8125 10.065C18.8125 10.2317 18.8542 10.3879 18.9375 10.5338C19.0208 10.6796 19.1458 10.7942 19.3125 10.8775L23.75 13.815C23.7083 13.94 23.6667 14.065 23.625 14.19C23.5833 14.315 23.5417 14.4608 23.5 14.6275C23.4583 14.8358 23.4271 15.0442 23.4062 15.2525C23.3854 15.4608 23.375 15.6692 23.375 15.8775C23.375 15.9608 23.375 16.0442 23.375 16.1275C23.375 16.2108 23.375 16.2942 23.375 16.3775C22.625 16.5025 21.9167 16.7213 21.25 17.0338C20.5833 17.3463 19.9583 17.7317 19.375 18.19L18.6875 17.5025C18.6042 17.4192 18.5 17.3463 18.375 17.2838C18.25 17.2213 18.125 17.19 18 17.19C17.75 17.19 17.5208 17.2942 17.3125 17.5025C17.1042 17.7108 17 17.94 17 18.19C17 18.315 17.0312 18.44 17.0938 18.565C17.1562 18.69 17.2292 18.7942 17.3125 18.8775L17.375 18.94C16.5417 19.1483 15.8229 19.5233 15.2188 20.065C14.6146 20.6067 14.1667 21.2733 13.875 22.065H13.8125L13.75 22.3775L11.3125 21.565C11.2708 21.5233 11.2292 21.5025 11.1875 21.5025C11.1458 21.5025 11.0833 21.5025 11 21.5025C10.7083 21.5025 10.4688 21.5963 10.2812 21.7838C10.0938 21.9713 10 22.2108 10 22.5025C10 22.7108 10.0625 22.8983 10.1875 23.065C10.3125 23.2317 10.4792 23.3567 10.6875 23.44L30.8125 30.3775C30.9792 30.4608 31.125 30.5858 31.25 30.7525C31.375 30.9192 31.4375 31.1275 31.4375 31.3775C31.4375 31.6275 31.3438 31.8567 31.1562 32.065C30.9688 32.2733 30.7292 32.3775 30.4375 32.3775C30.3958 32.3775 30.3438 32.3671 30.2812 32.3463C30.2188 32.3254 30.1667 32.315 30.125 32.315L3.6875 23.1275C3.47917 23.0442 3.3125 22.9192 3.1875 22.7525C3.0625 22.5858 3 22.3983 3 22.19C3 21.9817 3.05208 21.8046 3.15625 21.6588C3.26042 21.5129 3.39583 21.3983 3.5625 21.315C3.64583 21.2733 3.71875 21.2421 3.78125 21.2213C3.84375 21.2004 3.91667 21.19 4 21.19C4.04167 21.19 4.09375 21.19 4.15625 21.19C4.21875 21.19 4.27083 21.2108 4.3125 21.2525L6.875 22.1275C6.95833 22.1692 7.03125 22.19 7.09375 22.19C7.15625 22.19 7.20833 22.19 7.25 22.19C7.54167 22.19 7.78125 22.0963 7.96875 21.9088C8.15625 21.7213 8.25 21.4817 8.25 21.19C8.25 20.9817 8.1875 20.7942 8.0625 20.6275C7.9375 20.4608 7.77083 20.3358 7.5625 20.2525L5 19.3775C4.83333 19.2942 4.66667 19.2421 4.5 19.2213C4.33333 19.2004 4.14583 19.19 3.9375 19.19C3.14583 19.19 2.44792 19.4817 1.84375 20.065C1.23958 20.6483 0.9375 21.3567 0.9375 22.19C0.9375 22.8567 1.13542 23.44 1.53125 23.94C1.92708 24.44 2.41667 24.7942 3 25.0025L6.375 26.19H3C2.16667 26.19 1.45833 26.4817 0.875 27.065C0.291667 27.6483 0 28.3567 0 29.19C0 30.0233 0.291667 30.7317 0.875 31.315C1.45833 31.8983 2.16667 32.19 3 32.19H23.6875L29.5 34.19C29.625 34.2317 29.7708 34.2733 29.9375 34.315C30.1042 34.3567 30.2917 34.3775 30.5 34.3775C31.3333 34.3775 32.0417 34.0858 32.625 33.5025C33.2083 32.9192 33.5 32.2108 33.5 31.3775C33.5 30.7108 33.3021 30.1171 32.9062 29.5963C32.5104 29.0754 32.0208 28.7108 31.4375 28.5025L30.5 28.19H57C57.2917 28.19 57.5312 28.2838 57.7188 28.4713C57.9062 28.6588 58 28.8983 58 29.19C58 29.4817 57.9062 29.7213 57.7188 29.9088C57.5312 30.0963 57.2917 30.19 57 30.19H36.4375C36.1875 30.19 35.9583 30.2838 35.75 30.4713C35.5417 30.6588 35.4375 30.8983 35.4375 31.19C35.4375 31.4817 35.5417 31.7213 35.75 31.9088C35.9583 32.0963 36.1875 32.19 36.4375 32.19H53.875L53.25 36.5025C52.9583 36.6275 52.6875 36.7733 52.4375 36.94C52.1875 37.1067 51.9583 37.2733 51.75 37.44V37.315C51.75 37.2317 51.75 37.1692 51.75 37.1275C51.75 37.0858 51.75 37.0233 51.75 36.94C51.75 36.6067 51.6875 36.2838 51.5625 35.9713C51.4375 35.6588 51.2708 35.3775 51.0625 35.1275C50.8125 34.8358 50.5104 34.6171 50.1562 34.4713C49.8021 34.3254 49.4167 34.2525 49 34.2525C48.5833 34.2525 48.1979 34.3254 47.8438 34.4713C47.4896 34.6171 47.1875 34.8358 46.9375 35.1275C46.7292 35.3775 46.5625 35.6588 46.4375 35.9713C46.3125 36.2838 46.25 36.6067 46.25 36.94C46.25 37.0233 46.25 37.0963 46.25 37.1588C46.25 37.2213 46.25 37.2733 46.25 37.315L46.625 40.2525C46.5 40.2108 46.3854 40.19 46.2812 40.19C46.1771 40.19 46.0833 40.19 46 40.19C45.0417 40.19 44.1354 40.3463 43.2812 40.6588C42.4271 40.9713 41.6667 41.3983 41 41.94V41.19C41 40.3567 40.7083 39.6483 40.125 39.065C39.5417 38.4817 38.8333 38.19 38 38.19C37.1667 38.19 36.4583 38.4817 35.875 39.065C35.2917 39.6483 35 40.3567 35 41.19V53.19C35 54.0233 35.2917 54.7317 35.875 55.315C36.4583 55.8983 37.1667 56.19 38 56.19C38.375 56.19 38.7396 56.1171 39.0938 55.9713C39.4479 55.8254 39.7708 55.6275 40.0625 55.3775C40.3125 55.9192 40.6042 56.4192 40.9375 56.8775C41.2708 57.3358 41.625 57.7733 42 58.19H20C19.7083 58.19 19.4688 58.2838 19.2812 58.4713C19.0938 58.6588 19 58.8983 19 59.19C19 59.4817 19.0938 59.7213 19.2812 59.9088C19.4688 60.0963 19.7083 60.19 20 60.19H45.8125C45.8125 60.19 45.8333 60.19 45.875 60.19C45.9167 60.19 45.9479 60.19 45.9688 60.19C45.9896 60.19 46 60.19 46 60.19C46.5417 60.19 47.0729 60.1379 47.5938 60.0338C48.1146 59.9296 48.6042 59.7733 49.0625 59.565L49 59.6275C49.4583 59.7942 49.9375 59.9296 50.4375 60.0338C50.9375 60.1379 51.4583 60.19 52 60.19C52.9167 60.19 53.8021 59.8983 54.6562 59.315C55.5104 58.7317 56.3125 57.8983 57.0625 56.815C57.1458 56.7317 57.1979 56.6379 57.2188 56.5338C57.2396 56.4296 57.25 56.3358 57.25 56.2525C57.25 55.9608 57.1562 55.7213 56.9688 55.5338C56.7812 55.3463 56.5417 55.2525 56.25 55.2525C56.0833 55.2525 55.9271 55.2838 55.7812 55.3463C55.6354 55.4088 55.5208 55.5233 55.4375 55.69C54.8958 56.4817 54.3229 57.0963 53.7188 57.5338C53.1146 57.9713 52.5417 58.19 52 58.19C51.5417 58.19 51.0938 58.1379 50.6562 58.0338C50.2188 57.9296 49.7917 57.7733 49.375 57.565L49.4375 57.6275C49.3542 57.5858 49.2812 57.5546 49.2188 57.5338C49.1562 57.5129 49.0833 57.5025 49 57.5025C48.9167 57.5025 48.8438 57.5129 48.7812 57.5338C48.7188 57.5546 48.6458 57.5858 48.5625 57.6275C48.1875 57.7942 47.7812 57.9296 47.3438 58.0338C46.9062 58.1379 46.4583 58.19 46 58.19C46 58.19 45.9896 58.19 45.9688 58.19C45.9479 58.19 45.9375 58.19 45.9375 58.19C44.4375 58.1483 43.0729 56.9296 41.8438 54.5338C40.6146 52.1379 40 50.0233 40 48.19C40 46.5233 40.5833 45.1067 41.75 43.94C42.9167 42.7733 44.3333 42.19 46 42.19C46.1667 42.19 46.3229 42.2004 46.4688 42.2213C46.6146 42.2421 46.7708 42.2525 46.9375 42.2525H46.875V42.315C46.9583 42.8567 47.1979 43.3046 47.5938 43.6588C47.9896 44.0129 48.4583 44.19 49 44.19C49.5417 44.19 50.0104 44.0129 50.4062 43.6588C50.8021 43.3046 51.0417 42.8567 51.125 42.315V42.2525C51.25 42.2525 51.3854 42.2421 51.5312 42.2213C51.6771 42.2004 51.8333 42.19 52 42.19C53.6667 42.19 55.0833 42.7733 56.25 43.94C57.4167 45.1067 58 46.5233 58 48.19C57.9583 48.94 57.8646 49.6692 57.7188 50.3775C57.5729 51.0858 57.375 51.7525 57.125 52.3775V52.315C57.125 52.3567 57.1146 52.4088 57.0938 52.4713C57.0729 52.5338 57.0625 52.6067 57.0625 52.69C57.0625 52.9817 57.1562 53.2213 57.3438 53.4088C57.5312 53.5963 57.7708 53.69 58.0625 53.69C58.2708 53.69 58.4688 53.6275 58.6562 53.5025C58.8438 53.3775 58.9583 53.2108 59 53.0025C59.2917 52.2942 59.5208 51.5338 59.6875 50.7213C59.8542 49.9088 59.9583 49.065 60 48.19C60 46.69 59.625 45.3254 58.875 44.0963C58.125 42.8671 57.1458 41.9192 55.9375 41.2525ZM3 30.19C2.70833 30.19 2.46875 30.0963 2.28125 29.9088C2.09375 29.7213 2 29.4817 2 29.19C2 28.8983 2.09375 28.6588 2.28125 28.4713C2.46875 28.2838 2.70833 28.19 3 28.19H12.1875L17.9375 30.19H3ZM56 17.5025C56 17.4192 56.0104 17.3358 56.0312 17.2525C56.0521 17.1692 56.0833 17.0858 56.125 17.0025V16.94C56.375 16.815 56.6042 16.6796 56.8125 16.5338C57.0208 16.3879 57.2292 16.2317 57.4375 16.065C57.6042 16.2317 57.7396 16.44 57.8438 16.69C57.9479 16.94 58 17.2108 58 17.5025C58 17.9192 57.8646 18.3046 57.5938 18.6588C57.3229 19.0129 57 19.2525 56.625 19.3775H56.5625C56.3542 19.4608 56.1875 19.5858 56.0625 19.7525C55.9375 19.9192 55.875 20.1067 55.875 20.315C55.875 20.3567 55.875 20.3983 55.875 20.44C55.875 20.4817 55.8958 20.5233 55.9375 20.565C55.9375 20.6483 55.9479 20.7317 55.9688 20.815C55.9896 20.8983 56 21.0025 56 21.1275C56 21.2108 55.9896 21.2942 55.9688 21.3775C55.9479 21.4608 55.9375 21.5442 55.9375 21.6275V21.565C55.8125 22.0233 55.5729 22.3879 55.2188 22.6588C54.8646 22.9296 54.4583 23.065 54 23.065C53.9167 23.065 53.8229 23.065 53.7188 23.065C53.6146 23.065 53.5208 23.0442 53.4375 23.0025H53.5C53.2917 22.9608 53.0938 22.8775 52.9062 22.7525C52.7188 22.6275 52.5625 22.4817 52.4375 22.315L53.125 20.7525C53.25 20.7108 53.3542 20.6692 53.4375 20.6275C53.5208 20.5858 53.6042 20.5442 53.6875 20.5025C54.2292 20.1692 54.7083 19.7421 55.125 19.2213C55.5417 18.7004 55.8333 18.1275 56 17.5025ZM50.8125 21.1275L48.5625 26.19H42.25L42.5 25.315C42.5 25.315 42.5104 25.2838 42.5312 25.2213C42.5521 25.1588 42.5625 25.1067 42.5625 25.065C42.5625 25.065 42.5521 25.0442 42.5312 25.0025C42.5104 24.9608 42.5 24.9192 42.5 24.8775L40.9375 17.0025C41.0625 16.9608 41.1979 16.9192 41.3438 16.8775C41.4896 16.8358 41.625 16.7733 41.75 16.69L41.6875 16.7525C41.9792 17.0858 42.2917 17.3775 42.625 17.6275C42.9583 17.8775 43.3125 18.0858 43.6875 18.2525H43.75L44.9375 24.315C44.9792 24.5233 45.0833 24.7004 45.25 24.8463C45.4167 24.9921 45.6042 25.065 45.8125 25.065C45.8542 25.065 45.875 25.065 45.875 25.065C45.875 25.065 45.8958 25.065 45.9375 25.065C46.1458 25.065 46.3333 25.0129 46.5 24.9088C46.6667 24.8046 46.7708 24.6692 46.8125 24.5025H46.875L48.75 20.5025C49.0417 20.7108 49.3542 20.8671 49.6875 20.9713C50.0208 21.0754 50.375 21.1275 50.75 21.1275H50.8125ZM46.75 18.5025C46.8333 18.6275 46.9062 18.7421 46.9688 18.8463C47.0312 18.9504 47.1042 19.0442 47.1875 19.1275L46.3125 20.94L45.875 18.6275C46.0417 18.6275 46.1979 18.6171 46.3438 18.5963C46.4896 18.5754 46.6458 18.5442 46.8125 18.5025H46.75ZM38.875 17.0025L39.25 18.815C39.125 18.8567 39 18.8879 38.875 18.9088C38.75 18.9296 38.625 18.94 38.5 18.94C38.4167 18.94 38.3333 18.9296 38.25 18.9088C38.1667 18.8879 38.0833 18.8775 38 18.8775C37.5833 18.7525 37.2396 18.5129 36.9688 18.1588C36.6979 17.8046 36.5625 17.3983 36.5625 16.94C36.5625 16.8567 36.5625 16.7629 36.5625 16.6588C36.5625 16.5546 36.5833 16.4608 36.625 16.3775V16.44C36.625 16.3567 36.6458 16.2838 36.6875 16.2213C36.7292 16.1588 36.75 16.1067 36.75 16.065C37 16.2733 37.2708 16.4504 37.5625 16.5963C37.8542 16.7421 38.1667 16.8567 38.5 16.94H38.5625C38.6042 16.94 38.6562 16.9504 38.7188 16.9713C38.7812 16.9921 38.8333 17.0025 38.875 17.0025ZM37.5 20.815C37.6667 20.8567 37.8333 20.8879 38 20.9088C38.1667 20.9296 38.3542 20.94 38.5625 20.94C38.7292 20.94 38.9167 20.9192 39.125 20.8775C39.3333 20.8358 39.5208 20.7942 39.6875 20.7525H39.625L40.5 25.065L40.1875 26.19H40L37.5 20.815ZM37.8125 26.19H35.8125C35.8542 26.19 35.8958 26.1796 35.9375 26.1588C35.9792 26.1379 36.0208 26.1275 36.0625 26.1275L37.4375 25.315L37.8125 26.19ZM30.9375 12.8775L29.875 13.5025C29.75 13.5858 29.6354 13.7004 29.5312 13.8463C29.4271 13.9921 29.375 14.1692 29.375 14.3775C29.375 14.6275 29.4792 14.8567 29.6875 15.065C29.8958 15.2733 30.125 15.3775 30.375 15.3775C30.5 15.3775 30.6042 15.3567 30.6875 15.315C30.7708 15.2733 30.8542 15.2317 30.9375 15.19H30.875L32.25 14.44L33.5625 17.1275L32.375 17.815C32.25 17.8983 32.1354 18.0129 32.0312 18.1588C31.9271 18.3046 31.875 18.4817 31.875 18.69C31.875 18.94 31.9792 19.1692 32.1875 19.3775C32.3958 19.5858 32.625 19.69 32.875 19.69C33 19.69 33.1042 19.6796 33.1875 19.6588C33.2708 19.6379 33.3542 19.6067 33.4375 19.565H33.375L34.4375 18.94L36.5625 23.5025L35.0625 24.3775C34.8958 24.4608 34.7708 24.5754 34.6875 24.7213C34.6042 24.8671 34.5625 25.0442 34.5625 25.2525C34.5625 25.4608 34.625 25.6483 34.75 25.815C34.875 25.9817 35.0417 26.1067 35.25 26.19H31.75L30.625 24.6275L33.1875 23.1275C33.3125 23.0442 33.4271 22.9296 33.5312 22.7838C33.6354 22.6379 33.6875 22.4608 33.6875 22.2525C33.6875 22.0025 33.5833 21.7733 33.375 21.565C33.1667 21.3567 32.9375 21.2525 32.6875 21.2525C32.6042 21.2525 32.5104 21.2629 32.4062 21.2838C32.3021 21.3046 32.2292 21.3567 32.1875 21.44V21.3775L29.5 22.94L27.8125 20.5025L29.8125 19.315C29.9375 19.2317 30.0521 19.1171 30.1562 18.9713C30.2604 18.8254 30.3125 18.6483 30.3125 18.44C30.3125 18.19 30.2083 17.9608 30 17.7525C29.7917 17.5442 29.5625 17.44 29.3125 17.44C29.2292 17.44 29.1458 17.4504 29.0625 17.4713C28.9792 17.4921 28.8958 17.5233 28.8125 17.565L26.625 18.815L26 17.94C25.7917 17.6483 25.6354 17.3254 25.5312 16.9713C25.4271 16.6171 25.375 16.2525 25.375 15.8775C25.375 14.8775 25.7292 14.0233 26.4375 13.315C27.1458 12.6067 27.9792 12.2525 28.9375 12.2525C29.1458 12.2525 29.3438 12.2733 29.5312 12.315C29.7188 12.3567 29.8958 12.3983 30.0625 12.44C30.2292 12.4817 30.3854 12.5442 30.5312 12.6275C30.6771 12.7108 30.8125 12.7942 30.9375 12.8775ZM21.4375 9.94L22.75 8.6275L24.75 10.69L25.125 11.815C25.0833 11.8567 25.0312 11.9088 24.9688 11.9713C24.9062 12.0338 24.8542 12.0858 24.8125 12.1275L21.4375 9.94ZM15.6875 22.7525C15.9375 22.2108 16.3125 21.7525 16.8125 21.3775C17.3125 21.0025 17.875 20.815 18.5 20.815C18.5417 20.815 18.5625 20.815 18.5625 20.815L18.3125 21.6275C18.1458 22.0025 17.9062 22.3463 17.5938 22.6588C17.2812 22.9713 16.9167 23.19 16.5 23.315L15.625 23.065L15.6875 22.7525ZM18.9375 24.19C19.1875 23.94 19.4167 23.6588 19.625 23.3463C19.8333 23.0338 20 22.69 20.125 22.315H20.1875L20.3125 21.8775C20.3958 21.9608 20.4896 22.0233 20.5938 22.065C20.6979 22.1067 20.8125 22.1275 20.9375 22.1275C21.2292 22.1275 21.4688 22.0338 21.6562 21.8463C21.8438 21.6588 21.9375 21.4192 21.9375 21.1275C21.9375 21.0025 21.9167 20.8879 21.875 20.7838C21.8333 20.6796 21.7708 20.5858 21.6875 20.5025L20.8125 19.6275C21.2708 19.2942 21.7604 19.0129 22.2812 18.7838C22.8021 18.5546 23.3333 18.3983 23.875 18.315H23.9375C24.0208 18.44 24.0938 18.565 24.1562 18.69C24.2188 18.815 24.2917 18.94 24.375 19.065L29.3125 26.19H24.75L18.9375 24.19ZM39 53.19C39 53.4817 38.9062 53.7213 38.7188 53.9088C38.5312 54.0963 38.2917 54.19 38 54.19C37.7083 54.19 37.4688 54.0963 37.2812 53.9088C37.0938 53.7213 37 53.4817 37 53.19V41.19C37 40.8983 37.0938 40.6588 37.2812 40.4713C37.4688 40.2838 37.7083 40.19 38 40.19C38.2917 40.19 38.5312 40.2838 38.7188 40.4713C38.9062 40.6588 39 40.8983 39 41.19V44.315C38.6667 44.8983 38.4167 45.5129 38.25 46.1588C38.0833 46.8046 38 47.4817 38 48.19C38.0417 49.1067 38.1562 49.9921 38.3438 50.8463C38.5312 51.7004 38.7708 52.5233 39.0625 53.315V53.19H39ZM55 38.19H55.8125C55.6042 38.7733 55.25 39.2525 54.75 39.6275C54.25 40.0025 53.6667 40.19 53 40.19H52.1875C52.3958 39.6067 52.75 39.1275 53.25 38.7525C53.75 38.3775 54.3333 38.19 55 38.19ZM48.875 42.065L48.25 37.065C48.25 37.0233 48.25 37.0025 48.25 37.0025C48.25 37.0025 48.25 36.9817 48.25 36.94C48.25 36.7317 48.3229 36.5546 48.4688 36.4088C48.6146 36.2629 48.7917 36.19 49 36.19C49.2083 36.19 49.3854 36.2629 49.5312 36.4088C49.6771 36.5546 49.75 36.7317 49.75 36.94C49.75 36.9817 49.75 37.0025 49.75 37.0025C49.75 37.0025 49.75 37.0233 49.75 37.065L49.125 42.065C49.125 42.1067 49.1146 42.1379 49.0938 42.1588C49.0729 42.1796 49.0417 42.19 49 42.19C48.9583 42.19 48.9271 42.1796 48.9062 42.1588C48.8854 42.1379 48.875 42.1067 48.875 42.065ZM53.375 44.3775C53.3333 44.3358 53.2708 44.3046 53.1875 44.2838C53.1042 44.2629 53.0208 44.2525 52.9375 44.2525C52.6458 44.2525 52.4062 44.3567 52.2188 44.565C52.0312 44.7733 51.9375 45.0025 51.9375 45.2525C51.9375 45.4608 51.9896 45.6379 52.0938 45.7838C52.1979 45.9296 52.3125 46.0442 52.4375 46.1275C52.7708 46.2942 53.0417 46.5025 53.25 46.7525C53.4583 47.0025 53.625 47.2942 53.75 47.6275C53.8333 47.8358 53.9583 48.0025 54.125 48.1275C54.2917 48.2525 54.4792 48.315 54.6875 48.315C54.9792 48.315 55.2188 48.2213 55.4062 48.0338C55.5938 47.8463 55.6875 47.6067 55.6875 47.315C55.6875 47.2317 55.6875 47.1588 55.6875 47.0963C55.6875 47.0338 55.6667 46.9817 55.625 46.94C55.4167 46.3983 55.125 45.9088 54.75 45.4713C54.375 45.0338 53.9375 44.6692 53.4375 44.3775H53.375Z" fill="#EEC044"/>
</svg>
