<svg width="15" height="16" viewBox="0 0 15 16" fill="none" xmlns="http://www.w3.org/2000/svg">
<path d="M13.6719 4.53369C14.0052 5.09619 14.2526 5.67952 14.4141 6.28369C14.5755 6.88786 14.6562 7.52327 14.6562 8.18994C14.6562 8.85661 14.5755 9.49202 14.4141 10.0962C14.2526 10.7004 14.0052 11.2837 13.6719 11.8462C13.3281 12.4191 12.9375 12.9243 12.5 13.3618C12.0625 13.7993 11.5573 14.1899 10.9844 14.5337C10.4219 14.867 9.83854 15.1144 9.23438 15.2759C8.63021 15.4373 7.99479 15.5181 7.32812 15.5181C6.66146 15.5181 6.02604 15.4373 5.42188 15.2759C4.81771 15.1144 4.23438 14.867 3.67188 14.5337C3.09896 14.1899 2.59375 13.7993 2.15625 13.3618C1.71875 12.9243 1.32812 12.4191 0.984375 11.8462C0.661458 11.2837 0.416667 10.7004 0.25 10.0962C0.0833333 9.49202 0 8.85661 0 8.18994C0 7.52327 0.0833333 6.88786 0.25 6.28369C0.416667 5.67952 0.661458 5.09619 0.984375 4.53369C1.31771 3.96077 1.70573 3.45557 2.14844 3.01807C2.59115 2.58057 3.09896 2.18994 3.67188 1.84619C4.23438 1.51286 4.81771 1.26546 5.42188 1.104C6.02604 0.942546 6.66146 0.861816 7.32812 0.861816C7.99479 0.861816 8.63021 0.942546 9.23438 1.104C9.83854 1.26546 10.4219 1.51286 10.9844 1.84619C11.5573 2.18994 12.0625 2.58057 12.5 3.01807C12.9375 3.45557 13.3281 3.96077 13.6719 4.53369ZM5.59375 9.92432L3.85938 8.18994C3.73438 8.05452 3.56771 7.98682 3.35938 7.98682C3.15104 7.98682 2.96354 8.05452 2.79688 8.18994C2.66146 8.32536 2.59375 8.49463 2.59375 8.69775C2.59375 8.90088 2.66146 9.09098 2.79688 9.26807L5.0625 11.5181C5.19792 11.6535 5.36458 11.7212 5.5625 11.7212C5.76042 11.7212 5.92708 11.6535 6.0625 11.5181L11.7969 5.98682C11.9323 5.8514 12 5.68213 12 5.479C12 5.27588 11.9323 5.09098 11.7969 4.92432C11.6615 4.7889 11.4896 4.72119 11.2812 4.72119C11.0729 4.72119 10.8906 4.7889 10.7344 4.92432L5.59375 9.92432Z" fill="#C5CE38"/>
</svg>
