<svg width="64" height="60" viewBox="0 0 64 60" fill="none" xmlns="http://www.w3.org/2000/svg">
<path d="M63.5625 32.815L58.3125 27.565C58.1042 27.3567 57.875 27.2525 57.625 27.2525C57.375 27.2525 57.1667 27.3567 57 27.565C56.7917 27.7317 56.6875 27.9504 56.6875 28.2213C56.6875 28.4921 56.7917 28.7108 57 28.8775L62 33.8775L60 35.8775L48.9375 24.815C49.1458 24.69 49.3333 24.5442 49.5 24.3775C49.6667 24.2108 49.8333 24.0442 50 23.8775C50.1667 23.7108 50.3333 23.5442 50.5 23.3775C50.6667 23.2108 50.8125 23.0233 50.9375 22.815L53.875 25.7525C54.0417 25.9608 54.2604 26.065 54.5312 26.065C54.8021 26.065 55.0208 25.9608 55.1875 25.7525C55.3542 25.5858 55.4375 25.3671 55.4375 25.0963C55.4375 24.8254 55.3542 24.6067 55.1875 24.44L52.0625 21.315C53.6042 18.69 54.2083 15.8254 53.875 12.7213C53.5417 9.61708 52.25 6.94 50 4.69C48.7083 3.44 47.2396 2.47125 45.5938 1.78375C43.9479 1.09625 42.2292 0.752502 40.4375 0.752502C38.6042 0.752502 36.8646 1.09625 35.2188 1.78375C33.5729 2.47125 32.1042 3.44 30.8125 4.69C29.4792 6.02333 28.5 7.52333 27.875 9.19C27.2083 10.8567 26.875 12.5546 26.875 14.2838C26.875 16.0129 27.2083 17.7108 27.875 19.3775C28.5 21.0442 29.4792 22.5442 30.8125 23.8775C32.1458 25.2108 33.6458 26.2108 35.3125 26.8775C36.9792 27.5442 38.6875 27.8775 40.4375 27.8775C41.6458 27.8775 42.8438 27.7108 44.0312 27.3775C45.2188 27.0442 46.3333 26.565 47.375 25.94L58.875 37.44C59.0417 37.6067 59.2188 37.7213 59.4062 37.7838C59.5938 37.8463 59.7917 37.8775 60 37.8775C60.2083 37.8775 60.4062 37.8463 60.5938 37.7838C60.7812 37.7213 60.9583 37.6067 61.125 37.44L63.5625 35.0025C63.8542 34.7108 64 34.3463 64 33.9088C64 33.4713 63.8542 33.1067 63.5625 32.815ZM40.4375 26.0025C38.9375 26.0025 37.4688 25.7108 36.0312 25.1275C34.5938 24.5442 33.2917 23.69 32.125 22.565C29.875 20.2733 28.75 17.5129 28.75 14.2838C28.75 11.0546 29.875 8.315 32.125 6.065C33.25 4.94 34.5208 4.08583 35.9375 3.5025C37.3542 2.91917 38.8542 2.6275 40.4375 2.6275C41.9792 2.6275 43.4583 2.91917 44.875 3.5025C46.2917 4.08583 47.5625 4.94 48.6875 6.065C50.9375 8.315 52.0625 11.0546 52.0625 14.2838C52.0625 17.5129 50.9375 20.2733 48.6875 22.565C47.5208 23.69 46.2188 24.5442 44.7812 25.1275C43.3438 25.7108 41.8958 26.0025 40.4375 26.0025ZM47.4375 7.315C46.4792 6.35667 45.3958 5.6275 44.1875 5.1275C42.9792 4.6275 41.7292 4.3775 40.4375 4.3775C39.1042 4.3775 37.8333 4.6275 36.625 5.1275C35.4167 5.6275 34.3333 6.35667 33.375 7.315C32.4583 8.23167 31.75 9.29417 31.25 10.5025C30.75 11.7108 30.5 12.9817 30.5 14.315C30.5 15.6483 30.75 16.9088 31.25 18.0963C31.75 19.2838 32.4583 20.3567 33.375 21.315C34.375 22.2733 35.4792 22.9921 36.6875 23.4713C37.8958 23.9504 39.1458 24.19 40.4375 24.19C41.6875 24.19 42.9271 23.9504 44.1562 23.4713C45.3854 22.9921 46.4792 22.2733 47.4375 21.315C48.3542 20.3567 49.0625 19.2838 49.5625 18.0963C50.0625 16.9088 50.3125 15.6483 50.3125 14.315C50.3125 12.9817 50.0625 11.7108 49.5625 10.5025C49.0625 9.29417 48.3542 8.23167 47.4375 7.315ZM46.0625 20.0025C45.3125 20.7942 44.4375 21.3775 43.4375 21.7525C42.4375 22.1275 41.4375 22.315 40.4375 22.315C39.3958 22.315 38.375 22.1171 37.375 21.7213C36.375 21.3254 35.5 20.7525 34.75 20.0025C33.9583 19.2108 33.3646 18.3358 32.9688 17.3775C32.5729 16.4192 32.375 15.3983 32.375 14.315C32.375 13.2317 32.5729 12.2004 32.9688 11.2213C33.3646 10.2421 33.9583 9.3775 34.75 8.6275C35.5 7.8775 36.3646 7.29417 37.3438 6.8775C38.3229 6.46083 39.3542 6.2525 40.4375 6.2525C41.4792 6.2525 42.4896 6.46083 43.4688 6.8775C44.4479 7.29417 45.3125 7.8775 46.0625 8.6275C46.8542 9.3775 47.4479 10.2421 47.8438 11.2213C48.2396 12.2004 48.4375 13.2317 48.4375 14.315C48.4375 15.3983 48.2396 16.4192 47.8438 17.3775C47.4479 18.3358 46.8542 19.2108 46.0625 20.0025ZM51.375 41.2525C51.2083 41.4608 51.1458 41.69 51.1875 41.94C51.2292 42.19 51.3542 42.3983 51.5625 42.565C51.7708 42.69 52 42.7421 52.25 42.7213C52.5 42.7004 52.7083 42.5858 52.875 42.3775C52.9167 42.3358 52.9479 42.2942 52.9688 42.2525C52.9896 42.2108 53.0208 42.1692 53.0625 42.1275C54.0208 40.7525 54.3646 39.3775 54.0938 38.0025C53.8229 36.6275 53.25 35.5025 52.375 34.6275C51.5 33.7108 50.375 33.1171 49 32.8463C47.625 32.5754 46.2292 32.94 44.8125 33.94C44.6042 34.1067 44.3854 34.2838 44.1562 34.4713C43.9271 34.6588 43.7083 34.8567 43.5 35.065C42.2083 36.315 41.3333 37.815 40.875 39.565C40.4167 41.315 40.3958 43.065 40.8125 44.815L38.3125 47.315L35.875 44.815C36.2917 43.065 36.2708 41.315 35.8125 39.565C35.3542 37.815 34.4792 36.315 33.1875 35.065C32.9792 34.8567 32.7604 34.6588 32.5312 34.4713C32.3021 34.2838 32.0833 34.1067 31.875 33.94C31.4167 33.6067 30.9688 33.3567 30.5312 33.19C30.0938 33.0233 29.6458 32.9192 29.1875 32.8775C28.1875 31.6275 27.0417 30.5546 25.75 29.6588C24.4583 28.7629 23.0625 28.0858 21.5625 27.6275V24.1275C21.5625 23.8775 21.4688 23.6588 21.2812 23.4713C21.0938 23.2838 20.875 23.19 20.625 23.19C20.375 23.19 20.1562 23.2838 19.9688 23.4713C19.7812 23.6588 19.6875 23.8775 19.6875 24.1275V27.815C19.6875 28.19 19.7917 28.5129 20 28.7838C20.2083 29.0546 20.4792 29.2317 20.8125 29.315C21.9375 29.69 23.0208 30.19 24.0625 30.815C25.1042 31.44 26.0417 32.19 26.875 33.065C26.375 33.2317 25.9062 33.44 25.4688 33.69C25.0312 33.94 24.6458 34.2525 24.3125 34.6275C24.1458 34.7525 24 34.8983 23.875 35.065C23.75 35.2317 23.625 35.4192 23.5 35.6275H7.0625C6.77083 35.6275 6.51042 35.69 6.28125 35.815C6.05208 35.94 5.85417 36.1275 5.6875 36.3775C5.0625 37.3775 4.57292 38.4608 4.21875 39.6275C3.86458 40.7942 3.6875 41.9817 3.6875 43.19C3.6875 44.94 4.02083 46.6067 4.6875 48.19C5.35417 49.7317 6.27083 51.0754 7.4375 52.2213C8.60417 53.3671 9.95833 54.2733 11.5 54.94C13.0417 55.6067 14.6875 55.94 16.4375 55.94C19.4792 55.94 22.1562 54.9921 24.4688 53.0963C26.7812 51.2004 28.25 48.815 28.875 45.94C29.1667 46.065 29.4583 46.1588 29.75 46.2213C30.0417 46.2838 30.3333 46.3358 30.625 46.3775C30.3333 47.7108 29.8542 48.9921 29.1875 50.2213C28.5208 51.4504 27.6667 52.565 26.625 53.565C25.25 54.94 23.6562 55.9921 21.8438 56.7213C20.0312 57.4504 18.1458 57.7942 16.1875 57.7525C14.3125 57.7525 12.5 57.3775 10.75 56.6275C9 55.8775 7.45833 54.815 6.125 53.44C4.79167 52.1067 3.75 50.565 3 48.815C2.25 47.065 1.875 45.2525 1.875 43.3775C1.875 41.7525 2.11458 40.2004 2.59375 38.7213C3.07292 37.2421 3.77083 35.8567 4.6875 34.565C5.60417 33.315 6.69792 32.2421 7.96875 31.3463C9.23958 30.4504 10.6042 29.7733 12.0625 29.315C12.3958 29.2317 12.6667 29.0546 12.875 28.7838C13.0833 28.5129 13.1875 28.19 13.1875 27.815V17.19H19.6875V19.69C19.6875 19.94 19.7812 20.1588 19.9688 20.3463C20.1562 20.5338 20.375 20.6275 20.625 20.6275C20.875 20.6275 21.0938 20.5338 21.2812 20.3463C21.4688 20.1588 21.5625 19.94 21.5625 19.69V17.19H22.375C23 17.19 23.5208 16.9817 23.9375 16.565C24.3542 16.1483 24.5625 15.6275 24.5625 15.0025V12.44C24.5625 11.8567 24.3542 11.3463 23.9375 10.9088C23.5208 10.4713 23 10.2525 22.375 10.2525H10.4375C9.85417 10.2525 9.34375 10.4713 8.90625 10.9088C8.46875 11.3463 8.25 11.8567 8.25 12.44V15.0025C8.25 15.6275 8.46875 16.1483 8.90625 16.565C9.34375 16.9817 9.85417 17.19 10.4375 17.19H11.3125V27.6275C9.6875 28.1275 8.1875 28.8879 6.8125 29.9088C5.4375 30.9296 4.22917 32.1067 3.1875 33.44C2.14583 34.8983 1.35417 36.4713 0.8125 38.1588C0.270833 39.8463 0 41.5858 0 43.3775C0.0416667 45.5025 0.46875 47.5546 1.28125 49.5338C2.09375 51.5129 3.27083 53.2733 4.8125 54.815C6.3125 56.315 8.04167 57.4817 10 58.315C11.9583 59.1483 14.0208 59.5858 16.1875 59.6275C16.2292 59.6275 16.2708 59.6275 16.3125 59.6275C16.3542 59.6275 16.3958 59.6275 16.4375 59.6275C17.6875 59.6275 18.9062 59.4921 20.0938 59.2213C21.2812 58.9504 22.4167 58.565 23.5 58.065H52.125C52.375 58.065 52.5938 57.9713 52.7812 57.7838C52.9688 57.5963 53.0625 57.3775 53.0625 57.1275C53.0625 56.8775 52.9688 56.6588 52.7812 56.4713C52.5938 56.2838 52.375 56.19 52.125 56.19H39.25V49.0025L42.125 46.1275C42.5417 46.2525 42.9583 46.3358 43.375 46.3775C43.7917 46.4192 44.2083 46.44 44.625 46.44C45.4167 46.44 46.1875 46.3567 46.9375 46.19C47.6875 46.0233 48.4167 45.7733 49.125 45.44C49.375 45.315 49.5417 45.1275 49.625 44.8775C49.7083 44.6275 49.6875 44.3983 49.5625 44.19C49.4792 43.94 49.3125 43.7733 49.0625 43.69C48.8125 43.6067 48.5625 43.6275 48.3125 43.7525C47.6042 44.0858 46.8646 44.3254 46.0938 44.4713C45.3229 44.6171 44.5417 44.6483 43.75 44.565L48.25 40.065C48.4167 39.8983 48.5 39.6796 48.5 39.4088C48.5 39.1379 48.4167 38.9192 48.25 38.7525C48.0417 38.5442 47.8125 38.44 47.5625 38.44C47.3125 38.44 47.0833 38.5442 46.875 38.7525L42.4375 43.19C42.3125 41.94 42.4583 40.7213 42.875 39.5338C43.2917 38.3463 43.9583 37.2942 44.875 36.3775C45.0417 36.2108 45.2083 36.0546 45.375 35.9088C45.5417 35.7629 45.7292 35.6067 45.9375 35.44C46.9375 34.7317 47.8958 34.4921 48.8125 34.7213C49.7292 34.9504 50.4792 35.3567 51.0625 35.94C51.6042 36.4817 51.9896 37.2213 52.2188 38.1588C52.4479 39.0963 52.2083 40.065 51.5 41.065C51.5 41.065 51.4896 41.0858 51.4688 41.1275C51.4479 41.1692 51.4167 41.2108 51.375 41.2525ZM10.4375 15.315C10.3542 15.315 10.2812 15.2838 10.2188 15.2213C10.1562 15.1588 10.125 15.0858 10.125 15.0025V12.44C10.125 12.3567 10.1562 12.2838 10.2188 12.2213C10.2812 12.1588 10.3542 12.1275 10.4375 12.1275H22.375C22.4583 12.1275 22.5312 12.1588 22.5938 12.2213C22.6562 12.2838 22.6875 12.3567 22.6875 12.44V15.0025C22.6875 15.0858 22.6562 15.1588 22.5938 15.2213C22.5312 15.2838 22.4583 15.315 22.375 15.315H10.4375ZM7.1875 37.5025H22.6875C22.6042 37.7942 22.5521 38.0963 22.5312 38.4088C22.5104 38.7213 22.5208 39.0442 22.5625 39.3775H6.3125C6.39583 39.0442 6.52083 38.7213 6.6875 38.4088C6.85417 38.0963 7.02083 37.7942 7.1875 37.5025ZM16.4375 54.065C13.4375 54.065 10.875 53.0025 8.75 50.8775C6.625 48.7525 5.5625 46.19 5.5625 43.19C5.5625 42.8567 5.58333 42.5233 5.625 42.19C5.66667 41.8567 5.70833 41.5442 5.75 41.2525H23.125C23.2083 41.3775 23.2917 41.5129 23.375 41.6588C23.4583 41.8046 23.5417 41.9608 23.625 42.1275C23.7917 42.3775 23.9688 42.6067 24.1562 42.815C24.3438 43.0233 24.5417 43.2317 24.75 43.44C25.125 43.7733 25.5104 44.0963 25.9062 44.4088C26.3021 44.7213 26.7083 44.9817 27.125 45.19C26.6667 47.7317 25.4375 49.8463 23.4375 51.5338C21.4375 53.2213 19.1042 54.065 16.4375 54.065ZM26.0625 42.1275C25.8958 41.9608 25.7396 41.7838 25.5938 41.5963C25.4479 41.4088 25.3125 41.2317 25.1875 41.065C24.4792 40.065 24.2396 39.0963 24.4688 38.1588C24.6979 37.2213 25.0833 36.4817 25.625 35.94C25.9583 35.6067 26.375 35.315 26.875 35.065C27.375 34.815 27.9167 34.69 28.5 34.69C28.875 34.69 29.25 34.7525 29.625 34.8775C30 35.0025 30.375 35.19 30.75 35.44C30.9583 35.6067 31.1458 35.7629 31.3125 35.9088C31.4792 36.0546 31.6458 36.2108 31.8125 36.3775C32.7292 37.2942 33.3958 38.3463 33.8125 39.5338C34.2292 40.7213 34.375 41.94 34.25 43.19L29.8125 38.7525C29.6042 38.5442 29.375 38.44 29.125 38.44C28.875 38.44 28.6458 38.5442 28.4375 38.7525C28.2708 38.9192 28.1875 39.1379 28.1875 39.4088C28.1875 39.6796 28.2708 39.8983 28.4375 40.065L32.9375 44.565C31.6875 44.69 30.4583 44.5442 29.25 44.1275C28.0417 43.7108 26.9792 43.0442 26.0625 42.1275ZM37.375 56.19H26.5C26.75 55.9817 27 55.7733 27.25 55.565C27.5 55.3567 27.7292 55.1483 27.9375 54.94C29.1458 53.7733 30.1354 52.4608 30.9062 51.0025C31.6771 49.5442 32.2292 48.0233 32.5625 46.44C32.8958 46.44 33.2292 46.4088 33.5625 46.3463C33.8958 46.2838 34.2292 46.2108 34.5625 46.1275L37.375 49.0025V56.19ZM14.1875 45.94C14.1875 46.19 14.0938 46.4088 13.9062 46.5963C13.7188 46.7838 13.5 46.8775 13.25 46.8775C13 46.8775 12.7812 46.7838 12.5938 46.5963C12.4062 46.4088 12.3125 46.19 12.3125 45.94C12.3125 45.69 12.4062 45.4713 12.5938 45.2838C12.7812 45.0963 13 45.0025 13.25 45.0025C13.5 45.0025 13.7188 45.0963 13.9062 45.2838C14.0938 45.4713 14.1875 45.69 14.1875 45.94ZM18.5625 50.065C18.5625 50.315 18.4688 50.5338 18.2812 50.7213C18.0938 50.9088 17.875 51.0025 17.625 51.0025C17.375 51.0025 17.1562 50.9088 16.9688 50.7213C16.7812 50.5338 16.6875 50.315 16.6875 50.065C16.6875 49.815 16.7812 49.5963 16.9688 49.4088C17.1562 49.2213 17.375 49.1275 17.625 49.1275C17.875 49.1275 18.0938 49.2213 18.2812 49.4088C18.4688 49.5963 18.5625 49.815 18.5625 50.065ZM20.3125 44.065C20.3125 44.315 20.2188 44.5338 20.0312 44.7213C19.8438 44.9088 19.625 45.0025 19.375 45.0025C19.125 45.0025 18.9062 44.9088 18.7188 44.7213C18.5312 44.5338 18.4375 44.315 18.4375 44.065C18.4375 43.815 18.5312 43.5963 18.7188 43.4088C18.9062 43.2213 19.125 43.1275 19.375 43.1275C19.625 43.1275 19.8438 43.2213 20.0312 43.4088C20.2188 43.5963 20.3125 43.815 20.3125 44.065Z" fill="#EEC044"/>
</svg>
