<svg width="62" height="63" viewBox="0 0 62 63" fill="none" xmlns="http://www.w3.org/2000/svg">
<path d="M25 24.78C25.8333 24.78 26.5417 24.4884 27.125 23.905C27.7083 23.3217 28 22.6134 28 21.78V20.78H26V21.78C26 22.0717 25.9062 22.3113 25.7188 22.4988C25.5312 22.6863 25.2917 22.78 25 22.78C24.7083 22.78 24.4688 22.6863 24.2812 22.4988C24.0938 22.3113 24 22.0717 24 21.78V20.78H22V21.78C22 22.6134 22.2917 23.3217 22.875 23.905C23.4583 24.4884 24.1667 24.78 25 24.78ZM62 52.78V37.78C62 35.8634 61.3125 34.2175 59.9375 32.8425C58.5625 31.4675 56.9167 30.78 55 30.78H51C49.625 30.78 48.3646 31.155 47.2188 31.905C46.0729 32.655 45.2292 33.6134 44.6875 34.78H34V34.3425L37.3125 32.3425C37.7292 32.1342 38.1146 31.8842 38.4688 31.5925C38.8229 31.3009 39.1667 31.0092 39.5 30.7175L40.875 32.03C41.0833 32.28 41.3438 32.4675 41.6562 32.5925C41.9688 32.7175 42.2917 32.78 42.625 32.78C43.2917 32.78 43.8542 32.5509 44.3125 32.0925C44.7708 31.6342 45.0208 31.0717 45.0625 30.405L46 3.78003C46 2.9467 45.7083 2.23836 45.125 1.65503C44.5417 1.0717 43.8333 0.780029 43 0.780029L16.375 1.71753C15.7083 1.7592 15.1458 2.0092 14.6875 2.46753C14.2292 2.92586 14 3.48836 14 4.15503C14 4.48836 14.0625 4.81128 14.1875 5.12378C14.3125 5.43628 14.4792 5.6967 14.6875 5.90503L16.625 7.84253C15.8333 8.3842 15.1979 9.09253 14.7188 9.96753C14.2396 10.8425 14 11.78 14 12.78C14 14.0717 14.375 15.2279 15.125 16.2488C15.875 17.2696 16.8333 17.9884 18 18.405V19.155C18 20.2384 17.8438 21.3009 17.5312 22.3425C17.2188 23.3842 16.7708 24.3425 16.1875 25.2175L15.6875 25.905L18 28.2175V32.9675C18 33.3009 18.0417 33.6238 18.125 33.9363C18.2083 34.2488 18.3333 34.53 18.5 34.78H14.875C14.6667 33.655 14.1042 32.7071 13.1875 31.9363C12.2708 31.1654 11.2083 30.78 10 30.78C8.79167 30.78 7.72917 31.1654 6.8125 31.9363C5.89583 32.7071 5.33333 33.655 5.125 34.78H2C1.45833 34.78 0.989583 34.9779 0.59375 35.3738C0.197917 35.7696 0 36.2384 0 36.78V38.78C0 39.3217 0.197917 39.7904 0.59375 40.1863C0.989583 40.5821 1.45833 40.78 2 40.78H6V49.655C6 51.905 6.79167 53.8217 8.375 55.405C9.95833 56.9884 11.875 57.78 14.125 57.78C14.4583 57.78 14.7917 57.7592 15.125 57.7175C15.4583 57.6759 15.7708 57.6134 16.0625 57.53L18 57.03V60.78H0V62.78H62V60.78H40V48.4675C40 47.0509 39.75 45.6759 39.25 44.3425C38.75 43.0092 38.0625 41.8217 37.1875 40.78H44V52.78H62ZM46 37.78C46 36.405 46.4896 35.2279 47.4688 34.2488C48.4479 33.2696 49.625 32.78 51 32.78H55C56.375 32.78 57.5521 33.2696 58.5312 34.2488C59.5104 35.2279 60 36.405 60 37.78V50.78H50V40.78H48V50.78H46V37.78ZM36.3125 30.655L34 32.03V29.405L35.75 28.53C35.9167 28.4467 36.0833 28.3529 36.25 28.2488C36.4167 28.1446 36.5625 28.03 36.6875 27.905L38.0625 29.28C37.8125 29.53 37.5312 29.7696 37.2188 29.9988C36.9062 30.2279 36.6042 30.4467 36.3125 30.655ZM43.1875 3.59253L35.0625 23.405L23.375 11.7175L43.1875 3.59253ZM42.3125 30.655L36.625 24.9675L43.875 7.15503L43.0625 30.3425C43.0625 30.5092 42.9688 30.6342 42.7812 30.7175C42.5938 30.8009 42.4375 30.78 42.3125 30.655ZM16 4.15503C16 4.03003 16.0417 3.92586 16.125 3.84253C16.2083 3.7592 16.3125 3.71753 16.4375 3.71753L39.625 2.90503L21.8125 10.155L16.125 4.46753C16.0833 4.42586 16.0521 4.3842 16.0312 4.34253C16.0104 4.30086 16 4.23836 16 4.15503ZM16 12.78C16 12.03 16.1875 11.3425 16.5625 10.7175C16.9375 10.0925 17.4375 9.61336 18.0625 9.28003L25.5625 16.78H20C18.9167 16.78 17.9792 16.3842 17.1875 15.5925C16.3958 14.8009 16 13.8634 16 12.78ZM20 19.155V18.78H27.5625L35.25 26.4675C35.2083 26.5092 35.1458 26.5509 35.0625 26.5925C34.9792 26.6342 34.9167 26.6759 34.875 26.7175L32 28.155V37.9675C30.9167 38.1759 29.875 38.4779 28.875 38.8738C27.875 39.2696 26.9167 39.7592 26 40.3425V36.2175L26.9375 36.0925C27.7708 35.9675 28.5417 35.655 29.25 35.155C29.9583 34.655 30.5 34.0092 30.875 33.2175L29.125 32.3425C28.875 32.8009 28.5312 33.1863 28.0938 33.4988C27.6562 33.8113 27.1667 34.0092 26.625 34.0925L22.0625 34.78C21.5208 34.8217 21.0417 34.6654 20.625 34.3113C20.2083 33.9571 20 33.5092 20 32.9675V32.78H22C23.0833 32.78 24.0208 32.3842 24.8125 31.5925C25.6042 30.8009 26 29.8634 26 28.78H24C24 29.3217 23.8021 29.7904 23.4062 30.1863C23.0104 30.5821 22.5417 30.78 22 30.78H20V27.3425L18.25 25.655C18.8333 24.655 19.2708 23.6134 19.5625 22.53C19.8542 21.4467 20 20.3217 20 19.155ZM20.5625 50.78H24V51.78C24 52.8634 23.6042 53.8009 22.8125 54.5925C22.0208 55.3842 21.0833 55.78 20 55.78V54.905C20 54.1967 20.0521 53.4988 20.1562 52.8113C20.2604 52.1238 20.3958 51.4467 20.5625 50.78ZM14.9375 36.78H21.8125C21.8958 36.78 21.9792 36.78 22.0625 36.78C22.1458 36.78 22.2292 36.7592 22.3125 36.7175L24 36.53V38.78H14.375L14.625 38.03C14.7083 37.8217 14.7708 37.6134 14.8125 37.405C14.8542 37.1967 14.8958 36.9884 14.9375 36.78ZM14.1875 40.78H24V41.8425C23.9167 41.9675 23.8229 42.0717 23.7188 42.155C23.6146 42.2384 23.5 42.3217 23.375 42.405L15.0625 46.2175L14.1875 40.78ZM20.5625 45.905C20.3542 46.2384 20.1667 46.5821 20 46.9363C19.8333 47.2904 19.6667 47.6342 19.5 47.9675L18.75 46.7175L20.5625 45.905ZM2 36.78H5.0625C5.10417 36.9884 5.14583 37.1967 5.1875 37.405C5.22917 37.6134 5.29167 37.8217 5.375 38.03L5.625 38.78H2V36.78ZM15.625 55.5925C15.375 55.6759 15.125 55.7279 14.875 55.7488C14.625 55.7696 14.375 55.78 14.125 55.78C12.4167 55.78 10.9688 55.1863 9.78125 53.9988C8.59375 52.8113 8 51.3634 8 49.655V39.5925L7.25 37.405C7.16667 37.155 7.10417 36.8946 7.0625 36.6238C7.02083 36.3529 7 36.0717 7 35.78C7 34.9467 7.29167 34.2384 7.875 33.655C8.45833 33.0717 9.16667 32.78 10 32.78C10.8333 32.78 11.5417 33.0717 12.125 33.655C12.7083 34.2384 13 34.9467 13 35.78C13 36.0717 12.9792 36.3529 12.9375 36.6238C12.8958 36.8946 12.8333 37.155 12.75 37.405L12 39.7175L14 51.9675L16 51.5925L15.4375 48.2175L16.875 47.53L18.625 50.405C18.4167 51.1134 18.2604 51.8529 18.1562 52.6238C18.0521 53.3946 18 54.155 18 54.905V55.03L15.625 55.5925ZM32 52.78H38V54.78H32V52.78ZM32 60.78V56.78H38V60.78H32ZM38 50.78H32V46.78H30V60.78H20V57.78C21.6667 57.78 23.0833 57.1967 24.25 56.03C25.4167 54.8634 26 53.4467 26 51.78V48.78H21.3125C22.3542 46.4884 23.8854 44.53 25.9062 42.905C27.9271 41.28 30.2292 40.2592 32.8125 39.8425C34.4375 40.6759 35.7083 41.8738 36.625 43.4363C37.5417 44.9988 38 46.6759 38 48.4675V50.78ZM34.9375 38.78C34.8125 38.655 34.6667 38.5509 34.5 38.4675C34.3333 38.3842 34.1667 38.28 34 38.155V36.78H44.0625C44.0625 36.9467 44.0521 37.1134 44.0312 37.28C44.0104 37.4467 44 37.6134 44 37.78V38.78H34.9375ZM53 40.78C53.8333 40.78 54.5417 40.4884 55.125 39.905C55.7083 39.3217 56 38.6134 56 37.78C56 36.9467 55.7083 36.2384 55.125 35.655C54.5417 35.0717 53.8333 34.78 53 34.78C52.1667 34.78 51.4583 35.0717 50.875 35.655C50.2917 36.2384 50 36.9467 50 37.78C50 38.6134 50.2917 39.3217 50.875 39.905C51.4583 40.4884 52.1667 40.78 53 40.78ZM53 36.78C53.2917 36.78 53.5312 36.8738 53.7188 37.0613C53.9062 37.2488 54 37.4884 54 37.78C54 38.0717 53.9062 38.3113 53.7188 38.4988C53.5312 38.6863 53.2917 38.78 53 38.78C52.7083 38.78 52.4688 38.6863 52.2812 38.4988C52.0938 38.3113 52 38.0717 52 37.78C52 37.4884 52.0938 37.2488 52.2812 37.0613C52.4688 36.8738 52.7083 36.78 53 36.78Z" fill="#C5CE38"/>
</svg>
