<svg width="13" height="13" viewBox="0 0 13 13" fill="none" xmlns="http://www.w3.org/2000/svg">
<path d="M5.83496 1.66211L6.46387 1.06055C6.59147 0.932943 6.74642 0.869141 6.92871 0.869141C7.111 0.869141 7.26595 0.932943 7.39355 1.06055L12.6982 6.36523C12.8258 6.49284 12.8896 6.64779 12.8896 6.83008C12.8896 7.01237 12.8258 7.16732 12.6982 7.29492L7.39355 12.5996C7.26595 12.7272 7.111 12.791 6.92871 12.791C6.74642 12.791 6.59147 12.7272 6.46387 12.5996L5.83496 11.998C5.70736 11.8704 5.64355 11.7155 5.64355 11.5332C5.66178 11.3509 5.7347 11.196 5.8623 11.0684L9.14355 7.92383H1.2959C1.11361 7.92383 0.958659 7.86003 0.831055 7.73242C0.703451 7.60482 0.639648 7.44987 0.639648 7.26758V6.39258C0.639648 6.21029 0.703451 6.05534 0.831055 5.92773C0.958659 5.80013 1.11361 5.73633 1.2959 5.73633H9.14355L5.8623 2.5918C5.7347 2.46419 5.66178 2.30924 5.64355 2.12695C5.64355 1.94466 5.70736 1.78971 5.83496 1.66211Z" fill="#FCFCFC"/>
</svg>
