<svg width="58" height="59" viewBox="0 0 58 59" fill="none" xmlns="http://www.w3.org/2000/svg">
<rect y="0.170166" width="58" height="58" rx="29" fill="#F7C35F"/>
<path d="M28.1188 23.2639L28.8375 22.5764C28.9833 22.4306 29.1604 22.3577 29.3688 22.3577C29.5771 22.3577 29.7542 22.4306 29.9 22.5764L35.9625 28.6389C36.1083 28.7847 36.1813 28.9618 36.1813 29.1702C36.1813 29.3785 36.1083 29.5556 35.9625 29.7014L29.9 35.7639C29.7542 35.9097 29.5771 35.9827 29.3688 35.9827C29.1604 35.9827 28.9833 35.9097 28.8375 35.7639L28.1188 35.0764C27.9729 34.9306 27.9 34.7535 27.9 34.5452C27.9208 34.3368 28.0042 34.1597 28.15 34.0139L31.9 30.4202H22.9313C22.7229 30.4202 22.5458 30.3472 22.4 30.2014C22.2542 30.0556 22.1813 29.8785 22.1813 29.6702V28.6702C22.1813 28.4618 22.2542 28.2847 22.4 28.1389C22.5458 27.9931 22.7229 27.9202 22.9313 27.9202H31.9L28.15 24.3264C28.0042 24.1806 27.9208 24.0035 27.9 23.7952C27.9 23.5868 27.9729 23.4097 28.1188 23.2639Z" fill="#04000B"/>
</svg>
