<svg width="18" height="18" viewBox="0 0 18 18" fill="none" xmlns="http://www.w3.org/2000/svg">
<path d="M16.0545 0.314453C16.3423 0.159505 16.6189 0.181641 16.8846 0.380859C17.1723 0.557943 17.2941 0.8125 17.2498 1.14453L14.8592 15.4883C14.8149 15.7318 14.671 15.9199 14.4275 16.0527C14.2062 16.1855 13.9848 16.1966 13.7635 16.0859L9.61309 14.3594L7.48809 16.916C7.26673 17.2038 6.97897 17.2812 6.62481 17.1484C6.27064 17.0378 6.09356 16.7943 6.09356 16.418V13.7285L14.0955 4C14.1619 3.88932 14.1508 3.80078 14.0623 3.73438C13.9738 3.64583 13.8852 3.63477 13.7967 3.70117L4.26738 12.1016L0.747852 10.6406C0.437956 10.5078 0.271941 10.2754 0.249805 9.94336C0.22767 9.61133 0.360483 9.36784 0.648243 9.21289L16.0545 0.314453Z" fill="#04000B"/>
</svg>
