<svg width="49" height="49" viewBox="0 0 49 49" fill="none" xmlns="http://www.w3.org/2000/svg">
<path d="M7.27539 31.8484C7.60091 32.1739 7.96712 32.4262 8.37402 32.6052C8.78092 32.7843 9.22852 32.8738 9.7168 32.8738H10.5957C11.084 32.8738 11.5316 32.7843 11.9385 32.6052C12.3454 32.4262 12.7116 32.1739 13.0371 31.8484C13.3626 31.5229 13.6149 31.1567 13.7939 30.7498C13.973 30.3429 14.0625 29.8953 14.0625 29.407C14.0625 28.6908 13.9811 27.9828 13.8184 27.283C13.6556 26.5831 13.4115 25.9076 13.0859 25.2566L10.8398 20.8132C10.7096 20.5528 10.4818 20.4226 10.1562 20.4226C9.83073 20.4226 9.60286 20.5528 9.47266 20.8132L7.22656 25.2566C6.90104 25.9076 6.6569 26.5831 6.49414 27.283C6.33138 27.9828 6.25 28.6908 6.25 29.407C6.25 29.8953 6.33952 30.3429 6.51855 30.7498C6.69759 31.1567 6.94987 31.5229 7.27539 31.8484ZM8.64258 25.9402L10.1562 22.9128L11.6699 25.9402C11.9303 26.4936 12.1338 27.0632 12.2803 27.6492C12.4268 28.2351 12.5 28.821 12.5 29.407C12.5 29.6674 12.4512 29.9115 12.3535 30.1394C12.2559 30.3673 12.1257 30.5789 11.9629 30.7742C11.7676 30.9369 11.556 31.0671 11.3281 31.1648C11.1003 31.2625 10.8561 31.3113 10.5957 31.3113H9.7168C9.45638 31.3113 9.21224 31.2625 8.98438 31.1648C8.75651 31.0671 8.54492 30.9369 8.34961 30.7742C8.18685 30.5789 8.05664 30.3673 7.95898 30.1394C7.86133 29.9115 7.8125 29.6674 7.8125 29.407C7.8125 28.821 7.88574 28.2351 8.03223 27.6492C8.17871 27.0632 8.38216 26.4936 8.64258 25.9402ZM34.375 32.8738H35.9375V40.6863H34.375V32.8738ZM34.375 42.2488H35.9375V43.8113H34.375V42.2488ZM46.0938 40.6863H39.0625V21.155C39.0625 20.9272 38.9893 20.74 38.8428 20.5935C38.6963 20.447 38.5091 20.3738 38.2812 20.3738H26.5625V8.65503C26.5625 8.55737 26.5462 8.45972 26.5137 8.36206C26.4811 8.2644 26.416 8.18303 26.3184 8.11792L23.4375 5.18823V0.842529C23.4375 0.614666 23.3643 0.42749 23.2178 0.281006C23.0713 0.134521 22.8841 0.0612793 22.6562 0.0612793H3.90625C3.67839 0.0612793 3.49121 0.134521 3.34473 0.281006C3.19824 0.42749 3.125 0.614666 3.125 0.842529V5.18823L0.244141 8.11792C0.146484 8.18303 0.0813802 8.2644 0.0488281 8.36206C0.016276 8.45972 0 8.55737 0 8.65503V44.5925C0 44.8204 0.0732422 45.0076 0.219727 45.1541C0.366211 45.3005 0.553385 45.3738 0.78125 45.3738H21.9727C22.1354 46.2527 22.5749 46.9932 23.291 47.5955C24.0072 48.1977 24.8372 48.4988 25.7812 48.4988H41.4062C42.0573 48.4988 42.6107 48.2709 43.0664 47.8152C43.5221 47.3595 43.75 46.8061 43.75 46.155C43.75 45.9272 43.8232 45.74 43.9697 45.5935C44.1162 45.447 44.3034 45.3738 44.5312 45.3738H46.0938C46.7448 45.3738 47.2982 45.1459 47.7539 44.6902C48.2096 44.2345 48.4375 43.6811 48.4375 43.03C48.4375 42.379 48.2096 41.8256 47.7539 41.3699C47.2982 40.9141 46.7448 40.6863 46.0938 40.6863ZM37.5 28.7722C37.207 28.5769 36.9059 28.4304 36.5967 28.3328C36.2874 28.2351 35.9538 28.1863 35.5957 28.1863H34.7168C34.2285 28.1863 33.7809 28.2758 33.374 28.4548C32.9671 28.6339 32.6009 28.8861 32.2754 29.2117C32.0801 29.3744 31.8685 29.5046 31.6406 29.6023C31.4128 29.7 31.1686 29.7488 30.9082 29.7488H30.0293C29.7689 29.7488 29.5247 29.7 29.2969 29.6023C29.069 29.5046 28.8574 29.3744 28.6621 29.2117C28.3366 28.8861 27.9704 28.6339 27.5635 28.4548C27.1566 28.2758 26.709 28.1863 26.2207 28.1863H25.3418C24.9837 28.1863 24.6501 28.2351 24.3408 28.3328C24.0316 28.4304 23.7305 28.5769 23.4375 28.7722V21.9363H37.5V28.7722ZM25 20.3738H22.6562C22.4284 20.3738 22.2412 20.447 22.0947 20.5935C21.9482 20.74 21.875 20.9272 21.875 21.155V43.8113H20.3125V8.99683L22.6562 6.65308L25 8.99683V20.3738ZM4.24805 6.31128H20.752L19.1895 7.87378H2.68555L4.24805 6.31128ZM18.75 9.43628V15.6863H1.5625V9.43628H18.75ZM18.75 17.2488V35.9988H1.5625V17.2488H18.75ZM4.6875 1.62378H21.875V4.74878H4.6875V1.62378ZM1.5625 43.8113V37.5613H18.75V43.8113H1.5625ZM25.7812 46.9363C25.1302 46.9363 24.5768 46.7084 24.1211 46.2527C23.6654 45.797 23.4375 45.2436 23.4375 44.5925V30.8718L23.9746 30.2859C24.1699 30.1231 24.3815 29.9929 24.6094 29.8953C24.8372 29.7976 25.0814 29.7488 25.3418 29.7488H26.2207C26.4811 29.7488 26.7253 29.7976 26.9531 29.8953C27.181 29.9929 27.3926 30.1231 27.5879 30.2859C27.9134 30.6114 28.2796 30.8637 28.6865 31.0427C29.0934 31.2218 29.541 31.3113 30.0293 31.3113H30.9082C31.3965 31.3113 31.8441 31.2218 32.251 31.0427C32.6579 30.8637 33.0241 30.6114 33.3496 30.2859C33.5449 30.1231 33.7565 29.9929 33.9844 29.8953C34.2122 29.7976 34.4564 29.7488 34.7168 29.7488H35.5957C35.8561 29.7488 36.1003 29.7976 36.3281 29.8953C36.556 29.9929 36.7676 30.1231 36.9629 30.2859L37.5 30.8718V44.5925C37.5 45.2436 37.2721 45.797 36.8164 46.2527C36.3607 46.7084 35.8073 46.9363 35.1562 46.9363H25.7812ZM46.0938 43.8113H44.5312C43.8802 43.8113 43.3268 44.0391 42.8711 44.4949C42.4154 44.9506 42.1875 45.504 42.1875 46.155C42.1875 46.3829 42.1143 46.5701 41.9678 46.7166C41.8213 46.863 41.6341 46.9363 41.4062 46.9363H38.2812C38.5091 46.6108 38.6963 46.2527 38.8428 45.8621C38.9893 45.4714 39.0625 45.0483 39.0625 44.5925V42.2488H46.0938C46.3216 42.2488 46.5088 42.322 46.6553 42.4685C46.8018 42.615 46.875 42.8022 46.875 43.03C46.875 43.2579 46.8018 43.4451 46.6553 43.5916C46.5088 43.738 46.3216 43.8113 46.0938 43.8113Z" fill="white"/>
</svg>
