<svg width="42" height="51" viewBox="0 0 42 51" fill="none" xmlns="http://www.w3.org/2000/svg">
<path d="M40.918 48.7175C40.2018 48.1967 39.4368 47.741 38.623 47.3503C37.8092 46.9597 36.9954 46.6179 36.1816 46.325C34.6842 45.739 32.6986 45.1694 30.2246 44.616C27.7507 44.0626 24.8047 43.7696 21.3867 43.7371C21.4518 43.2488 21.5576 42.6791 21.7041 42.0281C21.8506 41.377 22.0703 40.6609 22.3633 39.8796C22.6888 39.1309 23.055 38.4229 23.4619 37.7556C23.8688 37.0883 24.3327 36.4454 24.8535 35.8269C25.1139 35.9246 25.5371 36.0548 26.123 36.2175C26.709 36.3803 27.4251 36.4617 28.2715 36.4617C29.0202 36.4617 29.8421 36.3477 30.7373 36.1199C31.6325 35.892 32.5521 35.4526 33.4961 34.8015C35.7422 33.2716 36.9954 31.5789 37.2559 29.7234C37.5163 27.8679 37.6465 26.8751 37.6465 26.7449C37.6465 26.6147 37.6058 26.5007 37.5244 26.4031C37.443 26.3054 37.3372 26.224 37.207 26.1589C37.1745 26.1589 37.0117 26.0938 36.7188 25.9636C36.4258 25.8334 36.0352 25.7195 35.5469 25.6218C35.9375 24.9708 36.2793 24.3035 36.5723 23.6199C36.8652 22.9363 37.1094 22.2201 37.3047 21.4714C37.4349 21.0157 37.264 20.7309 36.792 20.6169C36.32 20.503 36.0189 20.6739 35.8887 21.1296C35.6934 21.9109 35.4248 22.6596 35.083 23.3757C34.7412 24.0919 34.3424 24.7755 33.8867 25.4265C33.1055 25.4265 32.2266 25.5404 31.25 25.7683C30.2734 25.9962 29.2806 26.4682 28.2715 27.1843C27.5228 27.7052 26.8962 28.2748 26.3916 28.8933C25.887 29.5118 25.4883 30.1303 25.1953 30.7488C24.5443 30.8139 23.9502 30.8383 23.4131 30.822C22.876 30.8057 22.4284 30.7813 22.0703 30.7488C22.4284 30.2279 22.9329 29.5769 23.584 28.7957C24.235 27.9819 24.9919 27.1274 25.8545 26.2322C26.7171 25.337 27.653 24.45 28.6621 23.571C29.6712 22.7247 30.7129 21.976 31.7871 21.325C32.2103 21.0971 32.2998 20.7716 32.0557 20.3484C31.8115 19.9252 31.4779 19.8276 31.0547 20.0554C28.9388 21.2924 27.0101 22.8468 25.2686 24.7185C23.527 26.5903 22.2168 28.1121 21.3379 29.2839C21.2728 28.1446 21.4437 26.6635 21.8506 24.8406C22.2575 23.0177 23.3073 21.2761 25 19.616C26.0742 18.5092 27.2624 17.6384 28.5645 17.0037C29.8665 16.3689 31.25 15.9701 32.7148 15.8074C33.4961 15.7423 34.1797 15.7341 34.7656 15.783C35.3516 15.8318 35.8073 15.8725 36.1328 15.905C36.1654 16.1003 36.1979 16.3526 36.2305 16.6619C36.263 16.9711 36.2793 17.321 36.2793 17.7117C36.2793 18.1674 36.5234 18.3953 37.0117 18.3953C37.5 18.3953 37.7441 18.1511 37.7441 17.6628C37.7441 16.9141 37.6953 16.3119 37.5977 15.8562C37.5 15.4005 37.4512 15.1563 37.4512 15.1238C37.4186 14.9936 37.3535 14.8878 37.2559 14.8064C37.1582 14.725 37.0605 14.6518 36.9629 14.5867C36.8978 14.5867 36.4665 14.5216 35.6689 14.3914C34.8714 14.2612 33.8542 14.2449 32.6172 14.3425C31.4779 14.4727 30.127 14.8308 28.5645 15.4167C27.002 16.0027 25.4557 17.0606 23.9258 18.5906C23.7956 18.7208 23.6735 18.8429 23.5596 18.9568C23.4456 19.0707 23.3398 19.1928 23.2422 19.323C23.4375 18.7045 23.6491 18.0535 23.877 17.3699C24.1048 16.6863 24.3327 16.0027 24.5605 15.3191C25.2116 15.1238 26.1963 14.6111 27.5146 13.781C28.833 12.9509 29.8503 11.5105 30.5664 9.45972C31.4453 6.8881 31.4453 4.78035 30.5664 3.13647C29.6875 1.4926 29.2155 0.621826 29.1504 0.52417C29.0527 0.426514 28.9469 0.361408 28.833 0.328857C28.7191 0.296307 28.597 0.280029 28.4668 0.280029C28.3691 0.31258 27.4658 0.695068 25.7568 1.42749C24.0479 2.15991 22.7376 3.82821 21.8262 6.43237C21.0775 8.58081 21.0205 10.4363 21.6553 11.9988C22.29 13.5613 22.7702 14.5541 23.0957 14.9773C22.9004 15.6283 22.6969 16.2712 22.4854 16.906C22.2738 17.5408 22.0703 18.1511 21.875 18.7371C21.7448 17.7605 21.46 16.7026 21.0205 15.5632C20.5811 14.4239 19.9219 13.3009 19.043 12.1941C17.7083 10.5014 16.3005 9.27254 14.8193 8.50757C13.3382 7.7426 12.0443 7.2299 10.9375 6.96948C9.70052 6.70906 8.68327 6.60327 7.88574 6.6521C7.08822 6.70093 6.67318 6.72534 6.64062 6.72534C6.51042 6.75789 6.38835 6.81486 6.27441 6.89624C6.16048 6.97762 6.08724 7.06714 6.05469 7.16479C6.05469 7.19735 5.96517 7.50659 5.78613 8.09253C5.6071 8.67847 5.46875 9.44344 5.37109 10.3875C5.33854 10.8757 5.56641 11.1362 6.05469 11.1687C6.54297 11.2013 6.80339 10.9897 6.83594 10.5339C6.86849 9.98055 6.93359 9.50041 7.03125 9.09351C7.12891 8.6866 7.21029 8.36922 7.27539 8.14136C7.60091 8.10881 8.05664 8.10881 8.64258 8.14136C9.22852 8.17391 9.89583 8.27156 10.6445 8.43433C12.1094 8.75985 13.444 9.31323 14.6484 10.0945C15.8529 10.8757 16.9434 11.8848 17.9199 13.1218C18.7988 14.2612 19.4661 15.4981 19.9219 16.8328C20.3776 18.1674 20.5892 19.5834 20.5566 21.0808C20.5566 21.5691 20.5322 22.0167 20.4834 22.4236C20.4346 22.8305 20.3776 23.1967 20.3125 23.5222C18.8802 20.8204 17.3503 18.5499 15.7227 16.7107C14.0951 14.8715 13.2324 13.9031 13.1348 13.8054C12.8092 13.4799 12.4756 13.488 12.1338 13.8298C11.792 14.1716 11.7839 14.5053 12.1094 14.8308C12.1094 14.8634 12.9395 15.8155 14.5996 17.6873C16.2598 19.559 17.7897 21.8295 19.1895 24.4988C18.8639 24.4988 18.4896 24.4744 18.0664 24.4255C17.6432 24.3767 17.1875 24.3035 16.6992 24.2058C15.2669 23.8803 13.9567 23.3432 12.7686 22.5945C11.5804 21.8458 10.5143 20.8692 9.57031 19.6648C8.91927 18.851 8.38216 17.9884 7.95898 17.0769C7.53581 16.1654 7.22656 15.2214 7.03125 14.2449C6.93359 13.7566 6.64876 13.5613 6.17676 13.6589C5.70475 13.7566 5.51758 14.0496 5.61523 14.5378C5.8431 15.6121 6.19303 16.6619 6.66504 17.6873C7.13704 18.7126 7.73112 19.6811 8.44727 20.5925C9.74935 22.2527 11.1328 23.449 12.5977 24.1814C14.0625 24.9138 15.3483 25.4102 16.4551 25.6707C17.0085 25.7683 17.57 25.8497 18.1396 25.9148C18.7093 25.9799 19.2871 25.9962 19.873 25.9636V38.3171C19.7428 38.0567 19.6208 37.8126 19.5068 37.5847C19.3929 37.3569 19.2708 37.1453 19.1406 36.95C19.1732 36.5268 19.0592 35.2735 18.7988 33.1902C18.5384 31.1069 17.2363 29.1375 14.8926 27.282C12.3535 25.2638 9.98535 24.4337 7.78809 24.7917C5.59082 25.1498 4.42708 25.3451 4.29688 25.3777C4.19922 25.4428 4.1097 25.5242 4.02832 25.6218C3.94694 25.7195 3.88997 25.8334 3.85742 25.9636C3.82487 26.0613 3.89811 27.225 4.07715 29.4548C4.25619 31.6847 5.63151 33.8087 8.20312 35.8269C9.375 36.7709 10.5632 37.4057 11.7676 37.7312C12.972 38.0567 14.0625 38.2195 15.0391 38.2195C15.6576 38.2195 16.2272 38.1788 16.748 38.0974C17.2689 38.016 17.6758 37.9265 17.9688 37.8289C18.4896 38.7403 18.9046 39.6843 19.2139 40.6609C19.5231 41.6375 19.7103 42.6628 19.7754 43.7371C17.8874 43.7696 16.0645 43.8917 14.3066 44.1033C12.5488 44.3149 10.8724 44.616 9.27734 45.0066C8.82161 45.1368 8.65072 45.4379 8.76465 45.9099C8.87858 46.3819 9.16341 46.5691 9.61914 46.4714C11.1816 46.0808 12.8174 45.7797 14.5264 45.5681C16.2354 45.3565 18.0176 45.2345 19.873 45.2019V46.8621C19.873 47.3503 20.1172 47.5945 20.6055 47.5945C21.0938 47.5945 21.3379 47.3503 21.3379 46.8621V45.2019C23.4863 45.2019 25.4395 45.3321 27.1973 45.5925C28.9876 45.8529 30.5827 46.1622 31.9824 46.5203C33.3822 46.8783 34.6029 47.2527 35.6445 47.6433C36.6862 48.0665 37.5488 48.4571 38.2324 48.8152H3.22266C3.58073 48.6199 3.98763 48.4164 4.44336 48.2048C4.89909 47.9932 5.41992 47.7898 6.00586 47.5945C6.42904 47.4317 6.55924 47.1225 6.39648 46.6667C6.23372 46.211 5.92448 46.0645 5.46875 46.2273C4.55729 46.5528 3.77604 46.8865 3.125 47.2283C2.47396 47.5701 1.95312 47.8549 1.5625 48.0828C0.78125 48.5385 0.325521 48.864 0.195312 49.0593C0.0651042 49.2546 0 49.4174 0 49.5476C0 49.7429 0.0732422 49.9138 0.219727 50.0603C0.366211 50.2068 0.537109 50.28 0.732422 50.28H40.7715C41.3574 50.28 41.5934 50.0684 41.4795 49.6453C41.3656 49.2221 41.1784 48.9128 40.918 48.7175ZM29.1016 28.405C30.6315 27.3308 32.0638 26.8344 33.3984 26.9158C34.7331 26.9972 35.6608 27.1355 36.1816 27.3308C36.1491 27.8842 35.9375 28.8038 35.5469 30.0896C35.1562 31.3754 34.196 32.5391 32.666 33.5808C31.2988 34.5574 29.9967 35.0294 28.7598 34.9968C27.5228 34.9643 26.5951 34.8503 25.9766 34.655C26.6927 34.004 27.4902 33.3936 28.3691 32.824C29.248 32.2543 30.2083 31.7579 31.25 31.3347C31.6732 31.1394 31.7871 30.8139 31.5918 30.3582C31.3965 29.9024 31.0872 29.7722 30.6641 29.9675C29.7201 30.3582 28.8656 30.7895 28.1006 31.2615C27.3356 31.7335 26.6439 32.2299 26.0254 32.7507C26.1882 32.0671 26.5055 31.3266 26.9775 30.5291C27.4495 29.7315 28.1576 29.0235 29.1016 28.405ZM23.584 32.3113C23.7467 32.3113 23.9176 32.3031 24.0967 32.2869C24.2757 32.2706 24.4466 32.2625 24.6094 32.2625C24.4792 32.6856 24.3896 33.0763 24.3408 33.4343C24.292 33.7924 24.2676 34.1016 24.2676 34.3621C23.5514 35.0782 22.9574 35.8106 22.4854 36.5593C22.0133 37.308 21.6309 38.0242 21.3379 38.7078V32.116C21.5658 32.1485 21.875 32.1892 22.2656 32.238C22.6562 32.2869 23.0957 32.3113 23.584 32.3113ZM23.1934 6.92065C23.8118 5.13029 24.6826 3.87703 25.8057 3.16089C26.9287 2.44474 27.7507 2.00529 28.2715 1.84253C28.597 2.29826 28.9795 3.16089 29.4189 4.43042C29.8584 5.69995 29.7689 7.21362 29.1504 8.97144C28.6947 10.3061 28.0762 11.3233 27.2949 12.0232C26.5137 12.7231 25.7975 13.2195 25.1465 13.5125C25.6348 12.1127 26.0986 10.7862 26.5381 9.53296C26.9775 8.27971 27.3763 7.2299 27.7344 6.38354C27.8971 5.96037 27.7507 5.65112 27.2949 5.45581C26.8392 5.2605 26.5299 5.39071 26.3672 5.84644C26.0091 6.69279 25.6022 7.76701 25.1465 9.06909C24.6908 10.3712 24.2188 11.7546 23.7305 13.2195C23.3724 12.5684 23.0794 11.6977 22.8516 10.6072C22.6237 9.51668 22.7376 8.28784 23.1934 6.92065ZM9.08203 34.7039C8.17057 33.9552 7.41374 33.1169 6.81152 32.1892C6.20931 31.2615 5.77799 30.2442 5.51758 29.1375C5.38737 28.5841 5.31413 28.0876 5.29785 27.6482C5.28158 27.2087 5.27344 26.8588 5.27344 26.5984C5.89193 26.4356 7.04753 26.338 8.74023 26.3054C10.4329 26.2729 12.1908 26.9727 14.0137 28.405C14.9251 29.1212 15.6657 29.9431 16.2354 30.8708C16.805 31.7986 17.2201 32.8158 17.4805 33.9226C17.513 34.0854 17.5456 34.24 17.5781 34.3865C17.6107 34.533 17.627 34.6713 17.627 34.8015C17.3991 34.5085 17.1631 34.2319 16.9189 33.9714C16.6748 33.711 16.4225 33.4669 16.1621 33.239C14.9251 32.0671 13.7777 31.2126 12.7197 30.6755C11.6618 30.1384 11.1003 29.8699 11.0352 29.8699C10.612 29.6746 10.3109 29.8048 10.1318 30.2605C9.9528 30.7162 10.0749 31.0417 10.498 31.2371C10.5306 31.2371 11.027 31.4812 11.9873 31.9695C12.9476 32.4578 14.0137 33.239 15.1855 34.3132C15.5436 34.6713 15.8854 35.0375 16.2109 35.4119C16.5365 35.7862 16.8457 36.1687 17.1387 36.5593C16.3249 36.7221 15.1693 36.7546 13.6719 36.657C12.1745 36.5593 10.6445 35.9083 9.08203 34.7039Z" fill="white"/>
</svg>
