<svg width="49" height="49" viewBox="0 0 49 49" fill="none" xmlns="http://www.w3.org/2000/svg">
<path d="M48.4375 27.3562C48.4375 25.6635 48.0469 24.0522 47.2656 22.5222C46.4844 20.9923 45.4102 19.7065 44.043 18.6648C43.75 18.4695 43.4326 18.3149 43.0908 18.2009C42.749 18.087 42.3991 18.03 42.041 18.03C41.6178 18.03 41.2028 18.1114 40.7959 18.2742C40.389 18.4369 40.0391 18.6648 39.7461 18.9578C39.681 18.9252 39.624 18.8845 39.5752 18.8357C39.5264 18.7869 39.4694 18.7462 39.4043 18.7136C39.209 18.5183 38.9811 18.3718 38.7207 18.2742C38.4603 18.1765 38.1999 18.1114 37.9395 18.0789L38.2812 14.3191C38.2812 14.254 38.2812 14.197 38.2812 14.1482C38.2812 14.0994 38.2812 14.0587 38.2812 14.0261C38.2812 13.1798 37.9883 12.4636 37.4023 11.8777C36.8164 11.2917 36.1003 10.9988 35.2539 10.9988H35.0586C34.2122 10.9988 33.4961 11.2917 32.9102 11.8777C32.3242 12.4636 32.0312 13.1798 32.0312 14.0261C32.0312 14.0587 32.0312 14.0994 32.0312 14.1482C32.0312 14.197 32.0312 14.254 32.0312 14.3191L32.373 18.0789C32.1452 18.144 31.9092 18.2253 31.665 18.323C31.4209 18.4207 31.2012 18.5346 31.0059 18.6648C30.9408 18.7299 30.8757 18.795 30.8105 18.8601C30.7454 18.9252 30.6803 18.974 30.6152 19.0066C30.5827 18.974 30.5501 18.9415 30.5176 18.9089C30.485 18.8764 30.4362 18.8438 30.3711 18.8113C30.4036 18.6811 30.4281 18.5509 30.4443 18.4207C30.4606 18.2904 30.4688 18.1602 30.4688 18.03C30.4688 17.5417 30.3955 17.0616 30.249 16.5896C30.1025 16.1176 29.8828 15.6863 29.5898 15.2957C29.8828 14.905 30.1025 14.4737 30.249 14.0017C30.3955 13.5297 30.4688 13.0496 30.4688 12.5613C30.4688 11.2266 29.9805 10.0955 29.0039 9.16772C28.0273 8.23999 26.8555 7.80867 25.4883 7.87378C25.2604 7.15763 24.8698 6.53914 24.3164 6.01831C23.763 5.49748 23.1283 5.1394 22.4121 4.94409C21.9238 4.35815 21.3379 3.91056 20.6543 3.60132C19.9707 3.29207 19.2383 3.15373 18.457 3.18628C18.1315 2.27482 17.57 1.52612 16.7725 0.940186C15.9749 0.354248 15.0716 0.0612793 14.0625 0.0612793C13.2161 0.0612793 12.4349 0.272869 11.7188 0.696045C11.0026 1.11922 10.4329 1.68888 10.0098 2.40503C8.9681 2.43758 8.04036 2.78752 7.22656 3.45483C6.41276 4.12215 5.87565 4.94409 5.61523 5.92065C4.41081 6.37638 3.43424 7.14136 2.68555 8.21558C1.93685 9.28979 1.5625 10.4779 1.5625 11.78C1.5625 12.8217 1.80664 13.7983 2.29492 14.7097C2.7832 15.6212 3.45052 16.3699 4.29688 16.9558C4.16667 17.2488 4.06901 17.5499 4.00391 17.8591C3.9388 18.1684 3.90625 18.4858 3.90625 18.8113C3.90625 19.5274 4.05273 20.1947 4.3457 20.8132C4.63867 21.4317 5.06185 21.9688 5.61523 22.4246C5.55013 22.5873 5.50944 22.7582 5.49316 22.9373C5.47689 23.1163 5.46875 23.3035 5.46875 23.4988C5.46875 24.7032 5.86751 25.7449 6.66504 26.6238C7.46256 27.5027 8.43099 28.0072 9.57031 28.1375L11.3281 32.9714C10.8724 33.297 10.4574 33.6632 10.083 34.0701C9.70866 34.477 9.375 34.9246 9.08203 35.4128L5.0293 34.4851C4.93164 34.4851 4.84212 34.477 4.76074 34.4607C4.67936 34.4444 4.60612 34.4363 4.54102 34.4363C3.92253 34.4363 3.40169 34.6479 2.97852 35.071C2.55534 35.4942 2.34375 36.0151 2.34375 36.6335V36.9265C2.34375 37.0567 2.35189 37.1707 2.36816 37.2683C2.38444 37.366 2.40885 37.4636 2.44141 37.5613H2.34375C1.69271 37.5613 1.13932 37.7891 0.683594 38.2449C0.227865 38.7006 0 39.254 0 39.905C0 40.5561 0.227865 41.1095 0.683594 41.5652C1.13932 42.0209 1.69271 42.2488 2.34375 42.2488H2.44141C2.40885 42.3464 2.38444 42.4441 2.36816 42.5417C2.35189 42.6394 2.34375 42.7533 2.34375 42.8835V43.1765C2.34375 43.795 2.55534 44.3158 2.97852 44.739C3.40169 45.1622 3.92253 45.3738 4.54102 45.3738C4.60612 45.3738 4.67936 45.3656 4.76074 45.3494C4.84212 45.3331 4.93164 45.325 5.0293 45.325L9.08203 44.3972C9.86328 45.6342 10.8968 46.627 12.1826 47.3757C13.4684 48.1244 14.8763 48.4988 16.4062 48.4988H16.6016C16.7969 48.4988 17.0085 48.4906 17.2363 48.4744C17.4642 48.4581 17.6921 48.4337 17.9199 48.4011L44.6777 44.2996C45.7845 44.1042 46.6878 43.5997 47.3877 42.7859C48.0876 41.9721 48.4375 41.0118 48.4375 39.905C48.4375 39.0261 48.2015 38.2286 47.7295 37.5125C47.2575 36.7963 46.6471 36.2592 45.8984 35.9011C46.7122 34.9571 47.3389 33.891 47.7783 32.7029C48.2178 31.5147 48.4375 30.2859 48.4375 29.0164V27.3562ZM38.4766 19.9343C39.6484 20.8132 40.5599 21.9281 41.2109 23.2791C41.862 24.63 42.1875 26.0541 42.1875 27.5515V30.3835C42.1875 31.1973 42.0898 31.9867 41.8945 32.7517C41.6992 33.5167 41.4062 34.2572 41.0156 34.9734L34.7656 33.9968C34.6354 33.4434 34.5378 32.8738 34.4727 32.2878C34.4076 31.7019 34.375 31.116 34.375 30.53V27.405C34.375 26.9819 34.3913 26.575 34.4238 26.1843C34.4564 25.7937 34.5052 25.4031 34.5703 25.0125C34.668 25.045 34.7656 25.0613 34.8633 25.0613C34.9609 25.0613 35.0586 25.0613 35.1562 25.0613C36.263 25.0613 37.1908 24.8416 37.9395 24.4021C38.6882 23.9626 39.0625 23.4011 39.0625 22.7175C39.0625 22.3595 38.9404 22.0177 38.6963 21.6921C38.4521 21.3666 38.1022 21.1062 37.6465 20.9109L37.793 19.6414C37.9232 19.6739 38.0452 19.7146 38.1592 19.7634C38.2731 19.8123 38.3789 19.8692 38.4766 19.9343ZM35.0586 12.5613H35.2539C35.6445 12.5613 35.9863 12.7078 36.2793 13.0007C36.5723 13.2937 36.7188 13.6355 36.7188 14.0261C36.7188 14.0587 36.7188 14.0831 36.7188 14.0994C36.7188 14.1156 36.7188 14.1401 36.7188 14.1726L35.9863 21.9363L36.6211 22.1316C36.9466 22.2618 37.1745 22.3839 37.3047 22.4978C37.4349 22.6117 37.5 22.685 37.5 22.7175C37.5 22.8152 37.2966 22.9698 36.8896 23.1814C36.4827 23.393 35.9049 23.4988 35.1562 23.4988C34.4076 23.4988 33.8298 23.393 33.4229 23.1814C33.0159 22.9698 32.8125 22.8152 32.8125 22.7175C32.8125 22.685 32.8776 22.6117 33.0078 22.4978C33.138 22.3839 33.3659 22.2618 33.6914 22.1316L34.3262 21.9363L33.5938 14.1726C33.5938 14.1401 33.5938 14.1156 33.5938 14.0994C33.5938 14.0831 33.5938 14.0587 33.5938 14.0261C33.5938 13.6355 33.7402 13.2937 34.0332 13.0007C34.3262 12.7078 34.668 12.5613 35.0586 12.5613ZM32.5195 19.6414L32.666 20.9109C32.2103 21.1062 31.8604 21.3666 31.6162 21.6921C31.3721 22.0177 31.25 22.3595 31.25 22.7175C31.25 23.1407 31.4128 23.5232 31.7383 23.865C32.0638 24.2068 32.5033 24.4916 33.0566 24.7195C32.9915 25.1427 32.9346 25.5821 32.8857 26.0378C32.8369 26.4936 32.8125 26.9493 32.8125 27.405V30.53C32.8125 31.0834 32.8369 31.6287 32.8857 32.1658C32.9346 32.7029 33.0078 33.2319 33.1055 33.7527L28.5156 33.0203C28.3854 32.5971 28.2878 32.1658 28.2227 31.7263C28.1576 31.2869 28.125 30.8393 28.125 30.3835V27.5515C28.125 26.0541 28.4587 24.63 29.126 23.2791C29.7933 21.9281 30.7292 20.8132 31.9336 19.9343C32.0312 19.8692 32.1289 19.8123 32.2266 19.7634C32.3242 19.7146 32.4219 19.6739 32.5195 19.6414ZM24.0723 32.3855C23.877 31.8321 23.7223 31.2787 23.6084 30.7253C23.4945 30.172 23.4375 29.6023 23.4375 29.0164V27.3562C23.4375 25.9239 23.7712 24.5486 24.4385 23.2302C25.1058 21.9119 26.0254 20.8132 27.1973 19.9343C27.36 19.8367 27.5309 19.7553 27.71 19.6902C27.889 19.6251 28.0762 19.5925 28.2715 19.5925C28.4993 19.5925 28.7191 19.6414 28.9307 19.739C29.1423 19.8367 29.3294 19.9506 29.4922 20.0808C28.5482 21.0899 27.8239 22.2374 27.3193 23.5232C26.8148 24.809 26.5625 26.1518 26.5625 27.5515V30.3835C26.5625 30.8067 26.5869 31.2136 26.6357 31.6042C26.6846 31.9949 26.7578 32.3855 26.8555 32.7761L24.0723 32.3855ZM24.1699 8.89917L24.3164 9.68042L25.0977 9.53394C25.2279 9.50138 25.3499 9.47697 25.4639 9.46069C25.5778 9.44442 25.6836 9.43628 25.7812 9.43628C26.6276 9.43628 27.36 9.74553 27.9785 10.364C28.597 10.9825 28.9062 11.7149 28.9062 12.5613C28.9062 12.9845 28.833 13.3832 28.6865 13.7576C28.54 14.1319 28.3203 14.4656 28.0273 14.7585L27.4902 15.2957L28.0273 15.8328C28.3203 16.1257 28.54 16.4594 28.6865 16.8337C28.833 17.2081 28.9062 17.6069 28.9062 18.03C28.9062 18.03 28.9062 18.0382 28.9062 18.0544C28.9062 18.0707 28.9062 18.0789 28.9062 18.0789C28.8086 18.0789 28.7028 18.0707 28.5889 18.0544C28.4749 18.0382 28.3691 18.03 28.2715 18.03C27.9134 18.03 27.5635 18.087 27.2217 18.2009C26.8799 18.3149 26.5625 18.4695 26.2695 18.6648C25.5859 19.1856 24.9593 19.7878 24.3896 20.4714C23.82 21.155 23.3561 21.8712 22.998 22.6199C22.8353 22.1641 22.6807 21.7166 22.5342 21.2771C22.3877 20.8376 22.2331 20.4063 22.0703 19.9832C22.4284 18.0951 23.0876 16.6222 24.0479 15.5642C25.0081 14.5063 25.4883 13.961 25.4883 13.9285L25 13.3425L24.5117 12.7566C24.4466 12.7891 24.0072 13.2286 23.1934 14.075C22.3796 14.9213 21.6797 16.1095 21.0938 17.6394C20.2799 15.7839 19.5475 14.2947 18.8965 13.1716C18.2454 12.0486 17.8874 11.4382 17.8223 11.3406L16.5527 12.2195C16.5527 12.2195 16.805 12.6589 17.3096 13.5378C17.8141 14.4167 18.4245 15.6049 19.1406 17.1023C17.9688 16.6466 16.8376 16.4268 15.7471 16.4431C14.6566 16.4594 14.0625 16.4675 13.9648 16.4675L14.1602 18.03C14.7461 17.9649 15.7064 18.0056 17.041 18.1521C18.3757 18.2986 19.4336 18.7625 20.2148 19.5437C20.4753 20.2273 20.7357 20.9353 20.9961 21.6677C21.2565 22.4001 21.5169 23.157 21.7773 23.9382C20.5729 23.3523 19.3929 23.0024 18.2373 22.8884C17.0817 22.7745 16.4714 22.7175 16.4062 22.7175V24.28C16.4388 24.28 17.1224 24.3533 18.457 24.4998C19.7917 24.6462 20.9635 25.1264 21.9727 25.9402C21.9401 26.1681 21.9157 26.4041 21.8994 26.6482C21.8831 26.8923 21.875 27.1283 21.875 27.3562V29.0164C21.875 29.5372 21.9157 30.058 21.9971 30.5789C22.0785 31.0997 22.2005 31.6042 22.3633 32.0925L17.9199 31.4089C17.7897 31.4089 17.6676 31.4008 17.5537 31.3845C17.4398 31.3682 17.3177 31.3438 17.1875 31.3113C16.3411 31.3113 15.6087 31.0102 14.9902 30.408C14.3717 29.8057 14.0625 29.0652 14.0625 28.1863C14.0625 27.991 14.0788 27.8038 14.1113 27.6248C14.1439 27.4457 14.1927 27.2585 14.2578 27.0632L14.502 26.4773L13.9648 26.1355C13.5091 25.8425 13.151 25.46 12.8906 24.988C12.6302 24.516 12.5 24.0196 12.5 23.4988C12.5 23.2058 12.5407 22.9128 12.6221 22.6199C12.7035 22.3269 12.8418 22.0502 13.0371 21.7898L13.5254 21.0574L12.7441 20.6667C11.9303 20.2436 11.2956 19.6576 10.8398 18.9089C10.3841 18.1602 10.1562 17.3464 10.1562 16.4675C10.1562 15.4259 10.4736 14.49 11.1084 13.6599C11.7432 12.8298 12.5651 12.2683 13.5742 11.9753L14.0625 11.8289L14.1113 11.3406C14.209 10.5593 14.5508 9.91642 15.1367 9.41187C15.7227 8.90731 16.4062 8.65503 17.1875 8.65503C17.1875 8.65503 17.1956 8.65503 17.2119 8.65503C17.2282 8.65503 17.2526 8.65503 17.2852 8.65503C17.3177 8.65503 17.3421 8.66317 17.3584 8.67944C17.3747 8.69572 17.3991 8.70386 17.4316 8.70386L18.0176 8.75269L18.2129 8.21558C18.4733 7.62964 18.8639 7.16577 19.3848 6.82397C19.9056 6.48218 20.4753 6.31128 21.0938 6.31128C21.8424 6.31128 22.5098 6.55542 23.0957 7.0437C23.6816 7.53198 24.0397 8.15047 24.1699 8.89917ZM10.6934 26.6238H10.1562C9.3099 26.6238 8.57747 26.3145 7.95898 25.696C7.34049 25.0776 7.03125 24.3451 7.03125 23.4988C7.03125 23.3035 7.04753 23.1163 7.08008 22.9373C7.11263 22.7582 7.16146 22.571 7.22656 22.3757L7.4707 21.7898L6.93359 21.448C6.47786 21.155 6.11979 20.7725 5.85938 20.3005C5.59896 19.8285 5.46875 19.3321 5.46875 18.8113C5.46875 18.5183 5.50944 18.2253 5.59082 17.9324C5.6722 17.6394 5.81055 17.3627 6.00586 17.1023L6.49414 16.3699L5.71289 15.9792C4.89909 15.5561 4.26432 14.9701 3.80859 14.2214C3.35286 13.4727 3.125 12.6589 3.125 11.78C3.125 10.7384 3.44238 9.80249 4.07715 8.97241C4.71191 8.14233 5.53385 7.58081 6.54297 7.28784L7.03125 7.14136L7.08008 6.65308C7.17773 5.87183 7.51953 5.22892 8.10547 4.72437C8.69141 4.21981 9.375 3.96753 10.1562 3.96753C10.1562 3.96753 10.1644 3.96753 10.1807 3.96753C10.1969 3.96753 10.2214 3.96753 10.2539 3.96753C10.2865 3.96753 10.3109 3.97567 10.3271 3.99194C10.3434 4.00822 10.3678 4.01636 10.4004 4.01636L10.9863 4.06519L11.1816 3.52808C11.4421 2.94214 11.8327 2.47827 12.3535 2.13647C12.8743 1.79468 13.444 1.62378 14.0625 1.62378C14.8112 1.62378 15.4785 1.86792 16.0645 2.3562C16.6504 2.84448 17.0085 3.46297 17.1387 4.21167L17.2852 4.99292L18.0664 4.84644C18.1966 4.81388 18.3187 4.78947 18.4326 4.77319C18.5465 4.75692 18.6523 4.74878 18.75 4.74878C18.9453 4.74878 19.1243 4.76506 19.2871 4.79761C19.4499 4.83016 19.6126 4.87899 19.7754 4.94409C19.1895 5.10685 18.6605 5.37541 18.1885 5.74976C17.7165 6.1241 17.334 6.5717 17.041 7.09253C15.9993 7.12508 15.0716 7.47502 14.2578 8.14233C13.444 8.80965 12.9069 9.63159 12.6465 10.6082C11.4421 11.0639 10.4655 11.8289 9.7168 12.9031C8.9681 13.9773 8.59375 15.1654 8.59375 16.4675C8.59375 17.5092 8.83789 18.4858 9.32617 19.3972C9.81445 20.3087 10.4818 21.0574 11.3281 21.6433C11.1979 21.9363 11.1003 22.2374 11.0352 22.5466C10.9701 22.8559 10.9375 23.1733 10.9375 23.4988C10.9375 24.2149 11.084 24.8822 11.377 25.5007C11.6699 26.1192 12.0931 26.6563 12.6465 27.1121C12.5814 27.2748 12.5407 27.4457 12.5244 27.6248C12.5081 27.8038 12.5 27.991 12.5 28.1863C12.5 28.8699 12.6383 29.5128 12.915 30.115C13.1917 30.7172 13.5579 31.2299 14.0137 31.6531C13.7858 31.7182 13.5579 31.7914 13.3301 31.8728C13.1022 31.9542 12.8906 32.06 12.6953 32.1902L10.6934 26.6238ZM3.90625 36.9265V36.6335C3.90625 36.4382 3.98763 36.2755 4.15039 36.1453C4.31315 36.0151 4.49219 35.9662 4.6875 35.9988L8.39844 36.8289C8.33333 36.9591 8.2845 37.0811 8.25195 37.1951C8.2194 37.309 8.18685 37.4311 8.1543 37.5613H4.54102C4.37826 37.5613 4.23177 37.4962 4.10156 37.366C3.97135 37.2358 3.90625 37.0893 3.90625 36.9265ZM1.5625 39.905C1.5625 39.6772 1.63574 39.49 1.78223 39.3435C1.92871 39.197 2.11589 39.1238 2.34375 39.1238H7.86133C7.82878 39.254 7.8125 39.3842 7.8125 39.5144C7.8125 39.6446 7.8125 39.7748 7.8125 39.905C7.8125 40.0352 7.8125 40.1654 7.8125 40.2957C7.8125 40.4259 7.82878 40.5561 7.86133 40.6863H2.34375C2.11589 40.6863 1.92871 40.613 1.78223 40.4666C1.63574 40.3201 1.5625 40.1329 1.5625 39.905ZM4.6875 43.8113C4.49219 43.8438 4.31315 43.795 4.15039 43.6648C3.98763 43.5346 3.90625 43.3718 3.90625 43.1765V42.8835C3.90625 42.7208 3.97135 42.5743 4.10156 42.4441C4.23177 42.3139 4.37826 42.2488 4.54102 42.2488H8.1543C8.18685 42.379 8.2194 42.5011 8.25195 42.615C8.2845 42.7289 8.33333 42.851 8.39844 42.9812L4.6875 43.8113ZM46.875 39.905C46.875 40.6212 46.6471 41.2478 46.1914 41.7849C45.7357 42.322 45.1497 42.6394 44.4336 42.7371L17.6758 46.8386C17.4805 46.8712 17.2933 46.8956 17.1143 46.9119C16.9352 46.9281 16.7643 46.9363 16.6016 46.9363H16.4062C14.4531 46.9363 12.793 46.2527 11.4258 44.8855C10.0586 43.5183 9.375 41.8582 9.375 39.905C9.375 37.9519 10.0586 36.2917 11.4258 34.9246C12.793 33.5574 14.4531 32.8738 16.4062 32.8738H16.6016C16.7643 32.8738 16.9352 32.8819 17.1143 32.8982C17.2933 32.9145 17.4805 32.9389 17.6758 32.9714L44.4336 37.073C45.1497 37.1707 45.7357 37.488 46.1914 38.0251C46.6471 38.5623 46.875 39.1889 46.875 39.905ZM46.875 29.0164C46.875 30.2208 46.639 31.3764 46.167 32.4832C45.695 33.5899 45.0358 34.5828 44.1895 35.4617L42.6758 35.2175C43.0339 34.4688 43.3024 33.6876 43.4814 32.8738C43.6605 32.06 43.75 31.2299 43.75 30.3835V27.5515C43.75 26.1518 43.4977 24.809 42.9932 23.5232C42.4886 22.2374 41.7806 21.0899 40.8691 20.0808C41.0319 19.9181 41.2109 19.796 41.4062 19.7146C41.6016 19.6332 41.8132 19.5925 42.041 19.5925C42.2363 19.5925 42.4235 19.6251 42.6025 19.6902C42.7816 19.7553 42.9525 19.8367 43.1152 19.9343C44.2871 20.8132 45.2067 21.9119 45.874 23.2302C46.5413 24.5486 46.875 25.9239 46.875 27.3562V29.0164ZM15.625 35.9988H17.1875V43.8113H15.625V35.9988ZM21.875 35.9988H23.4375V43.8113H21.875V35.9988ZM28.125 35.9988H29.6875V43.8113H28.125V35.9988ZM34.375 37.5613H35.9375V42.2488H34.375V37.5613ZM40.625 38.3425H42.1875V41.4675H40.625V38.3425Z" fill="white"/>
</svg>
