<svg width="47" height="42" viewBox="0 0 47 42" fill="none" xmlns="http://www.w3.org/2000/svg">
<path d="M9.76562 36.905C11.1654 36.905 12.3617 36.4086 13.3545 35.4158C14.3473 34.4229 14.8438 33.2266 14.8438 31.8269C14.8438 30.4272 14.3473 29.2309 13.3545 28.238C12.3617 27.2452 11.1654 26.7488 9.76562 26.7488C8.36589 26.7488 7.1696 27.2452 6.17676 28.238C5.18392 29.2309 4.6875 30.4272 4.6875 31.8269C4.6875 33.2266 5.18392 34.4229 6.17676 35.4158C7.1696 36.4086 8.36589 36.905 9.76562 36.905ZM9.76562 28.3113C10.7422 28.3113 11.5723 28.6531 12.2559 29.3367C12.9395 30.0203 13.2812 30.8503 13.2812 31.8269C13.2812 32.8035 12.9395 33.6335 12.2559 34.3171C11.5723 35.0007 10.7422 35.3425 9.76562 35.3425C8.78906 35.3425 7.95898 35.0007 7.27539 34.3171C6.5918 33.6335 6.25 32.8035 6.25 31.8269C6.25 30.8503 6.5918 30.0203 7.27539 29.3367C7.95898 28.6531 8.78906 28.3113 9.76562 28.3113ZM36.8164 37.6863C37.6953 37.6863 38.4521 37.3689 39.0869 36.7341C39.7217 36.0994 40.0391 35.3425 40.0391 34.4636C40.0391 33.5847 39.7217 32.8279 39.0869 32.1931C38.4521 31.5583 37.6953 31.241 36.8164 31.241C35.9375 31.241 35.1807 31.5583 34.5459 32.1931C33.9111 32.8279 33.5938 33.5847 33.5938 34.4636C33.5938 35.3425 33.9111 36.0994 34.5459 36.7341C35.1807 37.3689 35.9375 37.6863 36.8164 37.6863ZM36.8164 32.8035C37.2721 32.8035 37.6628 32.9662 37.9883 33.2917C38.3138 33.6173 38.4766 34.0079 38.4766 34.4636C38.4766 34.9194 38.3138 35.31 37.9883 35.6355C37.6628 35.961 37.2721 36.1238 36.8164 36.1238C36.3607 36.1238 35.9701 35.961 35.6445 35.6355C35.319 35.31 35.1562 34.9194 35.1562 34.4636C35.1562 34.0079 35.319 33.6173 35.6445 33.2917C35.9701 32.9662 36.3607 32.8035 36.8164 32.8035ZM44.5312 29.8738H43.75V23.4773C43.75 22.2403 43.3024 21.1742 42.4072 20.2791C41.512 19.3839 40.446 18.9363 39.209 18.9363H35.1562V15.8113C35.1562 15.5834 35.083 15.3962 34.9365 15.2498C34.79 15.1033 34.6029 15.03 34.375 15.03H33.5938V11.5632L35.5957 10.196C35.6934 10.1309 35.7747 10.0414 35.8398 9.92749C35.9049 9.81356 35.9375 9.69149 35.9375 9.56128C35.9375 9.33342 35.8643 9.14624 35.7178 8.99976C35.5713 8.85327 35.3841 8.78003 35.1562 8.78003C35.0586 8.78003 34.9772 8.78817 34.9121 8.80444C34.847 8.82072 34.7819 8.86141 34.7168 8.92651L32.373 10.489C32.2754 10.5541 32.194 10.6436 32.1289 10.7576C32.0638 10.8715 32.0312 10.9936 32.0312 11.1238V15.03H31.25C31.0221 15.03 30.835 15.1033 30.6885 15.2498C30.542 15.3962 30.4688 15.5834 30.4688 15.8113V18.9363H28.7109L24.4629 4.82495C24.6257 4.75985 24.7559 4.66219 24.8535 4.53198C24.9512 4.40178 25 4.25529 25 4.09253V2.33472C25 1.74878 24.7884 1.24422 24.3652 0.821045C23.9421 0.397869 23.4375 0.186279 22.8516 0.186279H8.39844C7.8125 0.186279 7.30794 0.397869 6.88477 0.821045C6.46159 1.24422 6.25 1.74878 6.25 2.33472V4.09253C6.25 4.28784 6.30697 4.4506 6.4209 4.58081C6.53483 4.71102 6.67318 4.7924 6.83594 4.82495L3.95508 17.032L0.195312 21.573C0.130208 21.6381 0.0813802 21.7113 0.0488281 21.7927C0.016276 21.8741 0 21.9636 0 22.0613C0 22.2891 0.0732422 22.4763 0.219727 22.6228C0.366211 22.7693 0.553385 22.8425 0.78125 22.8425H4.6875C4.78516 22.8425 4.88281 22.8181 4.98047 22.7693C5.07812 22.7205 5.15951 22.6635 5.22461 22.5984L6.15234 21.7195L6.68945 22.5984C4.73633 23.2494 3.13314 24.4132 1.87988 26.0896C0.626628 27.766 0 29.6785 0 31.8269C0 33.1941 0.260417 34.4636 0.78125 35.6355C1.26953 36.8074 1.96126 37.8409 2.85645 38.7361C3.75163 39.6313 4.78516 40.323 5.95703 40.8113C7.12891 41.3321 8.39844 41.5925 9.76562 41.5925C11.9792 41.5925 13.9404 40.9333 15.6494 39.615C17.3584 38.2966 18.5059 36.6283 19.0918 34.6101L19.1406 34.5613H29.6875C29.7201 36.5144 30.4281 38.1746 31.8115 39.5417C33.195 40.9089 34.8633 41.5925 36.8164 41.5925C38.7695 41.5925 40.4378 40.9089 41.8213 39.5417C43.2048 38.1746 43.9128 36.5144 43.9453 34.5613H44.5312C45.1823 34.5613 45.7357 34.3334 46.1914 33.8777C46.6471 33.422 46.875 32.8686 46.875 32.2175C46.875 31.5665 46.6471 31.0131 46.1914 30.5574C45.7357 30.1016 45.1823 29.8738 44.5312 29.8738ZM39.209 20.4988C40.0228 20.4988 40.7227 20.7917 41.3086 21.3777C41.8945 21.9636 42.1875 22.6635 42.1875 23.4773V29.825C41.5365 29.0763 40.7471 28.474 39.8193 28.0183C38.8916 27.5626 37.8906 27.3347 36.8164 27.3347C36.5234 27.3347 36.2305 27.351 35.9375 27.3835C35.6445 27.4161 35.3678 27.4812 35.1074 27.5789L35.1562 27.53V20.4988H39.209ZM32.0312 16.5925H33.5938V28.116C33.3008 28.2787 33.0241 28.4496 32.7637 28.6287C32.5033 28.8077 32.2591 28.9949 32.0312 29.1902V16.5925ZM27.0508 32.9988L25.3906 29.8738H27.3438V32.9988H27.0508ZM5.66406 16.5925L8.44727 4.87378H10.1562V16.5925H5.66406ZM11.7188 4.87378H13.2812V16.5925H11.7188V4.87378ZM14.8438 4.87378H22.8516L27.0508 18.9363H25.5859C25.5534 18.9363 25.5208 18.9363 25.4883 18.9363C25.4557 18.9363 25.4395 18.9363 25.4395 18.9363L24.3164 17.2761L24.707 17.032C24.8047 16.9669 24.8779 16.8774 24.9268 16.7634C24.9756 16.6495 25 16.5274 25 16.3972C25 16.1694 24.9268 15.9822 24.7803 15.8357C24.6338 15.6892 24.4466 15.616 24.2188 15.616C24.1211 15.616 24.0316 15.6322 23.9502 15.6648C23.8688 15.6973 23.7956 15.7299 23.7305 15.7625L21.3867 17.5203C21.2891 17.5854 21.2158 17.6749 21.167 17.7888C21.1182 17.9028 21.0938 18.0248 21.0938 18.155C21.0938 18.3829 21.167 18.5701 21.3135 18.7166C21.46 18.863 21.6471 18.9363 21.875 18.9363C21.9727 18.9363 22.0622 18.92 22.1436 18.8875C22.2249 18.8549 22.2982 18.8223 22.3633 18.7898L23.0957 18.2527L23.877 19.4734C23.5189 19.7338 23.2259 20.0756 22.998 20.4988C22.7702 20.922 22.6562 21.3777 22.6562 21.866V24.6492L18.6523 17.032C18.5872 16.9018 18.4977 16.796 18.3838 16.7146C18.2699 16.6332 18.1315 16.5925 17.9688 16.5925H14.8438V4.87378ZM25.5859 20.4988H27.3438V22.0613H24.2188V21.866C24.2188 21.4753 24.349 21.1498 24.6094 20.8894C24.8698 20.629 25.1953 20.4988 25.5859 20.4988ZM24.2188 23.6238H27.3438V25.1863H24.2188V23.6238ZM24.2188 27.6277C24.2188 27.5951 24.2188 27.5707 24.2188 27.5544C24.2188 27.5382 24.2188 27.53 24.2188 27.53V26.7488H27.3438V28.3113H24.5605L24.2188 27.6277ZM7.8125 2.33472C7.8125 2.17196 7.86947 2.03361 7.9834 1.91968C8.09733 1.80574 8.23568 1.74878 8.39844 1.74878H22.8516C23.0143 1.74878 23.1527 1.80574 23.2666 1.91968C23.3805 2.03361 23.4375 2.17196 23.4375 2.33472V3.31128H7.8125V2.33472ZM1.66016 33.0476L3.61328 31.7292C3.74349 31.6316 3.84115 31.5258 3.90625 31.4119C3.97135 31.2979 4.00391 31.1759 4.00391 31.0457C4.00391 30.8503 3.92253 30.6713 3.75977 30.5085C3.59701 30.3458 3.41797 30.2644 3.22266 30.2644C3.125 30.2644 3.04362 30.2807 2.97852 30.3132C2.91341 30.3458 2.84831 30.3783 2.7832 30.4109L1.61133 31.1921C1.67643 30.3783 1.84733 29.6134 2.12402 28.8972C2.40072 28.1811 2.76693 27.53 3.22266 26.9441H3.17383L5.51758 27.4324C5.55013 27.4324 5.57454 27.4324 5.59082 27.4324C5.6071 27.4324 5.63151 27.4324 5.66406 27.4324C5.89193 27.4324 6.0791 27.3591 6.22559 27.2126C6.37207 27.0662 6.44531 26.879 6.44531 26.6511C6.44531 26.4558 6.38835 26.2849 6.27441 26.1384C6.16048 25.9919 6.00586 25.9024 5.81055 25.8699L4.44336 25.6257C4.99674 25.1375 5.62337 24.7306 6.32324 24.405C7.02311 24.0795 7.7474 23.8516 8.49609 23.7214H8.54492L9.86328 25.7234C9.96094 25.821 10.0667 25.9024 10.1807 25.9675C10.2946 26.0326 10.4167 26.0652 10.5469 26.0652C10.7422 26.0652 10.9212 25.9919 11.084 25.8455C11.2467 25.699 11.3281 25.5118 11.3281 25.2839C11.3281 25.1863 11.3118 25.1049 11.2793 25.0398C11.2467 24.9747 11.2142 24.9096 11.1816 24.8445L10.4004 23.6726C11.2142 23.7377 11.9792 23.9086 12.6953 24.1853C13.4115 24.462 14.0625 24.8282 14.6484 25.2839L14.1602 27.5789C14.1602 27.6114 14.1602 27.644 14.1602 27.6765C14.1602 27.7091 14.1602 27.7416 14.1602 27.7742C14.1602 27.9695 14.2334 28.1485 14.3799 28.3113C14.5264 28.474 14.7135 28.5554 14.9414 28.5554C15.1367 28.5554 15.3076 28.4903 15.4541 28.3601C15.6006 28.2299 15.6901 28.0834 15.7227 27.9207L15.9668 26.5046C16.4551 27.0906 16.862 27.7253 17.1875 28.4089C17.513 29.0925 17.7409 29.825 17.8711 30.6062V30.655L15.8691 31.9734C15.7715 32.0385 15.6901 32.128 15.625 32.2419C15.5599 32.3559 15.5273 32.4779 15.5273 32.6082C15.5273 32.836 15.6006 33.0232 15.7471 33.1697C15.8936 33.3162 16.0807 33.3894 16.3086 33.3894C16.3737 33.3894 16.4469 33.3813 16.5283 33.365C16.6097 33.3487 16.6829 33.3243 16.748 33.2917L17.9199 32.4617C17.8548 33.2755 17.6839 34.0404 17.4072 34.7566C17.1305 35.4727 16.7643 36.1401 16.3086 36.7585V36.7097L14.0137 36.2703C13.9811 36.2703 13.9486 36.2621 13.916 36.2458C13.8835 36.2296 13.8509 36.2214 13.8184 36.2214C13.623 36.2214 13.444 36.3028 13.2812 36.4656C13.1185 36.6283 13.0371 36.8074 13.0371 37.0027C13.0371 37.198 13.1022 37.3689 13.2324 37.5154C13.3626 37.6619 13.5091 37.7514 13.6719 37.7839L15.0879 38.0769C14.502 38.5652 13.8672 38.9639 13.1836 39.2732C12.5 39.5824 11.7676 39.8022 10.9863 39.9324H10.9375L9.61914 37.9792C9.55404 37.849 9.46452 37.7514 9.35059 37.6863C9.23665 37.6212 9.11458 37.5886 8.98438 37.5886C8.75651 37.5886 8.56934 37.67 8.42285 37.8328C8.27637 37.9955 8.20312 38.1746 8.20312 38.3699C8.20312 38.4675 8.21126 38.5489 8.22754 38.614C8.24382 38.6791 8.26823 38.7442 8.30078 38.8093L9.13086 39.9812C8.31706 39.9161 7.55208 39.7452 6.83594 39.4685C6.11979 39.1918 5.45247 38.8256 4.83398 38.3699L4.88281 38.4187L5.32227 36.075C5.32227 36.0424 5.3304 36.018 5.34668 36.0017C5.36296 35.9854 5.37109 35.961 5.37109 35.9285C5.37109 35.7006 5.28971 35.5134 5.12695 35.3669C4.96419 35.2205 4.78516 35.1472 4.58984 35.1472C4.39453 35.1472 4.22363 35.2042 4.07715 35.3181C3.93066 35.432 3.84115 35.5867 3.80859 35.782L3.51562 37.1492C3.02734 36.5958 2.62858 35.9692 2.31934 35.2693C2.01009 34.5694 1.79036 33.8451 1.66016 33.0964V33.0476ZM9.76562 22.0613C9.50521 22.0613 9.25293 22.0776 9.00879 22.1101C8.76465 22.1427 8.51237 22.1752 8.25195 22.2078H8.30078L7.71484 21.28H15.918L22.1191 32.9988H19.4336C19.4661 32.836 19.4906 32.657 19.5068 32.4617C19.5231 32.2664 19.5312 32.0548 19.5312 31.8269C19.5312 30.4923 19.2708 29.2227 18.75 28.0183C18.2292 26.8464 17.5293 25.821 16.6504 24.9421C15.7715 24.0632 14.7461 23.3634 13.5742 22.8425C12.3698 22.3217 11.1003 22.0613 9.76562 22.0613ZM23.9258 32.9988L17.0898 20.157C17.0247 20.0268 16.9352 19.921 16.8213 19.8396C16.7074 19.7582 16.569 19.7175 16.4062 19.7175H6.25C6.15234 19.7175 6.05469 19.7419 5.95703 19.7908C5.85938 19.8396 5.77799 19.8966 5.71289 19.9617L4.3457 21.28H2.44141L5.0293 18.155H17.4805L25.293 32.9988H23.9258ZM28.9062 20.4988H30.4688V31.241C30.3385 31.5014 30.2165 31.7781 30.1025 32.071C29.9886 32.364 29.8991 32.657 29.834 32.95V32.9988H28.9062V20.4988ZM31.3965 35.6355L32.373 34.9519C32.4707 34.8542 32.5521 34.7566 32.6172 34.6589C32.6823 34.5613 32.7148 34.4473 32.7148 34.3171C32.7148 34.0893 32.6416 33.9021 32.4951 33.7556C32.3486 33.6091 32.1615 33.5359 31.9336 33.5359C31.8685 33.5359 31.7952 33.544 31.7139 33.5603C31.6325 33.5766 31.5592 33.601 31.4941 33.6335L31.2988 33.78C31.3639 33.3569 31.4697 32.95 31.6162 32.5593C31.7627 32.1687 31.9499 31.7944 32.1777 31.4363H32.1289L33.3496 31.6804C33.3822 31.6804 33.4066 31.6804 33.4229 31.6804C33.4391 31.6804 33.4635 31.6804 33.4961 31.6804C33.724 31.6804 33.9111 31.6072 34.0576 31.4607C34.2041 31.3142 34.2773 31.127 34.2773 30.8992C34.2773 30.7039 34.2122 30.533 34.082 30.3865C33.9518 30.24 33.8053 30.1505 33.6426 30.1179L33.3984 30.0691C33.724 29.8412 34.0658 29.6378 34.4238 29.4587C34.7819 29.2797 35.1725 29.1414 35.5957 29.0437H35.6445L36.3281 30.0691C36.4258 30.1667 36.5234 30.2481 36.6211 30.3132C36.7188 30.3783 36.8327 30.4109 36.9629 30.4109C37.1908 30.4109 37.3779 30.3295 37.5244 30.1667C37.6709 30.004 37.7441 29.825 37.7441 29.6296C37.7441 29.532 37.736 29.4425 37.7197 29.3611C37.7034 29.2797 37.679 29.2065 37.6465 29.1414L37.5 28.946C37.9232 29.0111 38.3301 29.1169 38.7207 29.2634C39.1113 29.4099 39.4857 29.5971 39.8438 29.825L39.5996 30.9968C39.5996 31.0294 39.5996 31.0619 39.5996 31.0945C39.5996 31.127 39.5996 31.1433 39.5996 31.1433C39.5996 31.3712 39.6729 31.5583 39.8193 31.7048C39.9658 31.8513 40.153 31.9246 40.3809 31.9246C40.5762 31.9246 40.7471 31.8676 40.8936 31.7537C41.04 31.6397 41.1296 31.4851 41.1621 31.2898L41.2109 31.0457C41.4388 31.3712 41.6423 31.7211 41.8213 32.0955C42.0003 32.4698 42.1387 32.8523 42.2363 33.2429V33.2917L41.2109 34.0242C41.1133 34.0893 41.0319 34.1788 40.9668 34.2927C40.9017 34.4067 40.8691 34.5287 40.8691 34.6589C40.8691 34.8542 40.9505 35.0333 41.1133 35.196C41.276 35.3588 41.4551 35.4402 41.6504 35.4402C41.748 35.4402 41.8376 35.4239 41.9189 35.3914C42.0003 35.3588 42.0736 35.3263 42.1387 35.2937L42.334 35.1472C42.2689 35.6029 42.1631 36.0261 42.0166 36.4167C41.8701 36.8074 41.6829 37.1654 41.4551 37.491L40.2832 37.2468C40.2507 37.2468 40.2262 37.2468 40.21 37.2468C40.1937 37.2468 40.1693 37.2468 40.1367 37.2468C39.9089 37.2468 39.7217 37.3282 39.5752 37.491C39.4287 37.6537 39.3555 37.8328 39.3555 38.0281C39.3555 38.2234 39.4124 38.3943 39.5264 38.5408C39.6403 38.6873 39.7949 38.7768 39.9902 38.8093L40.2344 38.8582C39.9089 39.086 39.5589 39.2895 39.1846 39.4685C38.8102 39.6475 38.4277 39.7859 38.0371 39.8835H37.9883L37.2559 38.907C37.1908 38.8093 37.1012 38.7279 36.9873 38.6628C36.8734 38.5977 36.7513 38.5652 36.6211 38.5652C36.4258 38.5652 36.2467 38.6384 36.084 38.7849C35.9212 38.9314 35.8398 39.1186 35.8398 39.3464C35.8398 39.4115 35.8561 39.4848 35.8887 39.5662C35.9212 39.6475 35.9538 39.7208 35.9863 39.7859L36.1328 39.9812C35.6771 39.9161 35.2539 39.8103 34.8633 39.6638C34.4727 39.5173 34.1146 39.3302 33.7891 39.1023V39.1511L34.0332 37.9304C34.0332 37.8979 34.0332 37.8735 34.0332 37.8572C34.0332 37.8409 34.0332 37.8165 34.0332 37.7839C34.0332 37.5886 33.9518 37.4096 33.7891 37.2468C33.6263 37.0841 33.4473 37.0027 33.252 37.0027C33.0566 37.0027 32.8857 37.0678 32.7393 37.198C32.5928 37.3282 32.5033 37.4747 32.4707 37.6375L32.4219 37.8816C32.194 37.5886 31.9906 37.255 31.8115 36.8806C31.6325 36.5063 31.4941 36.1075 31.3965 35.6843V35.6355ZM44.5312 32.9988H43.7988C43.7337 32.7058 43.6523 32.4291 43.5547 32.1687C43.457 31.9083 43.3431 31.6479 43.2129 31.3875L43.2617 31.4363H44.5312C44.7591 31.4363 44.9463 31.5095 45.0928 31.656C45.2393 31.8025 45.3125 31.9897 45.3125 32.2175C45.3125 32.4454 45.2393 32.6326 45.0928 32.7791C44.9463 32.9255 44.7591 32.9988 44.5312 32.9988ZM37.5 25.1863C37.7279 25.1863 37.915 25.113 38.0615 24.9666C38.208 24.8201 38.2812 24.6329 38.2812 24.405V22.8425C38.2812 22.6147 38.208 22.4275 38.0615 22.281C37.915 22.1345 37.7279 22.0613 37.5 22.0613C37.2721 22.0613 37.085 22.1345 36.9385 22.281C36.792 22.4275 36.7188 22.6147 36.7188 22.8425V24.405C36.7188 24.6329 36.792 24.8201 36.9385 24.9666C37.085 25.113 37.2721 25.1863 37.5 25.1863ZM39.8438 25.1863C40.0716 25.1863 40.2588 25.113 40.4053 24.9666C40.5518 24.8201 40.625 24.6329 40.625 24.405V22.8425C40.625 22.6147 40.5518 22.4275 40.4053 22.281C40.2588 22.1345 40.0716 22.0613 39.8438 22.0613C39.6159 22.0613 39.4287 22.1345 39.2822 22.281C39.1357 22.4275 39.0625 22.6147 39.0625 22.8425V24.405C39.0625 24.6329 39.1357 24.8201 39.2822 24.9666C39.4287 25.113 39.6159 25.1863 39.8438 25.1863Z" fill="white"/>
</svg>
