<svg width="6" height="10" viewBox="0 0 6 10" fill="none" xmlns="http://www.w3.org/2000/svg">
<path d="M5.78906 5.08203L1.99023 8.88086C1.89909 8.97201 1.78841 9.01758 1.6582 9.01758C1.52799 9.01758 1.41732 8.97201 1.32617 8.88086L0.886719 8.43164C0.795573 8.34049 0.75 8.23145 0.75 8.10449C0.75 7.97754 0.795573 7.86523 0.886719 7.76758L3.89453 4.75L0.886719 1.73242C0.795573 1.63477 0.75 1.52246 0.75 1.39551C0.75 1.26855 0.795573 1.15951 0.886719 1.06836L1.32617 0.619141C1.41732 0.527995 1.52799 0.482422 1.6582 0.482422C1.78841 0.482422 1.89909 0.527995 1.99023 0.619141L5.78906 4.41797C5.88021 4.50911 5.92578 4.61979 5.92578 4.75C5.92578 4.88021 5.88021 4.99089 5.78906 5.08203Z" fill="#878680"/>
</svg>
