<svg width="64" height="65" viewBox="0 0 64 65" fill="none" xmlns="http://www.w3.org/2000/svg">
<path d="M18.8125 25.28C18.6458 25.4884 18.5625 25.7175 18.5625 25.9675C18.5625 26.2175 18.6458 26.4467 18.8125 26.655C18.9792 26.8217 19.1979 26.905 19.4688 26.905C19.7396 26.905 19.9583 26.8217 20.125 26.655C20.375 26.4467 20.6562 26.3425 20.9688 26.3425C21.2812 26.3425 21.5625 26.4467 21.8125 26.655C21.8958 26.7384 21.9896 26.8009 22.0938 26.8425C22.1979 26.8842 22.3125 26.905 22.4375 26.905C22.5625 26.905 22.6875 26.8842 22.8125 26.8425C22.9375 26.8009 23.0417 26.7384 23.125 26.655C23.2917 26.4467 23.375 26.2175 23.375 25.9675C23.375 25.7175 23.2917 25.4884 23.125 25.28C22.5 24.7384 21.7812 24.4675 20.9688 24.4675C20.1562 24.4675 19.4375 24.7384 18.8125 25.28ZM32.875 26.655C33.125 26.4467 33.4062 26.3425 33.7188 26.3425C34.0312 26.3425 34.3125 26.4467 34.5625 26.655C34.6458 26.7384 34.7396 26.8009 34.8438 26.8425C34.9479 26.8842 35.0625 26.905 35.1875 26.905C35.3125 26.905 35.4375 26.8842 35.5625 26.8425C35.6875 26.8009 35.7917 26.7384 35.875 26.655C36.0417 26.4467 36.125 26.2175 36.125 25.9675C36.125 25.7175 36.0208 25.4884 35.8125 25.28C35.2292 24.7384 34.5208 24.4675 33.6875 24.4675C32.8542 24.4675 32.1458 24.7384 31.5625 25.28C31.3958 25.4884 31.3125 25.7175 31.3125 25.9675C31.3125 26.2175 31.3958 26.4467 31.5625 26.655C31.7292 26.8217 31.9479 26.905 32.2188 26.905C32.4896 26.905 32.7083 26.8217 32.875 26.655ZM27.3125 34.2175C27.8542 34.2175 28.3646 34.1134 28.8438 33.905C29.3229 33.6967 29.75 33.405 30.125 33.03C30.3333 32.8634 30.4375 32.655 30.4375 32.405C30.4375 32.155 30.3333 31.9259 30.125 31.7175C29.9583 31.5509 29.7396 31.4675 29.4688 31.4675C29.1979 31.4675 28.9792 31.5509 28.8125 31.7175C28.6042 31.9259 28.375 32.0821 28.125 32.1863C27.875 32.2904 27.6042 32.3425 27.3125 32.3425C27.0625 32.3425 26.8125 32.2904 26.5625 32.1863C26.3125 32.0821 26.0833 31.9259 25.875 31.7175C25.7083 31.5509 25.4896 31.4675 25.2188 31.4675C24.9479 31.4675 24.7292 31.5509 24.5625 31.7175C24.3542 31.9259 24.25 32.155 24.25 32.405C24.25 32.655 24.3542 32.8634 24.5625 33.03C24.9375 33.405 25.3646 33.6967 25.8438 33.905C26.3229 34.1134 26.8125 34.2175 27.3125 34.2175ZM39.875 57.405H37.625C37.375 57.405 37.1562 57.4988 36.9688 57.6863C36.7812 57.8738 36.6875 58.0925 36.6875 58.3425C36.6875 58.6342 36.7812 58.8634 36.9688 59.03C37.1562 59.1967 37.375 59.28 37.625 59.28H39.875C40.125 59.28 40.3438 59.1967 40.5312 59.03C40.7188 58.8634 40.8125 58.6342 40.8125 58.3425C40.8125 58.0925 40.7188 57.8738 40.5312 57.6863C40.3438 57.4988 40.125 57.405 39.875 57.405ZM17.0625 57.405H14.8125C14.5625 57.405 14.3438 57.4988 14.1562 57.6863C13.9688 57.8738 13.875 58.0925 13.875 58.3425C13.875 58.6342 13.9688 58.8634 14.1562 59.03C14.3438 59.1967 14.5625 59.28 14.8125 59.28H17.0625C17.3125 59.28 17.5312 59.1967 17.7188 59.03C17.9062 58.8634 18 58.6342 18 58.3425C18 58.0925 17.9062 57.8738 17.7188 57.6863C17.5312 57.4988 17.3125 57.405 17.0625 57.405ZM62.5625 21.28C62.3125 21.28 62.0938 21.3738 61.9062 21.5613C61.7188 21.7488 61.625 21.9675 61.625 22.2175V32.2175C61.625 32.9675 61.3646 33.6134 60.8438 34.155C60.3229 34.6967 59.6875 34.9675 58.9375 34.9675H56.3125V22.2175C56.3125 21.9675 56.2292 21.7488 56.0625 21.5613C55.8958 21.3738 55.6667 21.28 55.375 21.28C55.125 21.28 54.9062 21.3738 54.7188 21.5613C54.5312 21.7488 54.4375 21.9675 54.4375 22.2175V34.9675H51.875C51.125 34.9675 50.4896 34.6967 49.9688 34.155C49.4479 33.6134 49.1875 32.9675 49.1875 32.2175V22.2175C49.1875 21.9675 49.0938 21.7488 48.9062 21.5613C48.7188 21.3738 48.5 21.28 48.25 21.28C47.9583 21.28 47.7292 21.3738 47.5625 21.5613C47.3958 21.7488 47.3125 21.9675 47.3125 22.2175V32.2175C47.3125 33.5092 47.75 34.6029 48.625 35.4988C49.5 36.3946 50.5833 36.8425 51.875 36.8425H54.4375V43.7175H52.4375C52.0208 43.7175 51.6562 43.8738 51.3438 44.1863C51.0312 44.4988 50.875 44.8634 50.875 45.28V46.4675C49.8333 45.4675 48.625 44.5925 47.25 43.8425C45.875 43.0925 44.4583 42.4467 43 41.905C42.9583 41.905 42.9167 41.8946 42.875 41.8738C42.8333 41.8529 42.8125 41.8425 42.8125 41.8425C42.0625 41.5509 41.3333 41.3009 40.625 41.0925C39.9167 40.8842 39.2083 40.6759 38.5 40.4675C38.5 40.4675 38.4792 40.4675 38.4375 40.4675C37.8958 40.3009 37.3646 40.155 36.8438 40.03C36.3229 39.905 35.8333 39.78 35.375 39.655L35 39.53C34.9583 39.53 34.9271 39.53 34.9062 39.53C34.8854 39.53 34.875 39.53 34.875 39.53C34.875 39.4884 34.875 39.4675 34.875 39.4675V37.155C36.2917 36.03 37.5 34.7175 38.5 33.2175C39.5 31.7175 40.1667 30.1967 40.5 28.655C41.5417 28.3217 42.4167 27.8009 43.125 27.0925C43.8333 26.3842 44.3333 25.5717 44.625 24.655C44.8333 23.9467 44.875 23.2175 44.75 22.4675C44.625 21.7175 44.375 21.0092 44 20.3425C45 19.9259 45.8333 19.4571 46.5 18.9363C47.1667 18.4154 47.6875 17.8425 48.0625 17.2175C48.2708 16.8009 48.3958 16.4259 48.4375 16.0925C48.4792 15.7592 48.4167 15.4467 48.25 15.155C48 14.6967 47.5938 14.4259 47.0312 14.3425C46.4688 14.2592 45.9375 14.2175 45.4375 14.2175H41.75L39.3125 5.46753C38.8958 4.05086 38.2083 2.91545 37.25 2.06128C36.2917 1.20711 35.2083 0.780029 34 0.780029H20.625C19.4583 0.780029 18.3958 1.20711 17.4375 2.06128C16.4792 2.91545 15.7917 4.05086 15.375 5.46753L12.9375 14.2175H9.25C8.75 14.2175 8.21875 14.2592 7.65625 14.3425C7.09375 14.4259 6.6875 14.6967 6.4375 15.155C6.27083 15.4467 6.19792 15.7592 6.21875 16.0925C6.23958 16.4259 6.375 16.8009 6.625 17.2175C6.95833 17.8425 7.46875 18.4154 8.15625 18.9363C8.84375 19.4571 9.6875 19.9259 10.6875 20.3425C10.2708 21.0092 10.0104 21.7175 9.90625 22.4675C9.80208 23.2175 9.85417 23.9467 10.0625 24.655C10.3542 25.5717 10.8542 26.3738 11.5625 27.0613C12.2708 27.7488 13.1458 28.28 14.1875 28.655C14.5208 30.1967 15.1875 31.7175 16.1875 33.2175C17.1875 34.7175 18.3958 36.03 19.8125 37.155V39.4675C19.8125 39.4675 19.8125 39.4884 19.8125 39.53C19.8125 39.53 19.7917 39.53 19.75 39.53C19.7083 39.53 19.6875 39.53 19.6875 39.53L19.3125 39.655C18.8542 39.78 18.3646 39.905 17.8438 40.03C17.3229 40.155 16.7917 40.3009 16.25 40.4675C16.25 40.4675 16.2396 40.4675 16.2188 40.4675C16.1979 40.4675 16.1667 40.4675 16.125 40.4675C15.4583 40.6759 14.7604 40.8946 14.0312 41.1238C13.3021 41.3529 12.5833 41.5925 11.875 41.8425C11.8333 41.8425 11.8021 41.8425 11.7812 41.8425C11.7604 41.8425 11.75 41.8634 11.75 41.905C11.0833 42.155 10.4271 42.4154 9.78125 42.6863C9.13542 42.9571 8.5 43.2592 7.875 43.5925C5.58333 44.8009 3.82292 46.2071 2.59375 47.8113C1.36458 49.4154 0.6875 51.1967 0.5625 53.155L0 62.3425C0 62.6759 0.0208333 62.9988 0.0625 63.3113C0.104167 63.6238 0.25 63.9259 0.5 64.2175C0.75 64.4675 1.04167 64.6238 1.375 64.6863C1.70833 64.7488 2.02083 64.78 2.3125 64.78H52.4375H58.375C58.7917 64.78 59.1562 64.6238 59.4688 64.3113C59.7812 63.9988 59.9375 63.6342 59.9375 63.2175V45.28C59.9375 44.8634 59.7812 44.4988 59.4688 44.1863C59.1562 43.8738 58.7917 43.7175 58.375 43.7175H56.3125V36.8425H58.9375C60.1875 36.8425 61.2604 36.3946 62.1562 35.4988C63.0521 34.6029 63.5 33.5092 63.5 32.2175V22.2175C63.5 21.9675 63.4062 21.7488 63.2188 21.5613C63.0312 21.3738 62.8125 21.28 62.5625 21.28ZM39.1875 42.5925C39.5625 42.7175 39.9583 42.8425 40.375 42.9675C40.7917 43.0925 41.2083 43.2384 41.625 43.405V51.9675H39.1875V42.5925ZM42.8125 24.155C42.6458 24.655 42.3854 25.1029 42.0312 25.4988C41.6771 25.8946 41.2292 26.2384 40.6875 26.53V21.3425C40.9792 21.2592 41.2396 21.1863 41.4688 21.1238C41.6979 21.0613 41.9375 21.0092 42.1875 20.9675C42.5208 21.4259 42.75 21.9363 42.875 22.4988C43 23.0613 42.9792 23.6134 42.8125 24.155ZM15.9375 10.405H25.5C25.75 10.405 25.9688 10.3113 26.1562 10.1238C26.3438 9.93628 26.4375 9.71753 26.4375 9.46753C26.4375 9.21753 26.3438 8.99878 26.1562 8.81128C25.9688 8.62378 25.75 8.53003 25.5 8.53003H16.4375L17.1875 6.03003C17.4792 4.98836 17.9375 4.16545 18.5625 3.56128C19.1875 2.95711 19.875 2.65503 20.625 2.65503H34C34.7917 2.65503 35.5 2.95711 36.125 3.56128C36.75 4.16545 37.2083 4.98836 37.5 6.03003L38.1875 8.53003H29.8125C29.5625 8.53003 29.3438 8.62378 29.1562 8.81128C28.9688 8.99878 28.875 9.21753 28.875 9.46753C28.875 9.71753 28.9688 9.93628 29.1562 10.1238C29.3438 10.3113 29.5625 10.405 29.8125 10.405H38.75L39.8125 14.2175H14.875L15.9375 10.405ZM14 26.53C13.4583 26.2384 13.0104 25.8946 12.6562 25.4988C12.3021 25.1029 12.0417 24.655 11.875 24.155C11.7083 23.6134 11.6875 23.0613 11.8125 22.4988C11.9375 21.9363 12.1667 21.4259 12.5 20.9675C12.75 21.0092 12.9896 21.0613 13.2188 21.1238C13.4479 21.1863 13.7083 21.2592 14 21.3425V26.53ZM8.25 16.28C8.25 16.2384 8.23958 16.2071 8.21875 16.1863C8.19792 16.1654 8.1875 16.155 8.1875 16.155C8.27083 16.155 10.25 16.1342 14.125 16.0925C18.0417 16.0925 22.3125 16.0925 26.9375 16.0925C31.5625 16.0925 35.7917 16.0925 39.625 16.0925C43.5 16.0925 45.4375 16.0925 45.4375 16.0925C45.5208 16.0925 45.6771 16.0925 45.9062 16.0925C46.1354 16.0925 46.3333 16.1134 46.5 16.155C46.5 16.155 46.4896 16.1654 46.4688 16.1863C46.4479 16.2071 46.4375 16.2384 46.4375 16.28C45.8958 17.2384 44.3125 18.1863 41.6875 19.1238C39.0625 20.0613 34.2708 20.5925 27.3125 20.7175C20.3958 20.5925 15.625 20.0613 13 19.1238C10.375 18.1863 8.79167 17.2384 8.25 16.28ZM15.875 26.7175V21.655C17.375 21.9467 19.0833 22.1654 21 22.3113C22.9167 22.4571 25.0208 22.5509 27.3125 22.5925C27.3542 22.5925 27.375 22.5925 27.375 22.5925C29.6667 22.5509 31.7708 22.4571 33.6875 22.3113C35.6042 22.1654 37.3125 21.9467 38.8125 21.655V26.7175C38.8125 28.8009 37.9479 30.9467 36.2188 33.155C34.4896 35.3634 32.4583 36.905 30.125 37.78C29.625 37.9884 29.1458 38.1342 28.6875 38.2175C28.2292 38.3009 27.7708 38.3425 27.3125 38.3425C26.8958 38.3425 26.4583 38.3009 26 38.2175C25.5417 38.1342 25.0625 37.9884 24.5625 37.78C22.2292 36.905 20.1979 35.3634 18.4688 33.155C16.7396 30.9467 15.875 28.8009 15.875 26.7175ZM33 38.4675V39.4675C33 41.0509 32.4479 42.3946 31.3438 43.4988C30.2396 44.6029 28.8958 45.155 27.3125 45.155C25.7708 45.155 24.4479 44.6029 23.3438 43.4988C22.2396 42.3946 21.6875 41.0509 21.6875 39.4675V38.4675C22.0625 38.6759 22.4271 38.8738 22.7812 39.0613C23.1354 39.2488 23.5 39.405 23.875 39.53C24.5417 39.78 25.1458 39.9571 25.6875 40.0613C26.2292 40.1654 26.7708 40.2175 27.3125 40.2175C27.8958 40.2175 28.4583 40.1654 29 40.0613C29.5417 39.9571 30.125 39.78 30.75 39.53C31.1667 39.405 31.5521 39.2488 31.9062 39.0613C32.2604 38.8738 32.625 38.6759 33 38.4675ZM13.0625 43.405C13.4792 43.2384 13.8854 43.0925 14.2812 42.9675C14.6771 42.8425 15.0833 42.7175 15.5 42.5925V51.9675H13.0625V43.405ZM11.1875 52.155C10.7292 52.3217 10.3438 52.6238 10.0312 53.0613C9.71875 53.4988 9.5625 53.9884 9.5625 54.53V62.905H2.3125C2.1875 62.905 2.09375 62.905 2.03125 62.905C1.96875 62.905 1.91667 62.905 1.875 62.905C1.875 62.8634 1.875 62.8113 1.875 62.7488C1.875 62.6863 1.875 62.5925 1.875 62.4675L2.4375 53.28C2.52083 51.655 3.08333 50.1759 4.125 48.8425C5.16667 47.5092 6.70833 46.3217 8.75 45.28C9.125 45.0717 9.52083 44.8738 9.9375 44.6863C10.3542 44.4988 10.7708 44.3009 11.1875 44.0925V52.155ZM43.25 62.905H11.4375V54.53C11.4375 54.3217 11.5104 54.155 11.6562 54.03C11.8021 53.905 11.9583 53.8425 12.125 53.8425H24.75C25 53.8425 25.2188 53.7488 25.4062 53.5613C25.5938 53.3738 25.6875 53.155 25.6875 52.905C25.6875 52.655 25.5938 52.4363 25.4062 52.2488C25.2188 52.0613 25 51.9675 24.75 51.9675H17.375V42.0925C17.7917 41.9675 18.1979 41.8529 18.5938 41.7488C18.9896 41.6446 19.375 41.5509 19.75 41.4675L20.0625 41.405C20.4792 42.9884 21.3646 44.3217 22.7188 45.405C24.0729 46.4884 25.6042 47.03 27.3125 47.03C29.0625 47.03 30.6146 46.4884 31.9688 45.405C33.3229 44.3217 34.2083 42.9884 34.625 41.405L34.9375 41.4675C35.2708 41.5509 35.6458 41.6446 36.0625 41.7488C36.4792 41.8529 36.8958 41.9675 37.3125 42.0925V51.9675H29.5C29.2083 51.9675 28.9792 52.0613 28.8125 52.2488C28.6458 52.4363 28.5625 52.655 28.5625 52.905C28.5625 53.155 28.6562 53.3738 28.8438 53.5613C29.0312 53.7488 29.25 53.8425 29.5 53.8425C29.5 53.8425 29.5 53.8529 29.5 53.8738C29.5 53.8946 29.5 53.905 29.5 53.905L42.5625 53.8425C42.6458 53.8425 42.7292 53.8529 42.8125 53.8738C42.8958 53.8946 42.9583 53.9467 43 54.03C43.0833 54.0717 43.1458 54.1342 43.1875 54.2175C43.2292 54.3009 43.25 54.405 43.25 54.53V62.905ZM50.875 62.905H45.125V54.53C45.125 54.155 45.0521 53.8113 44.9062 53.4988C44.7604 53.1863 44.5833 52.9259 44.375 52.7175C44.25 52.5925 44.1146 52.4779 43.9688 52.3738C43.8229 52.2696 43.6667 52.1967 43.5 52.155V44.0925C45 44.7175 46.4062 45.4571 47.7188 46.3113C49.0312 47.1654 50.0833 48.155 50.875 49.28V62.905ZM58.0625 62.905H52.75V59.155H58.0625V62.905ZM58.0625 57.28H52.75V54.28H58.0625V57.28ZM58.0625 45.5925V52.405H52.75V45.5925H58.0625Z" fill="#C5CE38"/>
</svg>
