<svg width="14" height="13" viewBox="0 0 14 13" fill="none" xmlns="http://www.w3.org/2000/svg">
<path d="M6.01074 1.03174C6.15137 0.750488 6.37793 0.609863 6.69043 0.609863C7.00293 0.609863 7.22949 0.750488 7.37012 1.03174L8.89355 4.12549L12.3154 4.64111C12.6279 4.67236 12.8311 4.83643 12.9248 5.1333C13.0186 5.43018 12.9561 5.68799 12.7373 5.90674L10.2529 8.3208L10.8389 11.7427C10.8857 12.0396 10.7842 12.2739 10.5342 12.4458C10.2842 12.6333 10.0264 12.6567 9.76074 12.5161L6.69043 10.9224L3.62012 12.5161C3.35449 12.6724 3.09668 12.6567 2.84668 12.4692C2.59668 12.2817 2.49512 12.0396 2.54199 11.7427L3.12793 8.3208L0.643555 5.90674C0.424805 5.68799 0.362305 5.43018 0.456055 5.1333C0.549805 4.83643 0.75293 4.67236 1.06543 4.64111L4.4873 4.12549L6.01074 1.03174Z" fill="#FFC204"/>
</svg>
