<svg width="14" height="13" viewBox="0 0 14 13" fill="none" xmlns="http://www.w3.org/2000/svg">
<path d="M12.8936 4.64111C13.1904 4.67236 13.3857 4.83643 13.4795 5.1333C13.5889 5.43018 13.5264 5.68799 13.292 5.90674L10.8076 8.3208L11.3936 11.7427C11.4404 11.9771 11.3857 12.1802 11.2295 12.3521C11.0732 12.5239 10.8857 12.6099 10.667 12.6099C10.542 12.6099 10.4248 12.5786 10.3154 12.5161L7.24512 10.9224L4.1748 12.5161C4.06543 12.5786 3.94824 12.6099 3.82324 12.6099C3.60449 12.6099 3.41699 12.5239 3.26074 12.3521C3.10449 12.1802 3.0498 11.9771 3.09668 11.7427L3.68262 8.3208L1.19824 5.90674C0.963867 5.68799 0.893555 5.43018 0.987305 5.1333C1.09668 4.83643 1.2998 4.66455 1.59668 4.61768L5.04199 4.12549L6.56543 1.03174C6.70605 0.750488 6.93262 0.609863 7.24512 0.609863C7.55762 0.609863 7.78418 0.750488 7.9248 1.03174L9.44824 4.12549L12.8936 4.64111ZM10.0342 7.52393L11.9561 5.62549L9.28418 5.25049L8.69824 5.15674L8.44043 4.61768L7.24512 2.20361V9.6333L7.76074 9.91455L10.1514 11.1802L9.70605 8.5083L9.6123 7.92236L10.0342 7.52393Z" fill="#FFC204"/>
</svg>
