<svg width="17" height="16" viewBox="0 0 17 16" fill="none" xmlns="http://www.w3.org/2000/svg">
<path d="M16.0932 6.45071C16.0411 6.28405 15.95 6.14863 15.8198 6.04446C15.6896 5.9403 15.5411 5.8778 15.3745 5.85696L10.7495 5.45071L8.92133 1.16946C8.85883 1.01321 8.75467 0.888212 8.60883 0.794462C8.463 0.700712 8.30675 0.653837 8.14008 0.653837C7.97342 0.653837 7.81717 0.700712 7.67133 0.794462C7.5255 0.888212 7.42133 1.01321 7.35883 1.16946L5.53071 5.45071L0.905707 5.85696C0.739041 5.8778 0.590603 5.9403 0.460395 6.04446C0.330187 6.14863 0.239041 6.28405 0.186957 6.45071C0.134874 6.60696 0.129666 6.76842 0.171332 6.93509C0.212999 7.10175 0.301541 7.24238 0.436957 7.35696L3.92133 10.4195L2.89008 14.9507C2.85883 15.1174 2.87185 15.2788 2.92914 15.4351C2.98644 15.5913 3.08279 15.7215 3.21821 15.8257C3.29112 15.8778 3.37185 15.9169 3.46039 15.9429C3.54894 15.9689 3.63487 15.982 3.71821 15.982C3.79112 15.982 3.86664 15.9715 3.94477 15.9507C4.02289 15.9299 4.09321 15.9038 4.15571 15.8726L8.14008 13.482L12.1245 15.8726C12.2703 15.9559 12.4265 15.995 12.5932 15.9898C12.7599 15.9846 12.9161 15.9299 13.062 15.8257C13.1974 15.7215 13.2937 15.5913 13.351 15.4351C13.4083 15.2788 13.4213 15.1174 13.3901 14.9507L12.3588 10.4195L15.8432 7.35696C15.9786 7.24238 16.0672 7.10175 16.1088 6.93509C16.1505 6.76842 16.1453 6.60696 16.0932 6.45071Z" fill="#EEC044"/>
</svg>
